<?xml version="1.0" encoding="utf-8"?>
<!-- Generator: Adobe Illustrator 16.0.4, SVG Export Plug-In . SVG Version: 6.00 Build 0)  -->
<!DOCTYPE svg PUBLIC "-//W3C//DTD SVG 1.0//EN" "http://www.w3.org/TR/2001/REC-SVG-20010904/DTD/svg10.dtd">
<svg version="1.0" id="Layer_1" xmlns="http://www.w3.org/2000/svg" xmlns:xlink="http://www.w3.org/1999/xlink" x="0px" y="0px"
	 width="46px" height="46px" viewBox="-7 -7 46 46" style="enable-background:new -7 -7 46 46;" xml:space="preserve">
<style type="text/css">
<![CDATA[
	.st0{fill:#FFFFFF;}
	.st1{fill:#3FC5A4;stroke:#FFFFFF;stroke-miterlimit:10;}
]]>
</style>
<circle class="st1" cx="16" cy="16" r="22"/>
<path class="st0" d="M2.55,8.458c0.781,0.421,11.598,6.23,12.002,6.446c0.402,0.216,0.923,0.32,1.448,0.32
	c0.525,0,1.048-0.104,1.45-0.322c0.403-0.216,11.219-6.026,12-6.446c0.782-0.419,1.522-1.736,0.086-1.736H2.466
	C1.031,6.72,1.768,8.037,2.55,8.458L2.55,8.458z M29.781,11.658c-0.889,0.464-11.787,6.162-12.331,6.445
	c-0.544,0.285-0.923,0.322-1.45,0.322c-0.525,0-0.904-0.037-1.448-0.322c-0.544-0.285-11.445-5.983-12.331-6.445
	C1.595,11.332,1.6,11.714,1.6,12.008s0,11.736,0,11.736c0,0.672,0.894,1.535,1.587,1.535h25.627c0.693,0,1.586-0.863,1.586-1.533
	c0,0,0-11.442,0-11.736C30.4,11.714,30.406,11.332,29.781,11.658z"/>
</svg>
