<?xml version="1.0" standalone="no"?>
<!DOCTYPE svg PUBLIC "-//W3C//DTD SVG 1.1//EN" "http://www.w3.org/Graphics/SVG/1.1/DTD/svg11.dtd" >
<svg xmlns="http://www.w3.org/2000/svg">
<metadata></metadata>
<defs>
<font id="air_conditionerregular" horiz-adv-x="1695" >
<font-face units-per-em="2048" ascent="1638" descent="-410" />
<missing-glyph horiz-adv-x="1228" />
<glyph unicode="fi" horiz-adv-x="1947" d="M0 580q0 127 38 230t140 185q66 53 155 86t186 50.5t194.5 23.5t177.5 6t177 -6t195.5 -23.5t187.5 -50t155 -86.5q102 -82 140 -185t38 -230t-38 -230.5t-140 -187.5q-66 -53 -155 -86t-187.5 -50.5t-195.5 -22.5t-177 -5t-177.5 5t-194.5 22.5t-186 50.5t-155 86 q-102 84 -140 187.5t-38 230.5zM143 580q0 -53 8.5 -107.5t32.5 -101.5q43 -82 129 -128t188.5 -68.5t207 -28t182.5 -5.5q80 0 186.5 5.5t210 30t190.5 72.5t128 134q23 47 27.5 97.5t4.5 99.5t-5 98t-27 96q-41 86 -128 134t-190.5 73t-210 30t-186.5 5q-78 0 -182.5 -5 t-207 -27.5t-188.5 -69t-129 -128.5q-25 -47 -33 -100t-8 -106zM778 1327q0 16 7 31l143 295q10 18 26.5 30.5t36.5 12.5q29 0 51.5 -22.5t22.5 -51.5q0 -10 -8 -31l-141 -294q-20 -41 -66 -41q-29 0 -50.5 21.5t-21.5 49.5z" />
<glyph unicode="fl" horiz-adv-x="1947" d="M0 580q0 127 38 230t140 185q66 53 155 86t186 50.5t194.5 23.5t177.5 6t177 -6t195.5 -23.5t187.5 -50t155 -86.5q102 -82 140 -185t38 -230t-38 -230.5t-140 -187.5q-66 -53 -155 -86t-187.5 -50.5t-195.5 -22.5t-177 -5t-177.5 5t-194.5 22.5t-186 50.5t-155 86 q-102 84 -140 187.5t-38 230.5zM143 580q0 -53 8.5 -107.5t32.5 -101.5q43 -82 129 -128t188.5 -68.5t207 -28t182.5 -5.5q80 0 186.5 5.5t210 30t190.5 72.5t128 134q23 47 27.5 97.5t4.5 99.5t-5 98t-27 96q-41 86 -128 134t-190.5 73t-210 30t-186.5 5q-78 0 -182.5 -5 t-207 -27.5t-188.5 -69t-129 -128.5q-25 -47 -33 -100t-8 -106zM635 1323q0 33 27 55l198 160q20 16 45 16t45 -16l199 -160q27 -22 27 -55q0 -29 -21.5 -51.5t-50.5 -22.5q-25 0 -45 17l-154 123l-153 -123q-20 -16 -45 -17q-29 0 -50.5 22.5t-21.5 51.5z" />
<glyph horiz-adv-x="2048" />
<glyph horiz-adv-x="2048" />
<glyph unicode="&#xd;" horiz-adv-x="0" />
<glyph unicode=" "  horiz-adv-x="1228" />
<glyph unicode="&#x09;" horiz-adv-x="1228" />
<glyph unicode="&#xa0;" horiz-adv-x="1228" />
<glyph unicode="!" horiz-adv-x="747" d="M369 72q0 35 25.5 60.5t60.5 25.5t61.5 -25.5t26.5 -60.5t-27 -60.5t-61 -25.5q-35 0 -60.5 25.5t-25.5 60.5zM379 291v799q0 29 21.5 51t50.5 22t51 -22.5t22 -50.5v-799q0 -29 -22.5 -50.5t-50.5 -21.5q-29 0 -50.5 21.5t-21.5 50.5z" />
<glyph unicode="&#x22;" horiz-adv-x="626" d="M0 795v295q0 29 21.5 51t50.5 22t50 -22.5t21 -50.5v-295q0 -29 -21.5 -50.5t-49.5 -21.5q-29 0 -50.5 21.5t-21.5 50.5zM279 795v295q0 29 21.5 51t49.5 22q29 0 50.5 -22.5t21.5 -50.5v-295q0 -29 -21.5 -50.5t-50.5 -21.5t-50 21.5t-21 50.5z" />
<glyph unicode="#" horiz-adv-x="1177" d="M0 389q0 29 21.5 50.5t50.5 21.5h149l31 207h-127q-29 0 -51.5 22.5t-22.5 50.5q0 29 22.5 50.5t51.5 21.5h149l23 150q4 27 23.5 44t46.5 17q29 0 51 -21.5t22 -50.5t-8 -68.5t-12 -70.5h207l20 150q4 27 24.5 44t47.5 17q29 0 51.5 -21.5t22.5 -50.5t-8.5 -68.5 t-12.5 -70.5h129q29 0 50.5 -21.5t21.5 -50.5t-21.5 -51t-50.5 -22h-151l-31 -207h129q29 0 50.5 -21.5t21.5 -50.5t-21.5 -50.5t-50.5 -21.5h-150l-22 -151q-4 -27 -24.5 -44.5t-47.5 -17.5q-29 0 -50.5 21.5t-21.5 50.5t8.5 70t12.5 71h-207l-22 -151q-4 -27 -23.5 -44.5 t-46.5 -17.5q-29 0 -51.5 21.5t-22.5 50.5t8.5 70t12.5 71h-129q-29 0 -50.5 21.5t-21.5 50.5zM369 461h204l31 207h-205z" />
<glyph unicode="$" horiz-adv-x="1189" d="M0 274q0 29 21.5 50.5t50.5 21.5h348v162q-63 0 -137 1t-136.5 20.5t-104.5 65.5t-42 136t42 137t104.5 66.5t136 20.5t137.5 1v134q0 29 21.5 51t50.5 22t51 -22.5t22 -50.5v-134h346q29 0 51.5 -21.5t22.5 -49.5q0 -29 -22.5 -50.5t-51.5 -21.5h-346v-162q63 0 137 -1 t136.5 -20.5t104.5 -66.5t42 -137t-42 -137t-104.5 -66.5t-136 -20.5t-137.5 -1v-129q0 -29 -22.5 -50.5t-50.5 -21.5q-29 0 -50.5 21.5t-21.5 50.5v129h-348q-29 0 -50.5 22.5t-21.5 50.5zM143 731q0 -25 11 -41q10 -14 30.5 -22.5t45 -11.5t48 -4t37.5 -1h105v162h-105 q-14 0 -38.5 -1t-49 -5t-46 -12.5t-29.5 -24.5t-9 -39zM565 346h105q16 0 38.5 1t47 4t45 11.5t30.5 22.5q6 10 7.5 20.5t1.5 20.5t-1 19.5t-5 19.5q-8 16 -30 24.5t-46.5 12.5t-48 5t-39.5 1h-105v-162z" />
<glyph unicode="%" horiz-adv-x="1990" d="M0 844q0 96 31.5 157.5t86 97.5t127 50t156.5 14q68 0 139.5 -11t131.5 -46q47 33 104.5 45t114.5 12h643q29 0 51.5 -22t22.5 -51q0 -31 -29 -56l-1282 -1020q-16 -14 -45 -14t-51.5 21.5t-22.5 50.5q0 33 29 57l1120 889h-436q-29 0 -59.5 -4t-59.5 -17 q16 -35 23.5 -73.5t7.5 -79.5q0 -94 -32 -156.5t-86 -98.5t-127 -50.5t-157 -14.5t-156.5 14.5t-127 50.5t-86 98.5t-31.5 156.5zM143 844q0 -20 1 -41t10 -39q12 -33 41.5 -52.5t65.5 -28.5t74 -11t66 -2q29 0 65 2t70.5 10t64.5 24.5t44 47.5q10 23 11 45t1 45t-1 44 t-11 44q-14 31 -44 47t-64.5 25.5t-70.5 11.5t-65 2t-66.5 -2t-73.5 -11.5t-65.5 -28t-41.5 -52.5q-8 -18 -9.5 -39t-1.5 -41zM983 317q0 96 32 158t86 97.5t126.5 50t156.5 14.5t157 -14.5t127 -50t86 -97.5t32 -158q0 -94 -32 -156.5t-86 -97t-127 -49t-157 -14.5 t-156.5 14.5t-126.5 49t-86 97t-32 156.5zM1128 317q0 -23 1 -44t12 -44q14 -31 43.5 -47t64.5 -25.5t71 -11.5t64 -2q29 0 65 2t70.5 11.5t64.5 26t44 46.5q10 23 11 44t1 44v41t-8 39q-12 35 -41.5 53.5t-65.5 27.5t-74 11.5t-67 2.5t-66.5 -2.5t-73.5 -11.5t-65.5 -27.5 t-41.5 -53.5q-8 -18 -8.5 -38.5t-0.5 -41.5z" />
<glyph unicode="&#x26;" horiz-adv-x="1652" d="M0 317q0 72 31.5 125.5t82 92t112 65.5t118.5 47q-45 47 -81 106.5t-36 127.5q0 80 38 134t96.5 87t130 47t137.5 14t137.5 -14t130.5 -47t97 -87t38 -134q0 -72 -41 -122t-100.5 -84t-127 -55.5t-122.5 -37.5q94 -70 190.5 -131.5t198.5 -118.5q90 61 166 131 q18 16 35.5 35.5t36.5 36.5q14 10 25.5 16t29.5 6q29 0 50.5 -21.5t21.5 -50.5q0 -16 -4.5 -25t-14.5 -22q-12 -18 -38.5 -43.5t-57.5 -52.5t-60.5 -50.5t-48.5 -37.5q39 -20 78 -39.5t80 -40.5q18 -10 39 -18.5t39 -18.5q41 -24 41 -65q0 -29 -21.5 -50.5t-50.5 -21.5 q-14 0 -63 22.5t-105.5 51t-104.5 55.5t-65 35q-121 -72 -255 -118t-277 -46q-59 0 -126 8t-129.5 29.5t-116.5 56.5t-91 88q-20 29 -31.5 65t-11.5 70zM143 317q0 -33 22.5 -59.5t54.5 -45.5t67 -32.5t61 -19.5q39 -10 78 -13.5t80 -3.5q102 0 198.5 29t186.5 76 q-111 66 -218.5 135.5t-205.5 151.5q-35 -10 -90 -28t-107.5 -43.5t-89.5 -62t-37 -84.5zM371 881q0 -25 14 -51.5t34.5 -51t43 -47t39.5 -37.5q18 6 54 14.5t79 20.5t87 28.5t81 36t60.5 41t23.5 46.5q0 43 -29 70.5t-68.5 42t-83.5 19.5t-77 5q-31 0 -76 -5t-85 -20.5 t-68.5 -42t-28.5 -69.5z" />
<glyph unicode="'" horiz-adv-x="348" d="M0 795v295q0 29 21.5 51t50.5 22t50 -22.5t21 -50.5v-295q0 -29 -21.5 -50.5t-49.5 -21.5q-29 0 -50.5 21.5t-21.5 50.5z" />
<glyph unicode="(" horiz-adv-x="573" d="M0 578q0 166 39 332.5t135 306.5q10 16 34.5 47.5t41.5 42.5q12 8 21.5 12t25.5 4q29 0 50.5 -21.5t21.5 -50.5q0 -18 -6.5 -28.5t-18.5 -24.5q-27 -29 -51 -63q-84 -119 -117 -267.5t-33 -289.5t33 -289t117 -266q25 -35 51 -64q12 -14 18.5 -24.5t6.5 -28.5 q0 -29 -21.5 -51.5t-50.5 -22.5q-16 0 -25.5 5t-21.5 13q-16 10 -41 42t-35 49q-96 139 -135 305t-39 332z" />
<glyph unicode=")" horiz-adv-x="573" d="M0 -94q0 18 6 28.5t19 24.5q27 29 51 64q84 119 116.5 266t32.5 289q0 141 -32.5 289.5t-116.5 267.5q-25 35 -51 63q-12 14 -18.5 24.5t-6.5 28.5q0 29 21.5 50.5t50.5 21.5q16 0 25 -4t22 -12q16 -10 40.5 -42t35.5 -48q96 -139 135 -306t39 -333t-39 -332t-135 -305 q-10 -16 -35 -48t-41 -43q-12 -8 -21.5 -13t-25.5 -5q-29 0 -50.5 22.5t-21.5 51.5z" />
<glyph unicode="*" horiz-adv-x="1021" d="M0 371q0 41 37 61l227 133l-227 131q-37 20 -37 62q0 29 21.5 51t50.5 22q20 0 37 -10l227 -131v262q0 29 21.5 50.5t50.5 21.5t51 -21.5t22 -50.5v-262l228 131q16 10 34 10q29 0 51.5 -22.5t22.5 -50.5q0 -41 -37 -62l-227 -131l227 -133q37 -20 37 -61 q0 -29 -22.5 -50.5t-51.5 -21.5q-20 0 -34 8l-228 133v-264q0 -29 -22.5 -50.5t-50.5 -21.5q-29 0 -50.5 21.5t-21.5 50.5v264l-227 -133q-14 -8 -37 -8q-29 0 -50.5 21.5t-21.5 50.5z" />
<glyph unicode="+" horiz-adv-x="1124" d="M0 565q0 29 21.5 50.5t50.5 21.5h315v315q0 29 22.5 50.5t51.5 21.5t50 -21.5t21 -50.5v-315h316q29 0 50.5 -21.5t21.5 -50.5t-21.5 -51t-50.5 -22h-316v-316q0 -29 -21.5 -50.5t-49.5 -21.5q-29 0 -51.5 21.5t-22.5 50.5v316h-315q-29 0 -50.5 22.5t-21.5 50.5z" />
<glyph unicode="," horiz-adv-x="860" d="M369 -225q0 16 6 32l143 295q20 41 64 41q29 0 51 -21t22 -50q0 -10 -8 -31l-141 -297q-20 -41 -66 -41q-29 0 -50 21.5t-21 50.5z" />
<glyph unicode="-" horiz-adv-x="1124" d="M0 565q0 29 21.5 50.5t50.5 21.5h776q29 0 50.5 -21.5t21.5 -50.5t-21.5 -51t-50.5 -22h-776q-29 0 -50.5 22.5t-21.5 50.5z" />
<glyph unicode="." horiz-adv-x="747" d="M369 72q0 35 25.5 60.5t60.5 25.5t61.5 -25.5t26.5 -60.5t-27 -60.5t-61 -25.5q-35 0 -60.5 25.5t-25.5 60.5z" />
<glyph unicode="/" horiz-adv-x="794" d="M0 72q0 16 6 28l447 1018q20 45 65 45q29 0 50.5 -22t21.5 -51q0 -16 -6 -29l-445 -1018q-20 -43 -67 -43q-29 0 -50.5 21.5t-21.5 50.5z" />
<glyph unicode="0" horiz-adv-x="1988" d="M0 580q0 127 38 230t140 185q66 53 155 86t186 50.5t194.5 23.5t177.5 6t177 -6t195.5 -23.5t187.5 -50t155 -86.5q102 -82 140 -185t38 -230t-38 -230.5t-140 -187.5q-66 -53 -155 -86t-187.5 -50.5t-195.5 -22.5t-177 -5t-177.5 5t-194.5 22.5t-186 50.5t-155 86 q-102 84 -140 187.5t-38 230.5zM143 580q0 -53 8.5 -107.5t32.5 -101.5q43 -82 129 -128t188.5 -68.5t207 -28t182.5 -5.5q80 0 186.5 5.5t210 30t189.5 72.5t127 134q23 47 28.5 97.5t5.5 99.5t-6 98t-28 96q-41 86 -127 134t-189.5 73t-210 30t-186.5 5q-78 0 -182.5 -5 t-207 -27.5t-188.5 -69t-129 -128.5q-25 -47 -33 -100t-8 -106z" />
<glyph unicode="1" horiz-adv-x="348" d="M0 72v1018q0 29 21.5 51t50.5 22t50 -22.5t21 -50.5v-1018q0 -29 -21.5 -50.5t-49.5 -21.5q-29 0 -50.5 21.5t-21.5 50.5z" />
<glyph unicode="2" horiz-adv-x="1654" d="M0 74q0 86 35 161.5t90 137.5q49 53 113.5 89t135 57.5t145.5 29.5t145 8q53 0 142 2t183 15.5t176 41t117 76.5q16 23 19.5 44.5t3.5 47.5q0 27 -3.5 49.5t-19.5 45.5q-35 49 -117 76.5t-176 41t-183 15.5t-142 2q-66 0 -138.5 -2t-145.5 -10.5t-142.5 -24.5t-128.5 -45 q-20 -10 -37 -10q-29 0 -50.5 21.5t-21.5 49.5q0 23 10 37t27 27q14 10 31.5 17t33.5 13q61 25 132 38.5t145 21.5t147.5 10t137.5 2q82 0 162.5 -4t162.5 -14q80 -10 163 -30.5t148.5 -60.5t107.5 -104t42 -162t-42 -161.5t-107.5 -103.5t-148.5 -59.5t-163 -29.5 q-82 -10 -163 -14t-162 -4q-74 0 -155 -11.5t-152.5 -40t-126 -81t-76.5 -136.5h1202q29 0 50 -22.5t21 -50.5q0 -29 -21.5 -50.5t-49.5 -21.5h-1284q-33 0 -52.5 21.5t-19.5 54.5z" />
<glyph unicode="3" horiz-adv-x="1753" d="M0 70q0 29 21.5 50t50.5 21h997q51 0 109.5 3t108.5 19.5t83 54.5t33 106q0 25 -4 49t-19 47q-20 33 -59 50t-84 25.5t-90 10.5t-78 2h-997q-29 0 -50.5 21.5t-21.5 50.5t21.5 50t50.5 21h997q51 0 109.5 3t108.5 19.5t83 54.5t33 106q0 25 -4 49t-19 47q-20 33 -59 50 t-84 25.5t-90 9.5t-78 1h-997q-29 0 -50.5 22.5t-21.5 51.5t21.5 50t50.5 21h1009q84 0 167 -12t149.5 -48t108.5 -99.5t42 -167.5q0 -80 -29.5 -145.5t-99.5 -108.5q70 -43 99.5 -109.5t29.5 -146.5q0 -104 -42 -168t-108.5 -98.5t-149.5 -47t-167 -12.5h-1009 q-29 0 -50.5 21.5t-21.5 50.5z" />
<glyph unicode="4" horiz-adv-x="1769" d="M0 436q0 39 31 60l950 653q23 14 41 14q29 0 50.5 -22.5t21.5 -50.5q0 -39 -31 -60l-758 -522h862v582q0 29 22.5 51t51.5 22t50.5 -22.5t21.5 -50.5v-582h180q29 0 50.5 -21.5t21.5 -50.5t-21.5 -50t-50.5 -21h-180v-293q0 -29 -21.5 -50.5t-50.5 -21.5t-51.5 21.5 t-22.5 50.5v293h-1095q-29 0 -50.5 21.5t-21.5 49.5z" />
<glyph unicode="5" horiz-adv-x="1654" d="M0 164q0 29 21.5 51.5t50.5 22.5q16 0 37 -11q59 -31 128.5 -47t142.5 -24.5t145.5 -10.5t138.5 -2q35 0 88 1t114.5 5.5t126 13.5t121.5 24.5t102.5 39t67.5 58.5q14 23 17.5 43t3.5 45t-3.5 46t-17.5 44q-23 35 -68 58.5t-102 38.5t-121.5 24.5t-126 13.5t-115 5 t-87.5 1q-66 0 -138.5 -2t-145.5 -10t-142.5 -24.5t-128.5 -47.5q-20 -10 -37 -10q-29 0 -50.5 20.5t-21.5 51.5v508q0 29 21.5 51t50.5 22h1284q29 0 50 -22.5t21 -50.5q0 -29 -21.5 -50.5t-49.5 -21.5h-1213v-328q59 18 125 29.5t133.5 17.5t134 8.5t128.5 2.5 q82 0 162.5 -4.5t162.5 -14.5q80 -10 163 -30.5t148.5 -60.5t107.5 -103.5t42 -161.5t-42 -162t-107.5 -103.5t-148.5 -60t-163 -31.5q-82 -10 -163 -13t-162 -3q-66 0 -139.5 2t-149.5 10t-147.5 22.5t-133.5 39.5q-14 6 -29.5 12t-27.5 16q-16 12 -26.5 25.5t-10.5 36.5z " />
<glyph unicode="6" horiz-adv-x="1896" d="M0 580q0 129 38 231t140 186q66 53 155 86t186 50.5t193.5 22.5t178.5 5q78 0 162 -4t169 -17.5t165.5 -37t148.5 -62.5q20 -10 41.5 -23t38.5 -30q25 -25 24 -55q0 -29 -21.5 -50.5t-49.5 -21.5q-23 0 -45 17q-20 14 -39 26t-41 23q-57 29 -128 46t-143.5 27.5 t-145.5 13.5t-136 3q-76 0 -178.5 -5t-202.5 -26.5t-186 -66t-131 -119.5q-29 -49 -39.5 -105.5t-10.5 -113.5t10.5 -113.5t39.5 -106.5q45 -76 131 -119.5t186 -65t202.5 -27t178.5 -5.5q37 0 90 1t115.5 5.5t127 12.5t123 24.5t104.5 40t71 58.5q16 23 20 47t4 51t-4 50.5 t-20 45.5q-25 35 -71 59.5t-104.5 40t-123 24.5t-127 13.5t-115.5 5.5t-90 1q-68 0 -141.5 -2.5t-148.5 -11.5t-145.5 -26.5t-131.5 -47.5q-16 -8 -35 -9q-29 0 -51.5 21.5t-22.5 50.5q0 23 10.5 37t26.5 27q14 10 29.5 16t31.5 12q61 25 134 40t150 23.5t152.5 10.5 t141.5 2q92 0 185 -4t186 -19q80 -12 156.5 -34.5t138 -63.5t98.5 -104.5t37 -157.5t-37 -157.5t-98.5 -104.5t-138.5 -63.5t-156 -34.5q-92 -14 -185.5 -19.5t-185.5 -5.5q-82 0 -178.5 5t-193.5 22.5t-186 50.5t-155 86q-102 84 -140 186.5t-38 231.5z" />
<glyph unicode="7" horiz-adv-x="1632" d="M0 1090q0 29 21.5 51t50.5 22h1284q29 0 50 -22t21 -51q0 -31 -18 -50l-932 -1017q-23 -23 -53 -23q-29 0 -50.5 21.5t-21.5 50.5q0 31 19 49l821 897h-1120q-29 0 -50.5 21.5t-21.5 50.5z" />
<glyph unicode="8" horiz-adv-x="1708" d="M0 324q0 80 29.5 146.5t99.5 109.5q-70 43 -99.5 108.5t-29.5 145.5q0 102 41 165.5t105.5 99.5t147.5 49t165 13h585q84 0 166 -13t146.5 -49t105.5 -99.5t41 -165.5q0 -80 -29.5 -145.5t-99.5 -108.5q70 -43 99.5 -109.5t29.5 -146.5q0 -102 -40 -166t-105.5 -99.5 t-147.5 -48t-166 -12.5h-585q-84 0 -166 12.5t-147.5 48t-105.5 99t-40 166.5zM143 324q0 -68 33 -106t83 -54.5t109.5 -19.5t110.5 -3h547q51 0 109.5 3t108.5 19.5t83 54.5t33 106q0 27 -4 52t-21 48q-20 31 -59 48t-84 24.5t-89 9.5t-77 2h-547q-33 0 -78 -2t-90 -9.5 t-84 -24.5t-59 -48q-16 -23 -20.5 -48.5t-4.5 -51.5zM143 834q0 -68 33 -106t83 -54.5t109.5 -19.5t110.5 -3h547q51 0 109.5 3t108.5 19.5t83 54.5t33 106q0 27 -4 52t-21 48q-20 31 -59 47t-84 24.5t-89 9.5t-77 1h-547q-33 0 -78 -1t-90 -9.5t-84 -24.5t-59 -47 q-16 -23 -20.5 -48.5t-4.5 -51.5z" />
<glyph unicode="9" horiz-adv-x="1894" d="M0 776q0 94 37 157.5t97.5 104.5t137 63.5t156.5 35.5q92 14 185.5 19t185.5 5q82 0 178 -6t193.5 -23.5t186.5 -49t154 -85.5q102 -84 140.5 -187t38.5 -230q0 -129 -38 -230.5t-141 -185.5q-66 -53 -154.5 -85t-186 -49.5t-193.5 -23.5t-178 -6q-76 0 -161 4t-170 16.5 t-166 36t-148 62.5q-20 10 -41 23.5t-37 29.5q-27 27 -27 55q0 29 21.5 51.5t50.5 22.5q25 0 47 -16q20 -14 37.5 -27.5t40.5 -24.5q59 -29 128.5 -46t142.5 -27t145.5 -13.5t136.5 -3.5q78 0 179 5.5t201.5 27t186.5 65.5t131 119q29 49 38 105.5t9 114.5q0 57 -9 113.5 t-38 105.5q-45 76 -131 120t-186.5 65.5t-201.5 26.5t-179 5q-35 0 -89.5 -1t-117 -5t-127 -12.5t-122.5 -25t-104 -40t-71 -58.5q-16 -23 -20.5 -47t-4.5 -51t4.5 -50.5t20.5 -45.5q25 -35 71 -58.5t104 -40t122.5 -24.5t127 -12t117 -5t89.5 -1q68 0 141.5 2t148 10 t145.5 25.5t132 48.5q16 8 35 8q29 0 51.5 -21.5t22.5 -50.5q0 -23 -10.5 -36t-26.5 -25q-14 -10 -29.5 -17.5t-32.5 -13.5q-61 -25 -134 -40t-149.5 -23.5t-152.5 -10.5t-141 -2q-92 0 -185.5 5t-185.5 20q-80 12 -156.5 34.5t-137 63.5t-97.5 103.5t-37 156.5z" />
<glyph unicode=":" horiz-adv-x="747" d="M369 72q0 35 25.5 60.5t60.5 25.5t61.5 -25.5t26.5 -60.5t-27 -60.5t-61 -25.5q-35 0 -60.5 25.5t-25.5 60.5zM369 565q0 35 25.5 60.5t60.5 25.5t61.5 -25.5t26.5 -60.5t-27 -61.5t-61 -26.5q-35 0 -60.5 26.5t-25.5 61.5z" />
<glyph unicode=";" horiz-adv-x="860" d="M369 -225q0 16 6 32l143 295q20 41 64 41q29 0 51 -21t22 -50q0 -10 -8 -31l-141 -297q-20 -41 -66 -41q-29 0 -50 21.5t-21 50.5zM481 565q0 35 25.5 60.5t60.5 25.5t61.5 -25.5t26.5 -60.5t-26.5 -61.5t-61.5 -26.5t-60.5 26.5t-25.5 61.5z" />
<glyph unicode="&#x3c;" horiz-adv-x="1126" d="M0 565q0 51 51 68l778 239q12 4 21 5q29 0 50.5 -21.5t21.5 -50.5q0 -23 -14.5 -42.5t-37.5 -27.5l-553 -170l553 -172q52 -16 52 -67q0 -29 -21.5 -50.5t-50.5 -21.5q-14 0 -21 2l-778 240q-23 8 -37 27.5t-14 41.5z" />
<glyph unicode="=" horiz-adv-x="1124" d="M0 432q0 29 21.5 50.5t50.5 21.5h776q29 0 50.5 -21.5t21.5 -50.5t-21.5 -51.5t-50.5 -22.5h-776q-29 0 -50.5 22.5t-21.5 51.5zM0 711q0 29 21.5 50t50.5 21h776q29 0 50.5 -21t21.5 -50t-21.5 -51.5t-50.5 -22.5h-776q-29 0 -50.5 22.5t-21.5 51.5z" />
<glyph unicode="&#x3e;" horiz-adv-x="1126" d="M0 326q0 51 51 67l553 172l-553 170q-23 8 -37 27.5t-14 42.5q0 29 21.5 50.5t50.5 21.5q8 0 20 -5l778 -239q52 -17 52 -68q0 -23 -14.5 -42t-37.5 -27l-778 -240q-6 -2 -20 -2q-29 0 -50.5 21.5t-21.5 50.5z" />
<glyph unicode="?" horiz-adv-x="1488" d="M0 1008q0 23 10 37t27 26q10 6 22.5 11t22.5 10q55 23 119.5 37t132 21t134.5 9t124 2t131 -2t150.5 -12t150.5 -30.5t132 -58.5t93 -94.5t35 -138.5q0 -94 -48 -158.5t-122 -103.5t-161 -55t-165 -16q-61 0 -104 -7.5t-70.5 -29t-40 -60.5t-12.5 -104q0 -29 -22.5 -51.5 t-51.5 -22.5t-50 22.5t-21 51.5q0 98 24.5 163.5t71.5 105.5t116.5 57.5t159.5 17.5q43 0 103.5 8t116 28.5t93.5 58.5t38 95q0 20 -4.5 37t-14.5 33q-31 43 -100.5 67.5t-149 37t-156.5 14.5t-122 2q-57 0 -120.5 -2t-127 -9.5t-124 -21.5t-114.5 -39q-16 -8 -34 -8 q-29 0 -50.5 21.5t-21.5 50.5zM406 72q0 35 25.5 60.5t60.5 25.5t61.5 -25.5t26.5 -60.5t-27 -60.5t-61 -25.5q-35 0 -60.5 25.5t-25.5 60.5z" />
<glyph unicode="@" horiz-adv-x="1984" d="M0 580q0 127 38 231t140 186q68 53 157 86t185 50.5t192.5 22.5t178.5 5t178 -5t193.5 -22.5t185.5 -50t156 -86.5q102 -82 139 -186t37 -231q0 -72 -20.5 -149t-76.5 -128q-35 -31 -74.5 -48t-86.5 -17q-86 0 -150.5 39.5t-105.5 111.5q-33 -45 -83 -72.5t-106.5 -42 t-115 -18.5t-111.5 -4q-82 0 -166 11t-151.5 45t-109.5 96.5t-42 166.5t42 167t109.5 96.5t151.5 45t166 11.5q84 0 175 -12.5t165 -57.5q2 37 14.5 70t59.5 33q29 0 51 -21.5t22 -50.5q0 -23 -3 -47.5t-3 -46.5q0 -47 5 -112.5t25.5 -124t58.5 -99.5t104 -41 q35 0 57.5 21.5t34.5 52t16 65.5t4 60q0 57 -9 113.5t-38 105.5q-45 76 -131 120t-186.5 65.5t-201.5 26.5t-179 5q-76 0 -178.5 -5t-202.5 -26.5t-186 -66t-131 -119.5q-29 -49 -39.5 -105.5t-10.5 -113.5t10.5 -113.5t39.5 -106.5q45 -76 131 -119.5t186 -65t202.5 -27 t178.5 -5.5q121 0 238.5 11.5t234.5 46.5q6 2 11 3t11 1q31 0 51.5 -21.5t20.5 -50.5q0 -47 -49 -70q-12 -6 -28.5 -9t-30.5 -7q-113 -29 -227.5 -38t-231.5 -9q-82 0 -178.5 5t-192.5 22.5t-185 50.5t-157 86q-102 82 -140 185.5t-38 230.5zM526 571q0 -20 2 -38.5 t11 -36.5q16 -35 55 -55.5t85 -30t92 -11.5t79 -2q31 0 76 2t90 10.5t84 27t57 48.5q12 20 15.5 41.5t3.5 44.5t-3.5 44.5t-15.5 41.5q-18 31 -57 49.5t-84 26.5t-90 10t-76 2q-33 0 -79 -2t-92 -11t-85 -29.5t-55 -55.5q-8 -18 -10.5 -36.5t-2.5 -39.5z" />
<glyph unicode="A" d="M0 72v520q0 176 59.5 287.5t161 174t236.5 86t288 23.5q154 0 289 -23.5t236.5 -86t161 -174t59.5 -287.5v-520q0 -29 -21.5 -50.5t-50.5 -21.5t-50 21.5t-21 50.5v266h-1205v-266q0 -29 -21.5 -50.5t-49.5 -21.5q-29 0 -50.5 21.5t-21.5 50.5zM143 483h1205v109 q0 49 -5.5 98t-23.5 96q-31 80 -97.5 127.5t-147.5 70t-168 28.5t-161 6q-70 0 -155.5 -6t-166.5 -28.5t-147.5 -67t-99.5 -119.5q-23 -49 -28 -100.5t-5 -104.5v-109z" />
<glyph unicode="B" horiz-adv-x="1753" d="M0 70v1020q0 29 21.5 51t50.5 22h238.5t259.5 -1t260 -1h239q84 0 170 -11t154.5 -46t111.5 -99.5t43 -170.5q0 -80 -29.5 -145.5t-99.5 -108.5q70 -43 99.5 -109.5t29.5 -146.5q0 -104 -41 -168t-107.5 -98.5t-149.5 -47t-167 -12.5h-1011q-29 0 -50.5 21.5t-21.5 50.5z M143 141h926q51 0 109.5 3t108.5 19.5t83 54.5t33 106q0 27 -4 52t-21 48q-20 31 -59 48t-84 24.5t-89 9.5t-77 2h-926v-367zM143 651h926q51 0 109.5 3t108.5 19.5t83 54.5t33 106q0 27 -4 52t-21 48q-20 31 -59 47t-84 24.5t-89 9.5t-77 1h-926v-365z" />
<glyph unicode="C" horiz-adv-x="1845" d="M0 580q0 127 38 230t140 187q66 53 155 86t186 50.5t193.5 22.5t178.5 5q78 0 165 -4t173 -18.5t169 -39t150 -65.5q16 -10 35 -21.5t33 -25.5q12 -12 18 -24.5t6 -30.5q0 -29 -21.5 -50.5t-49.5 -21.5q-23 0 -45 17q-29 23 -66 43q-57 31 -129 50t-147.5 29.5 t-150.5 13.5t-140 3q-76 0 -178.5 -5t-202.5 -26.5t-186 -66t-131 -119.5q-29 -49 -39.5 -105.5t-10.5 -113.5t10.5 -113.5t39.5 -106.5q45 -76 131 -119.5t186 -65t202.5 -27t178.5 -5.5q66 0 140.5 3.5t150 13.5t147.5 29.5t129 50.5q37 20 66 43q23 16 45 16 q29 0 50 -21.5t21 -50.5q0 -18 -6 -30.5t-18 -24.5q-14 -14 -32.5 -25.5t-35.5 -21.5q-68 -41 -150.5 -65.5t-168.5 -39t-173 -18.5t-165 -4q-82 0 -178.5 5t-193.5 22.5t-186 50.5t-155 86q-102 84 -140 187.5t-38 230.5z" />
<glyph unicode="D" horiz-adv-x="1755" d="M0 72v1018q0 29 21.5 51t50.5 22h604q154 0 309.5 -18.5t281.5 -79.5t204.5 -175t78.5 -304q0 -193 -77.5 -308.5t-202.5 -177t-280.5 -81t-313.5 -19.5h-604q-29 0 -50.5 21.5t-21.5 50.5zM143 143h533q80 0 182.5 6.5t200.5 30t181 71.5t126 130q25 47 33 99.5t8 105.5 t-7 105t-32 100q-43 80 -127 125t-184.5 68.5t-201.5 28.5t-179 5h-533v-875z" />
<glyph unicode="E" horiz-adv-x="1726" d="M-143 412q0 29 21.5 50t49.5 21h166v607q0 29 22.5 51t51.5 22h1282q29 0 50.5 -22.5t21.5 -50.5q0 -29 -21.5 -50.5t-50.5 -21.5h-1210v-535h972q29 0 50.5 -21.5t21.5 -49.5q0 -29 -21.5 -51.5t-50.5 -22.5h-972v-195h1210q29 0 50.5 -21t21.5 -50t-21.5 -50.5 t-50.5 -21.5h-1282q-29 0 -51.5 21.5t-22.5 50.5v266h-166q-29 0 -50 22.5t-21 51.5z" />
<glyph unicode="F" horiz-adv-x="1726" d="M-143 412q0 29 21.5 50t49.5 21h166v607q0 29 22.5 51t51.5 22h1282q29 0 50.5 -22t21.5 -51t-21.5 -50.5t-50.5 -21.5h-1210v-535h972q29 0 50.5 -21.5t21.5 -49.5q0 -29 -21.5 -51.5t-50.5 -22.5h-972v-266q0 -29 -21.5 -50.5t-50.5 -21.5t-51.5 21.5t-22.5 50.5v266 h-166q-29 0 -50 22.5t-21 51.5z" />
<glyph unicode="G" horiz-adv-x="1996" d="M0 580q0 127 37 231t141 186q68 53 157 86t185 50.5t193.5 22.5t179.5 5q78 0 163 -4t170 -16.5t166 -36t148 -62.5q20 -10 42 -24t38 -31q12 -12 18.5 -24.5t6.5 -30.5q0 -29 -21.5 -50.5t-50.5 -21.5q-23 0 -45 17q-18 14 -35.5 26t-40.5 23q-57 29 -128 47 t-145.5 28.5t-147.5 13.5t-138 3q-76 0 -178.5 -5t-203.5 -26.5t-187 -64.5t-131 -121q-29 -51 -39.5 -107.5t-10.5 -113.5t10.5 -114.5t39.5 -107.5q45 -76 131 -119.5t187 -65t203.5 -27t178.5 -5.5q68 0 149.5 4.5t164.5 17.5t161 37.5t135 63.5v74h-831 q-29 0 -51.5 22.5t-22.5 51.5t22.5 50t51.5 21h1048q29 0 50.5 -21t21.5 -50q0 -31 -15.5 -46.5t-37 -21.5t-47 -6h-45.5v-266q0 -29 -21.5 -50.5t-50.5 -21.5q-47 0 -59.5 30.5t-12.5 67.5q-68 -31 -143.5 -51t-155.5 -31.5t-158.5 -15.5t-152.5 -4q-82 0 -179.5 6 t-193.5 23.5t-185 50.5t-157 86q-104 82 -141 186.5t-37 231.5z" />
<glyph unicode="H" horiz-adv-x="1726" d="M-143 412q0 29 21.5 50t49.5 21h166v607q0 29 22.5 51t51.5 22t50.5 -22.5t21.5 -50.5v-607h1138v607q0 29 21.5 51t50.5 22t50.5 -22.5t21.5 -50.5v-1018q0 -29 -21.5 -50.5t-50.5 -21.5t-50.5 21.5t-21.5 50.5v266h-1138v-266q0 -29 -21.5 -50.5t-50.5 -21.5 t-51.5 21.5t-22.5 50.5v266h-166q-29 0 -50 22.5t-21 51.5z" />
<glyph unicode="I" horiz-adv-x="1124" d="M0 72q0 29 21.5 50t50.5 21h315v875h-315q-29 0 -50.5 21.5t-21.5 50.5t21.5 51t50.5 22h776q29 0 50.5 -22.5t21.5 -50.5q0 -29 -21.5 -50.5t-50.5 -21.5h-316v-875h316q29 0 50.5 -21t21.5 -50t-21.5 -50.5t-50.5 -21.5h-776q-29 0 -50.5 21.5t-21.5 50.5z" />
<glyph unicode="J" d="M0 571q0 29 21.5 50.5t50.5 21.5t50 -21.5t21 -50.5q0 -51 6.5 -102t24.5 -98q31 -78 97.5 -123t148.5 -68.5t168 -30t157 -6.5q72 0 158 6.5t168 30t148.5 68.5t97.5 123q18 47 24.5 98t6.5 102v519q0 29 21.5 51t49.5 22q29 0 50.5 -22.5t21.5 -50.5v-519 q0 -176 -59.5 -287.5t-161 -174t-236.5 -86t-289 -23.5t-288.5 23.5t-236 86t-161 174t-59.5 287.5z" />
<glyph unicode="K" horiz-adv-x="1632" d="M0 72v1018q0 29 21.5 51t50.5 22t50 -22.5t21 -50.5v-560l1178 623q16 10 35 10q29 0 50 -22.5t21 -50.5q0 -43 -38 -64l-832 -440l834 -451q36 -20 36 -63q0 -29 -21.5 -50.5t-49.5 -21.5q-20 0 -35 8l-911 494q-2 0 -4 2l-263 -137v-295q0 -29 -21.5 -50.5t-49.5 -21.5 q-29 0 -50.5 21.5t-21.5 50.5z" />
<glyph unicode="L" horiz-adv-x="1632" d="M0 72v1018q0 29 21.5 51t50.5 22t50 -22.5t21 -50.5v-947h1213q29 0 50 -21t21 -50t-21.5 -50.5t-49.5 -21.5h-1284q-29 0 -50.5 21.5t-21.5 50.5z" />
<glyph unicode="M" horiz-adv-x="2099" d="M0 72v520q0 131 25.5 236.5t86 180t158 114.5t240.5 40q68 0 131.5 -10t119.5 -35.5t104 -66.5t81 -103q35 61 82 102.5t104.5 67t121 35.5t130.5 10q143 0 240.5 -40t158 -114.5t86 -180t25.5 -236.5v-520q0 -29 -21.5 -50.5t-49.5 -21.5q-29 0 -51.5 21.5t-22.5 50.5 v520q0 102 -15.5 181t-55.5 133.5t-110.5 83t-183.5 28.5t-183.5 -28.5t-110 -83t-55 -133.5t-15.5 -181v-520q0 -29 -22.5 -50.5t-51.5 -21.5t-50.5 21.5t-21.5 50.5v520q0 102 -15 181t-55 133.5t-110.5 83t-183.5 28.5t-183.5 -28.5t-111.5 -83t-56.5 -133.5t-15.5 -181 v-520q0 -29 -21.5 -50.5t-49.5 -21.5q-29 0 -50.5 21.5t-21.5 50.5z" />
<glyph unicode="N" horiz-adv-x="1632" d="M0 72v1018q0 29 21.5 51t50.5 22q25 0 45 -16l1167 -926v869q0 29 21.5 51t50.5 22t50 -22.5t21 -50.5v-1018q0 -29 -21.5 -50.5t-49.5 -21.5q-29 0 -45 14l-1168 926v-868q0 -29 -21.5 -50.5t-49.5 -21.5q-29 0 -50.5 21.5t-21.5 50.5z" />
<glyph unicode="O" horiz-adv-x="1947" d="M0 580q0 127 38 230t140 185q66 53 155 86t186 50.5t194.5 23.5t177.5 6t177 -6t195.5 -23.5t187.5 -50t155 -86.5q102 -82 140 -185t38 -230t-38 -230.5t-140 -187.5q-66 -53 -155 -86t-187.5 -50.5t-195.5 -22.5t-177 -5t-177.5 5t-194.5 22.5t-186 50.5t-155 86 q-102 84 -140 187.5t-38 230.5zM143 580q0 -53 8.5 -107.5t32.5 -101.5q43 -82 129 -128t188.5 -68.5t207 -28t182.5 -5.5q80 0 186.5 5.5t210 30t190.5 72.5t128 134q23 47 27.5 97.5t4.5 99.5t-5 98t-27 96q-41 86 -128 134t-190.5 73t-210 30t-186.5 5q-78 0 -182.5 -5 t-207 -27.5t-188.5 -69t-129 -128.5q-25 -47 -33 -100t-8 -106z" />
<glyph unicode="P" horiz-adv-x="1753" d="M0 72v1018q0 29 21.5 51t50.5 22q250 0 498.5 -1t498.5 -1q84 0 170 -11t154.5 -46t111.5 -99.5t43 -170.5t-43 -171t-111.5 -99t-154.5 -45t-170 -11h-926v-436q0 -29 -21.5 -50.5t-49.5 -21.5q-29 0 -50.5 21.5t-21.5 50.5zM143 651h926q51 0 109.5 3t108.5 19.5 t83 54.5t33 106q0 27 -4 52t-21 48q-20 31 -59 47t-84 24.5t-89 9.5t-77 1h-926v-365z" />
<glyph unicode="Q" horiz-adv-x="1945" d="M0 580q0 127 38 231t140 186q66 53 155 86t186 50.5t193.5 22.5t178.5 5t178 -5t193.5 -22.5t186.5 -50t155 -86.5q102 -84 140 -186t38 -231q0 -184 -72 -296t-188.5 -173.5t-263 -84t-295.5 -26.5v-227q0 -29 -21.5 -50.5t-50.5 -21.5t-50.5 21.5t-21.5 50.5v227 q-150 4 -296 26.5t-263 84t-188.5 173t-71.5 296.5zM143 580q0 -51 7.5 -102.5t29.5 -98.5q39 -78 116 -124t168 -70.5t186 -32t169 -9.5v330q0 29 21.5 50.5t50.5 21.5t50.5 -21.5t21.5 -50.5v-330q74 2 169 9.5t186 32t167 70.5t114 124q23 47 30 98.5t7 102.5 q0 55 -8 110t-37 105q-45 78 -131 123t-186 66.5t-202.5 26.5t-180.5 5t-180.5 -5t-202.5 -26.5t-186 -67t-132 -122.5q-29 -49 -38 -104.5t-9 -110.5z" />
<glyph unicode="R" horiz-adv-x="1753" d="M0 72v1018q0 29 21.5 51t50.5 22q250 0 498.5 -1t498.5 -1q84 0 170 -11t154.5 -46t111.5 -99.5t43 -170.5q0 -143 -83 -218t-216 -98l285 -405q14 -21 14 -41q0 -29 -22.5 -50.5t-50.5 -21.5q-35 0 -60 31l-334 477h-938v-436q0 -29 -21.5 -50.5t-49.5 -21.5 q-29 0 -50.5 21.5t-21.5 50.5zM143 651h926q51 0 109.5 3t108.5 19.5t83 54.5t33 106q0 27 -4 52t-21 48q-20 31 -59 47t-84 24.5t-89 9.5t-77 1h-926v-365z" />
<glyph unicode="S" horiz-adv-x="1753" d="M0 70q0 29 21.5 50t50.5 21h997q51 0 109.5 3t108.5 19.5t83 54.5t33 106q0 25 -4 48t-17 46q-20 33 -59 51t-84 26.5t-91 10.5t-79 2h-590q-84 0 -170 11t-154.5 45t-111.5 98.5t-43 171.5q0 102 41 166.5t106.5 100.5t148.5 48t167 12h1012q29 0 51 -21.5t22 -49.5 q0 -29 -22.5 -51.5t-50.5 -22.5h-996q-33 0 -79 -1t-91 -9.5t-84 -26.5t-59 -51q-12 -23 -17.5 -46.5t-5.5 -47.5q0 -68 33 -106t83 -54.5t109.5 -19.5t110.5 -3h590q84 0 170 -11t154.5 -46t111.5 -99.5t43 -170.5q0 -102 -41 -166t-106.5 -99.5t-148.5 -48t-167 -12.5 h-1013q-29 0 -50.5 21.5t-21.5 50.5z" />
<glyph unicode="T" horiz-adv-x="1632" d="M0 1090q0 29 21.5 51t50.5 22h1284q29 0 50 -22t21 -51t-21.5 -50.5t-49.5 -21.5h-570v-946q0 -29 -21.5 -50.5t-49.5 -21.5q-29 0 -51.5 21.5t-22.5 50.5v946h-569q-29 0 -50.5 21.5t-21.5 50.5z" />
<glyph unicode="U" d="M0 571v519q0 29 21.5 51t50.5 22t50 -22.5t21 -50.5v-519q0 -51 6.5 -102t24.5 -98q31 -78 97.5 -123t148.5 -68.5t168 -30t157 -6.5q72 0 158 6.5t168 30t148.5 68.5t97.5 123q18 47 24.5 98t6.5 102v519q0 29 21.5 51t49.5 22q29 0 50.5 -22.5t21.5 -50.5v-519 q0 -176 -59.5 -287.5t-161 -174t-236.5 -86t-289 -23.5t-288.5 23.5t-236 86t-161 174t-59.5 287.5z" />
<glyph unicode="V" horiz-adv-x="1939" d="M0 1090q0 29 21.5 51t50.5 22q33 0 57 -28l739 -947l738 947q22 28 55 28h2q29 0 50.5 -22t21.5 -51q0 -27 -15 -43l-796 -1020q-23 -27 -56 -27q-35 0 -57 27l-797 1020q-14 16 -14 43z" />
<glyph unicode="W" horiz-adv-x="2099" d="M0 571v519q0 29 21.5 51t50.5 22t50 -22.5t21 -50.5v-519q0 -100 15.5 -180t56.5 -135t111.5 -84t183.5 -29t183.5 29t110.5 84t55 135t15 180v519q0 29 22 51t50 22q29 0 51.5 -22.5t22.5 -50.5v-519q0 -100 15.5 -180t55 -135t110.5 -84t183 -29q113 0 183.5 29 t110.5 84t55.5 135t15.5 180v519q0 29 22.5 51t51.5 22t50 -22.5t21 -50.5v-519q0 -131 -25.5 -236.5t-86 -180t-157.5 -114.5t-241 -40q-68 0 -131 10t-120.5 35t-104.5 66t-82 102q-33 -61 -81 -102t-104 -66t-119.5 -35t-131.5 -10q-143 0 -240.5 40t-158 114.5t-86 180 t-25.5 236.5z" />
<glyph unicode="X" horiz-adv-x="1632" d="M0 72q0 35 27 57l571 453l-571 452q-27 23 -27 56q0 29 21.5 51t50.5 22q25 0 45 -16l598 -473l596 473q20 16 45 16q29 0 50 -22.5t21 -50.5q0 -33 -26 -56l-572 -452l572 -453q26 -22 26 -57q0 -29 -21.5 -50.5t-49.5 -21.5q-29 0 -45 14l-596 475l-598 -475 q-16 -14 -45 -14t-50.5 21.5t-21.5 50.5z" />
<glyph unicode="Y" d="M0 909v181q0 29 21.5 51t50.5 22t50 -22.5t21 -50.5v-181q0 -51 5.5 -102t25.5 -98q33 -78 99.5 -123t147.5 -67.5t167 -29t157 -6.5q72 0 158 6.5t167 29t147.5 67.5t99.5 123q20 47 25.5 98t5.5 102v181q0 29 21.5 51t49.5 22q29 0 50.5 -22.5t21.5 -50.5v-181 q0 -162 -50 -269.5t-140.5 -172t-214 -93t-269.5 -34.5v-268q0 -29 -21.5 -50.5t-50.5 -21.5t-50 21.5t-21 50.5v268q-145 6 -269 34.5t-214.5 93t-140.5 172.5t-50 269z" />
<glyph unicode="Z" horiz-adv-x="1632" d="M0 72q0 35 27 57l1122 889h-1077q-29 0 -50.5 21.5t-21.5 50.5t21.5 51t50.5 22h1284q29 0 50 -22.5t21 -50.5q0 -33 -26 -56l-1122 -891h1077q29 0 50 -21t21 -50t-21.5 -50.5t-49.5 -21.5h-1284q-29 0 -50.5 21.5t-21.5 50.5z" />
<glyph unicode="[" horiz-adv-x="686" d="M0 -94v1345q0 29 21.5 51.5t50.5 22.5h338q29 0 50 -22.5t21 -51.5t-21.5 -50t-49.5 -21h-267v-1203h267q29 0 50 -21t21 -50t-21.5 -51.5t-49.5 -22.5h-338q-29 0 -50.5 22.5t-21.5 51.5z" />
<glyph unicode="\" horiz-adv-x="794" d="M0 1090q0 29 21.5 51t50.5 22q45 0 65 -45l447 -1018q6 -12 6 -28q0 -29 -21.5 -50.5t-50.5 -21.5q-47 0 -67 43l-445 1018q-6 12 -6 29z" />
<glyph unicode="]" horiz-adv-x="686" d="M0 -94q0 29 21.5 50t50.5 21h266v1203h-266q-29 0 -50.5 21.5t-21.5 49.5q0 29 21.5 51.5t50.5 22.5h338q29 0 50 -22.5t21 -51.5v-1345q0 -29 -21.5 -51.5t-49.5 -22.5h-338q-29 0 -50.5 22.5t-21.5 51.5z" />
<glyph unicode="^" horiz-adv-x="827" d="M0 586q0 8 4 20l240 574q10 23 27.5 37t39.5 14q23 0 41.5 -14.5t28.5 -36.5l240 -574q2 -6 2 -20q0 -29 -21.5 -50.5t-50.5 -21.5q-23 0 -40 14.5t-28 36.5l-172 410l-170 -410q-10 -23 -28.5 -37t-40.5 -14q-29 0 -50.5 21.5t-21.5 50.5z" />
<glyph unicode="_" horiz-adv-x="1124" d="M-72 74q0 29 21.5 50t50.5 21h1124q29 0 50.5 -21t21.5 -50t-21.5 -51.5t-50.5 -22.5h-1124q-29 0 -50.5 22.5t-21.5 51.5z" />
<glyph unicode="`" horiz-adv-x="1351" d="M532 1499q0 29 23 51.5t51 22.5q20 0 36.5 -12.5t27.5 -30.5l143 -295q6 -15 6 -31q0 -29 -21.5 -50t-49.5 -21q-45 0 -66 41l-141 294q-8 20 -9 31z" />
<glyph unicode="a" horiz-adv-x="1890" d="M82 317q0 104 42 167t109.5 96.5t151.5 45t166 11.5q84 0 177 -12.5t167 -59.5q0 18 3 39t10 36t22.5 25.5t40.5 10.5q29 0 50 -21.5t21 -50.5q0 -23 -2 -46t-2 -46q0 -45 6.5 -108.5t26 -122t56 -98.5t98.5 -40h665q14 0 36 1t43.5 5.5t41 12.5t29.5 22q14 20 32.5 28.5 t30.5 8.5q29 0 50.5 -21t21.5 -50q0 -18 -8 -35q-4 -10 -13.5 -20.5t-17.5 -16.5q-49 -45 -114.5 -61.5t-131.5 -16.5h-665q-166 0 -252 145q-33 -49 -83 -77.5t-107.5 -44t-118 -19.5t-113.5 -4q-82 0 -166 10t-151.5 44t-109.5 96.5t-42 166.5zM225 317q0 -20 2 -38.5 t11 -36.5q16 -35 55 -55.5t86 -30t93 -11.5t79 -2q31 0 76 2t90 10.5t84 27t57 48.5q12 20 14 41.5t2 44.5t-2 44.5t-14 41.5q-18 31 -57 49.5t-84 26.5t-90 10.5t-76 2.5q-33 0 -79 -2.5t-93 -11.5t-86 -29.5t-55 -55.5q-8 -18 -10.5 -36.5t-2.5 -39.5z" />
<glyph unicode="b" horiz-adv-x="1691" d="M41 635q0 170 25 342q4 31 8 64.5t12 62.5q8 27 25.5 43t46.5 16t50 -22.5t21 -50.5v-13q-20 -111 -31.5 -222.5t-11.5 -223.5v-46.5t2 -45.5q37 33 83 52t97.5 29.5t102.5 13.5t98 3q84 0 167 -11.5t150.5 -45t109.5 -96t42 -167.5q0 -47 -10 -91t-37 -83h701 q14 0 35.5 1t43 5.5t41 12.5t29.5 22q14 20 32.5 28.5t31.5 8.5q29 0 50 -21t21 -50q0 -18 -8 -35q-4 -10 -13 -20.5t-18 -16.5q-49 -45 -114.5 -61.5t-130.5 -16.5h-1149q-100 0 -192.5 19.5t-170.5 84.5q-4 4 -9 7.5t-9 9.5q-39 49 -62.5 112.5t-37 133t-17.5 139 t-4 129.5zM246 317q0 -18 1 -37.5t9 -37.5q16 -35 52 -55.5t79 -30t87 -11.5t75 -2h6h16q33 0 80 2t94.5 12.5t86 32t53.5 58.5q8 16 8 33.5v35.5q0 23 -2 44.5t-14 41.5q-18 31 -57.5 49.5t-84.5 26.5t-90 10.5t-76 2.5t-75.5 -2.5t-90 -10.5t-84 -26.5t-57.5 -49.5 q-12 -20 -14 -41.5t-2 -44.5z" />
<glyph unicode="c" horiz-adv-x="1599" d="M82 317q0 104 42 167t109.5 96.5t151.5 45t166 11.5q61 0 138 -3t144.5 -24.5t113.5 -67.5t46 -132q0 -29 -22.5 -50.5t-50.5 -21.5q-29 0 -50.5 21.5t-21.5 50.5q0 37 -38 54q-38 18 -88 24q-43 6 -86 5h-14q-50 -1 -71 -1q-31 0 -77 -2.5t-91 -11.5t-84 -27.5 t-57 -51.5q-10 -18 -13.5 -38.5t-3.5 -43.5t3 -43t14 -38q18 -33 57 -51.5t84 -28t91 -11.5t77 -2h1048q14 0 36 1t43.5 5.5t41 12.5t29.5 22q14 20 32.5 28.5t30.5 8.5q29 0 50.5 -21t21.5 -50q0 -18 -8 -35q-4 -10 -13.5 -20.5t-17.5 -16.5q-49 -45 -114.5 -61.5 t-131.5 -16.5h-1048q-82 0 -166 10t-151.5 44t-109.5 96.5t-42 166.5z" />
<glyph unicode="d" horiz-adv-x="1908" d="M41 317q0 104 42 167t109.5 96.5t151.5 45t166 11.5t171 -11.5t161 -52.5q0 16 -1 30.5t-1 31.5q0 86 7 171t19 171q4 31 7.5 64.5t13.5 62.5q8 27 24.5 43t44.5 16q29 0 51.5 -22.5t22.5 -50.5q0 -4 -1 -6.5t-1 -6.5q-20 -111 -31.5 -222.5t-11.5 -223.5q0 -55 5 -139 t27.5 -161t67.5 -132.5t125 -55.5h699q14 0 35.5 1t43 5.5t41 12.5t29.5 22q14 20 32.5 28.5t31.5 8.5q29 0 50 -21t21 -50q0 -18 -8 -35q-4 -10 -13 -20.5t-18 -16.5q-49 -45 -114.5 -61.5t-130.5 -16.5h-699q-88 0 -156.5 40t-115.5 116q-31 -51 -81 -83t-108.5 -47.5 t-121 -20.5t-117.5 -5q-82 0 -166 10t-151.5 44t-109.5 96.5t-42 166.5zM184 317q0 -20 2 -38.5t11 -36.5q16 -35 55 -55.5t86 -30t93 -11.5t79 -2q31 0 76 2t90 10.5t84 27t57 48.5q12 20 14.5 41.5t2.5 44.5t-2.5 44.5t-14.5 41.5q-18 31 -57 49.5t-84 26.5t-90 10.5 t-76 2.5q-33 0 -79 -2.5t-93 -11.5t-86 -29.5t-55 -55.5q-8 -18 -10.5 -36.5t-2.5 -39.5z" />
<glyph unicode="e" horiz-adv-x="1579" d="M82 317q0 104 42 167t109.5 96.5t151.5 45t166 11.5q61 0 138 -3t144.5 -24.5t113.5 -67.5t46 -132q0 -27 -17.5 -46.5t-43 -34t-53 -23.5t-48.5 -15q-111 -39 -223 -71t-227 -62q41 -8 84 -11.5t86 -3.5h1028q14 0 35.5 1t43 5.5t41 12.5t30.5 22q14 20 32.5 28.5 t30.5 8.5q29 0 50.5 -21t21.5 -50q0 -18 -9 -35q-4 -10 -13 -20.5t-17 -16.5q-49 -45 -114.5 -61.5t-131.5 -16.5h-1028q-82 0 -166 10t-151.5 44t-109.5 96.5t-42 166.5zM225 317q0 -27 6 -51q92 25 183.5 49.5t183.5 53.5q59 16 119 34t119 41q-16 20 -54.5 29.5t-82.5 14 t-85 4.5h-63q-31 0 -77 -2.5t-91 -11.5t-84 -26.5t-57 -50.5q-10 -20 -13.5 -40.5t-3.5 -43.5z" />
<glyph unicode="f" horiz-adv-x="1548" d="M143 111v86q0 160 8.5 320.5t20.5 320.5l8 90l8 90q2 18 3.5 39.5t5.5 40.5q8 29 24.5 47t46.5 18q29 0 50.5 -22.5t21.5 -50.5v-9q0 -117 -8 -233.5t-17.5 -233t-17.5 -233.5t-8 -234q0 -49 2 -154.5t11 -233.5t28.5 -264t54.5 -247.5t89 -183.5t132 -72q55 0 101.5 34 t79 85t51 108.5t18.5 106.5q0 76 -23.5 156t-60.5 156.5t-82 148.5t-88 131q-20 29 -41.5 53.5t-42.5 53.5q-16 23 -16 47q0 29 21.5 50t49.5 21h975q14 0 36 1t43.5 5.5t41 12.5t29.5 22q14 20 32.5 28.5t30.5 8.5q29 0 50.5 -21t21.5 -50q0 -18 -8 -35q-4 -10 -13.5 -20.5 t-17.5 -16.5q-49 -45 -114.5 -61.5t-131.5 -16.5h-825q51 -70 100 -150.5t88 -168t63.5 -177.5t24.5 -178q0 -80 -28.5 -165t-79.5 -154.5t-124 -114.5t-161 -45q-115 0 -193.5 73.5t-130 189.5t-79 260.5t-40.5 284.5t-16.5 262t-3.5 194z" />
<glyph unicode="g" horiz-adv-x="1789" d="M61 317q0 104 42 167t110 96.5t152 45t165 11.5q43 0 91.5 -3t94.5 -11.5t90 -23.5t81 -42q0 10 -1 23.5t-1 23.5q0 31 20.5 51.5t50.5 20.5q31 0 49.5 -19.5t22.5 -48.5q4 -20 3 -40.5t1 -41.5q2 -47 3 -94t3 -94v-44.5t2 -41.5q4 -23 12.5 -45.5t22.5 -38.5 q12 -14 29.5 -19.5t34.5 -5.5h651q14 0 35.5 1t43 5.5t41 12.5t29.5 22q14 20 33 28.5t31 8.5q29 0 50.5 -21t21.5 -50q0 -18 -9 -35q-4 -10 -13 -20.5t-17 -16.5q-49 -45 -115 -61.5t-131 -16.5h-651q-25 0 -50.5 4t-48.5 14q-2 -72 -6 -186.5t-19.5 -245.5t-44 -262 t-79.5 -237.5t-127 -173t-184 -66.5q-88 0 -161 45t-125 114.5t-81 154.5t-29 165q0 84 48.5 165t119 149.5t153.5 125t150 91.5q14 8 35 8q29 0 50.5 -21.5t21.5 -50.5q0 -23 -10.5 -37t-26.5 -26q-29 -18 -58.5 -36t-58.5 -36q-35 -25 -83 -60.5t-91 -80.5t-73.5 -93.5 t-30.5 -97.5t18.5 -106.5t51 -108.5t78.5 -85t102 -34q76 0 129 69t87.5 174.5t54 234.5t30 250.5t13.5 221t3 144.5q-37 -29 -82 -45t-93 -25.5t-97.5 -12.5t-94.5 -3q-82 0 -165.5 10t-151.5 44t-110 96.5t-42 166.5zM205 317q0 -20 2 -38.5t10 -36.5q16 -35 55 -55.5 t86.5 -30t93.5 -11.5t78 -2q31 0 76 2t90 10.5t84 27t58 48.5q12 20 14 41.5t2 44.5t-2 44.5t-14 41.5q-18 31 -57.5 49.5t-84.5 26.5t-90 10.5t-76 2.5q-33 0 -78.5 -2.5t-93 -11.5t-86.5 -29.5t-55 -55.5q-8 -18 -10 -36.5t-2 -39.5z" />
<glyph unicode="h" horiz-adv-x="1916" d="M184 72v1018q0 29 21.5 51t50.5 22t50.5 -22.5t21.5 -50.5v-508q66 35 146.5 45t154.5 10q86 0 165.5 -12.5t142 -47t99.5 -97t37 -163.5v-18q0 -25 4 -52.5t14.5 -51t31 -38t51.5 -14.5h743q14 0 35.5 1t43 5.5t41 12.5t29.5 22q14 20 33 28.5t31 8.5q29 0 50.5 -21 t21.5 -50q0 -18 -9 -35q-4 -10 -13 -20.5t-17 -16.5q-49 -45 -115 -61.5t-131 -16.5h-743q-63 0 -110.5 24.5t-77.5 66.5t-44 95.5t-14 110.5q0 6 1 14t1 15q0 20 -3 40.5t-14 39.5q-16 31 -52 48t-77 25t-83 10.5t-72 2.5q-31 0 -74 -2.5t-85 -10.5t-77 -26.5t-51 -51.5 q-10 -20 -12 -40.5t-2 -43.5v-245q0 -29 -21.5 -50.5t-50.5 -21.5t-50.5 21.5t-21.5 50.5z" />
<glyph unicode="i" horiz-adv-x="1380" d="M-61 72q0 29 21.5 50t49.5 21q80 0 129 41t75 102.5t35 133.5t9 133q0 35 17.5 59.5t56.5 24.5t55 -25.5t16 -58.5q0 -78 17.5 -151.5t55.5 -131t99.5 -92.5t149.5 -35h655q14 0 36 1t43.5 5.5t41 12.5t29.5 22q14 20 32.5 28.5t30.5 8.5q29 0 50.5 -21t21.5 -50 q0 -18 -8 -35q-4 -10 -13.5 -20.5t-17.5 -16.5q-49 -45 -114.5 -61.5t-131.5 -16.5h-655q-127 0 -225.5 53t-159.5 164q-47 -104 -130 -160.5t-200 -56.5q-29 0 -50 21.5t-21 50.5zM244 856q0 35 25.5 60.5t60.5 25.5t61.5 -25.5t26.5 -60.5t-26.5 -60.5t-61.5 -25.5 t-60.5 25.5t-25.5 60.5z" />
<glyph unicode="j" horiz-adv-x="1120" d="M-549 -676q0 84 48 165t119 149.5t154 125t150 91.5q14 8 35 8q29 0 50.5 -21.5t21.5 -50.5q0 -41 -37 -63q-29 -16 -55.5 -31.5t-55.5 -34.5q-37 -25 -86 -61.5t-93 -81.5t-76 -95.5t-32 -99.5t18.5 -106.5t51.5 -108.5t80 -85t102 -34q78 0 132.5 72t89 184.5t54 248.5 t29 263t11.5 230.5t2 150.5q0 117 -7 231.5t-7 231.5q0 31 20 51.5t51 20.5q33 0 51.5 -19.5t22.5 -48.5q4 -18 3 -38.5t1 -39.5q4 -51 4 -100t2 -100v-41t2 -41q2 -18 10.5 -43t22.5 -39q25 -25 66 -25l714 4q14 0 36 1t43.5 5.5t41 12.5t29.5 22q14 20 32.5 28.5t30.5 8.5 q29 0 50.5 -21t21.5 -50q0 -18 -8 -35q-4 -10 -13.5 -20.5t-17.5 -16.5q-49 -45 -114.5 -61.5t-131.5 -16.5h-714q-55 0 -99 20q-2 -72 -6 -187.5t-19.5 -245.5t-44 -262t-80 -239.5t-127 -174t-184.5 -66.5q-88 0 -160.5 45t-125 114.5t-81 154.5t-28.5 165zM125 854 q0 35 25.5 60.5t60.5 25.5t60.5 -25.5t25.5 -60.5t-25.5 -60.5t-60.5 -25.5t-60.5 25.5t-25.5 60.5z" />
<glyph unicode="k" horiz-adv-x="1777" d="M164 72v1018q0 29 21.5 51t50.5 22t51 -22.5t22 -50.5v-512q76 39 169 49t177 10q49 0 121 -8t138.5 -31t114.5 -63.5t48 -108.5q0 -63 -32.5 -104t-82 -65t-107.5 -34t-107 -12q80 -41 173 -54.5t181 -13.5h676q14 0 35.5 1t43 5.5t41 12.5t29.5 22q14 20 32.5 28.5 t31.5 8.5q29 0 50 -21t21 -50q0 -18 -8 -35q-4 -10 -13 -20.5t-18 -16.5q-49 -45 -114.5 -61.5t-130.5 -16.5h-676q-70 0 -145.5 7t-149.5 26.5t-140.5 54.5t-115.5 88q-16 16 -33.5 42t-23.5 48q-2 8 -2 23q0 29 21.5 50t49.5 21q31 0 62.5 -3t64.5 -3q16 0 56 2t81 9.5 t73 21.5t32 39q-10 20 -48 32.5t-82 19.5t-86 10.5t-61 3.5q-31 0 -79 -2.5t-96 -9.5t-90 -23.5t-62 -46.5q-12 -18 -15.5 -38t-3.5 -42v-258q0 -29 -22.5 -50.5t-50.5 -21.5q-29 0 -50.5 21.5t-21.5 50.5z" />
<glyph unicode="l" horiz-adv-x="1202" d="M41 635q0 174 25 342q4 31 8 64.5t12 62.5q8 27 25.5 43t46.5 16t50 -22.5t21 -50.5v-13q-20 -111 -31.5 -222.5t-11.5 -223.5q0 -55 5.5 -139t28 -161t67.5 -132.5t125 -55.5h788q14 0 35.5 1t43 5.5t41 12.5t30.5 22q14 20 32.5 28.5t30.5 8.5q29 0 50.5 -21t21.5 -50 q0 -18 -8 -35q-4 -10 -13.5 -20.5t-17.5 -16.5q-49 -45 -114.5 -61.5t-131.5 -16.5h-788q-121 0 -194 64.5t-112.5 161t-52 207t-12.5 202.5z" />
<glyph unicode="m" horiz-adv-x="2428" d="M184 72v493q0 29 21.5 50.5t50.5 21.5q25 0 44 -14.5t26 -36.5q59 33 129.5 42t136.5 9q43 0 89 -4t90 -15.5t85 -32t72 -53.5q31 35 70.5 55.5t84.5 31t91.5 14.5t89.5 4q86 0 159.5 -14.5t128 -50t86 -97t33.5 -158.5q0 -4 -1 -9t-1 -9q0 -20 3 -47t11.5 -51.5 t25.5 -41t44 -16.5h676q14 0 35.5 1t43 5.5t41 12.5t29.5 22q14 20 33 28.5t31 8.5q29 0 50.5 -21t21.5 -50q0 -18 -9 -35q-4 -10 -13 -20.5t-17 -16.5q-49 -45 -115 -61.5t-131 -16.5h-676q-61 0 -105 26.5t-71 68.5t-39 95.5t-12 106.5v29q0 23 -1 43t-12 39 q-14 31 -44.5 47t-66.5 24t-73 10.5t-65 2.5q-25 0 -56.5 -1.5t-64.5 -7.5t-61.5 -17t-47.5 -30q-23 -23 -29 -55.5t-6 -63.5v-245q0 -29 -21.5 -50.5t-49.5 -21.5q-29 0 -50.5 21.5t-21.5 50.5v245q0 23 -1 44.5t-11 41.5q-14 31 -44 49.5t-67 26.5t-74.5 10.5t-66.5 2.5 q-25 0 -56.5 -1.5t-63.5 -7.5t-60.5 -17t-46.5 -30q-23 -23 -30 -55.5t-7 -63.5v-245q0 -29 -21.5 -50.5t-50.5 -21.5t-50.5 21.5t-21.5 50.5z" />
<glyph unicode="n" horiz-adv-x="1771" d="M184 72v493q0 29 21.5 50.5t50.5 21.5q27 0 46.5 -16.5t25.5 -40.5q66 35 146.5 46t154.5 11q84 0 162.5 -12.5t142 -46t101.5 -95t38 -159.5v-25q0 -27 4 -54.5t14.5 -50t30 -37t52.5 -14.5h598q14 0 35.5 1t43 5.5t41 12.5t29.5 22q14 20 32.5 28.5t31.5 8.5 q29 0 50 -21t21 -50q0 -18 -8 -35q-4 -10 -13.5 -20.5t-17.5 -16.5q-49 -45 -114.5 -61.5t-130.5 -16.5h-598q-63 0 -110.5 24.5t-77.5 66.5t-44 95.5t-14 110.5q0 6 1 14t1 15q0 20 -3 40.5t-14 39.5q-16 31 -52 48t-77 25t-83 10.5t-72 2.5q-31 0 -74 -2.5t-85 -10.5 t-77 -26.5t-51 -51.5q-10 -20 -12 -40.5t-2 -43.5v-245q0 -29 -21.5 -50.5t-50.5 -21.5t-50.5 21.5t-21.5 50.5z" />
<glyph unicode="o" horiz-adv-x="1767" d="M82 317q0 104 42 167t109.5 96.5t151.5 45t166 11.5q80 0 165 -10.5t156 -46.5q47 35 104.5 46t115.5 11h829q29 0 50.5 -21.5t21.5 -50.5t-21.5 -51t-50.5 -22h-829q-29 0 -55.5 -3.5t-53.5 -13.5q20 -35 28.5 -76t8.5 -82q0 -104 -42 -166.5t-109.5 -96.5t-150.5 -44 t-167 -10q-82 0 -166 10t-151.5 44t-109.5 96.5t-42 166.5zM225 317q0 -20 2 -38.5t11 -36.5q16 -35 55 -55.5t86 -30t93 -11.5t79 -2t79 2t92 11.5t85 30t55 55.5q8 18 10 36.5t2 38.5q0 37 -6 60.5t-32 52.5q-20 20 -57.5 32.5t-79.5 18.5t-81.5 8.5t-66.5 2.5 q-33 0 -79 -2.5t-93 -11.5t-86 -29.5t-55 -55.5q-8 -18 -10.5 -36.5t-2.5 -39.5z" />
<glyph unicode="p" horiz-adv-x="1822" d="M184 580q0 29 21.5 50t50.5 21q35 0 53.5 -22.5t18.5 -55.5q72 41 161 52.5t170 11.5q84 0 167 -11.5t150.5 -45t109.5 -96t42 -167.5q0 -47 -10 -91t-37 -83h742q14 0 35.5 1t43 5.5t41 12.5t29.5 22q14 20 32.5 28.5t31.5 8.5q29 0 50 -21t21 -50q0 -18 -8 -35 q-4 -10 -13 -20.5t-18 -16.5q-49 -45 -114.5 -61.5t-130.5 -16.5h-1176q-78 0 -164 12.5t-155 50.5v-1155q0 -29 -21.5 -50t-50.5 -21t-50.5 21.5t-21.5 49.5v1672zM336 317q0 -20 2 -38.5t10 -36.5q16 -35 55 -55.5t85.5 -30t92.5 -11.5t78 -2q31 0 76 2t90 10.5t84 27 t58 48.5q12 20 15 41.5t3 44.5t-3 44.5t-15 41.5q-18 31 -57.5 49.5t-84.5 26.5t-90 10.5t-76 2.5q-33 0 -78.5 -2.5t-92 -11.5t-85 -29.5t-55.5 -55.5q-8 -18 -10 -36.5t-2 -39.5z" />
<glyph unicode="q" horiz-adv-x="2045" d="M41 317q0 104 42 167t109.5 96.5t151.5 45t166 11.5q45 0 93 -3t96.5 -11.5t92.5 -24.5t80 -45q0 20 2.5 41.5t9.5 40t22.5 30t41.5 11.5q31 0 51.5 -20.5t20.5 -51.5q0 -117 -7 -231.5t-7 -231.5q0 -47 2 -150.5t11 -230.5t28.5 -263t54.5 -248.5t89 -184.5t132 -72 q55 0 102.5 34t80 85t51 108.5t18.5 106.5q0 76 -23.5 156t-60.5 156.5t-82 148.5t-88 131q-20 29 -42 53.5t-42 53.5q-8 10 -13 21t-5 26q0 29 22.5 50t50.5 21h754q14 0 35.5 1t43 5.5t41 12.5t29.5 22q14 20 33 28.5t31 8.5q29 0 50.5 -21t21.5 -50q0 -18 -9 -35 q-4 -10 -13 -20.5t-17 -16.5q-49 -45 -115 -61.5t-131 -16.5h-606q51 -70 100 -150.5t89 -168t64.5 -177.5t24.5 -178q0 -80 -28.5 -165t-81 -154.5t-125 -114.5t-160.5 -45q-111 0 -188.5 70.5t-129 183.5t-80 251t-42 275t-17.5 256t-4 193q-74 -49 -170 -62.5t-182 -13.5 q-82 0 -166 10t-151.5 44t-109.5 96.5t-42 166.5zM184 317q0 -20 2 -38.5t11 -36.5q16 -35 55 -55.5t86 -30t93 -11.5t79 -2q31 0 76 2t90 10.5t84 27t57 48.5q12 20 14.5 41.5t2.5 44.5t-2.5 44.5t-14.5 41.5q-18 31 -57 49.5t-84 26.5t-90 10.5t-76 2.5q-33 0 -79 -2.5 t-93 -11.5t-86 -29.5t-55 -55.5q-8 -18 -10.5 -36.5t-2.5 -39.5z" />
<glyph unicode="r" horiz-adv-x="1792" d="M-61 72q0 29 21.5 50t49.5 21q82 0 131 43t75 106.5t34 137.5t8 135q0 29 21.5 50.5t50.5 21.5h542q29 0 51.5 -21.5t22.5 -50.5q0 -14 -2 -27.5t-2 -27.5q0 -80 18.5 -147.5t58.5 -116.5t101.5 -76t147.5 -27h524q14 0 35.5 1t43 5.5t41 12.5t30.5 22q14 20 32.5 28.5 t30.5 8.5q29 0 50.5 -21t21.5 -50q0 -18 -9 -35q-4 -10 -13 -20.5t-17 -16.5q-49 -45 -114.5 -61.5t-131.5 -16.5h-524q-113 0 -200 36t-146.5 100.5t-90 154.5t-32.5 201h-398q-6 -90 -27.5 -178.5t-67.5 -158t-118.5 -112.5t-177.5 -43q-29 0 -50 21.5t-21 50.5z" />
<glyph unicode="s" horiz-adv-x="1722" d="M-61 72q0 29 21.5 50t49.5 21q12 0 35 2t46.5 7.5t44 14.5t28.5 21l346 527q20 33 61 33q29 0 50.5 -21.5t21.5 -50.5q0 -23 -11 -39t-22 -33q49 -20 108.5 -54t110 -77t84 -96t33.5 -115q0 -31 -6 -60.5t-22 -58.5h804q14 0 36 1t43.5 5.5t41 12.5t29.5 22 q14 20 32.5 28.5t30.5 8.5q29 0 50.5 -21t21.5 -50q0 -18 -8 -35q-4 -10 -13.5 -20.5t-17.5 -16.5q-49 -45 -114.5 -61.5t-131.5 -16.5h-1048q-31 0 -51.5 20.5t-20.5 51.5q0 29 18.5 48t47.5 23q49 8 91 34t42 85q0 35 -33 69t-77 63.5t-90 53t-73 33.5l-243 -370 q-20 -33 -53 -54.5t-70 -34t-76 -17.5t-76 -5q-29 0 -50 21.5t-21 50.5z" />
<glyph unicode="t" horiz-adv-x="1175" d="M-408 895q0 29 21.5 50.5t50.5 21.5h406q4 35 8 68.5t12 68.5q6 27 24.5 43t47.5 16t50 -22.5t21 -50.5q0 -23 -7 -61t-11 -62h1376q29 0 50.5 -21.5t21.5 -50.5t-21.5 -51.5t-50.5 -22.5h-1392q-4 -47 -6.5 -95t-2.5 -95q0 -55 5.5 -139t28 -161t67.5 -132.5t125 -55.5 h760q14 0 35.5 1t43 5.5t41 12.5t29.5 22q14 20 32.5 28.5t31.5 8.5q29 0 50 -21.5t21 -49.5q0 -18 -8 -35q-4 -10 -13 -20.5t-18 -16.5q-49 -45 -114.5 -61.5t-130.5 -16.5h-760q-121 0 -193.5 64.5t-112.5 161t-52.5 207t-12.5 202.5q0 47 2 93t6 93h-389 q-29 0 -50.5 22.5t-21.5 51.5z" />
<glyph unicode="u" horiz-adv-x="1845" d="M82 317v248q0 29 21.5 50.5t50.5 21.5t50 -21.5t21 -50.5v-248q0 -23 2 -42t13 -39q16 -33 51 -51.5t77 -28t85 -11.5t73 -2q31 0 74 2t85 11.5t77 28t51 51.5q10 20 12 39.5t2 41.5v187q0 6 1 10t1 8q2 10 1 22.5t1 22.5q4 29 22.5 48.5t49.5 19.5h4q29 0 43.5 -11.5 t19.5 -30t5 -40v-41.5q0 -45 5 -108.5t23.5 -122t55.5 -98.5t100 -40h686q14 0 36 1t43.5 5.5t41 12.5t29.5 22q14 20 32.5 28.5t30.5 8.5q29 0 50.5 -21t21.5 -50q0 -18 -8 -35q-4 -10 -13.5 -20.5t-17.5 -16.5q-49 -45 -114.5 -61.5t-131.5 -16.5h-686q-158 0 -241 131 q-31 -43 -78 -68.5t-100.5 -40t-109 -18.5t-104.5 -4q-84 0 -163.5 12.5t-142 46t-100.5 96t-38 162.5z" />
<glyph unicode="v" horiz-adv-x="1622" d="M20 565q0 29 21.5 50.5t50.5 21.5q47 0 68 -45q16 -35 30.5 -66.5t30.5 -64.5q10 -20 40 -73.5t65.5 -107t73.5 -95.5t65 -42q29 0 68.5 42t78.5 96.5t72 107.5t45 74q18 33 36.5 65.5t35.5 67.5q20 41 63 41q29 0 51.5 -21.5t22.5 -50.5q0 -18 -23.5 -65t-53.5 -100.5 t-59.5 -99.5t-41.5 -64q23 -43 54.5 -68t80.5 -25h727q14 0 35.5 1t43 5.5t41 12.5t30.5 22q14 20 32.5 28.5t30.5 8.5q29 0 50.5 -21t21.5 -50q0 -18 -9 -35q-4 -10 -13 -20.5t-17 -16.5q-49 -45 -114.5 -61.5t-131.5 -16.5h-727q-72 0 -131 28.5t-100 86.5 q-37 -41 -89.5 -78t-109.5 -37q-47 0 -93 29.5t-90 76t-84 105.5t-73 118.5t-58.5 115t-39.5 92.5q-6 12 -7 28z" />
<glyph unicode="w" horiz-adv-x="2084" d="M41 565q0 29 21.5 50.5t50.5 21.5q53 0 69 -49q12 -33 37 -99.5t55.5 -136t63.5 -129t61 -78.5q20 12 43 43t46.5 73t47 91t43 94.5t36 83t24.5 60.5q18 47 70 47q25 0 42 -13.5t25 -35.5q12 -33 37 -99.5t55.5 -136t63.5 -129t61 -78.5q20 12 43 43t46.5 73t47 91 t43 94.5t35 83t25.5 60.5q20 47 67 47q29 0 50.5 -21.5t21.5 -50.5q0 -16 -16.5 -59t-38 -91t-42 -91t-28.5 -60q2 -4 3 -5t3 -5q23 -49 54.5 -80t91.5 -31h686q14 0 35.5 1t43 5.5t41 12.5t29.5 22q14 20 33 28.5t31 8.5q29 0 50.5 -21t21.5 -50q0 -18 -9 -35 q-4 -10 -13 -20.5t-17 -16.5q-49 -45 -115 -61.5t-131 -16.5h-686q-150 0 -236 121q-29 -41 -71.5 -81t-98.5 -40q-53 0 -99 42t-83 101.5t-64.5 122t-44.5 101.5q-18 -39 -47.5 -101.5t-68.5 -122t-86 -101.5t-101 -42q-45 0 -85 31.5t-72.5 78t-57 95.5t-41.5 84 q-6 14 -22.5 54t-34.5 84t-31.5 84t-13.5 54z" />
<glyph unicode="x" horiz-adv-x="1611" d="M41 72q0 41 33 61l284 180q-72 47 -144.5 94.5t-141.5 98.5q-31 23 -31 59q0 29 21.5 50.5t50.5 21.5q23 0 41 -12q86 -55 170 -112.5t170 -113.5l356 226q18 12 39 12q29 0 50.5 -21.5t21.5 -50.5q0 -41 -33 -61l-301 -193q25 -16 62.5 -40.5t77.5 -49t77 -46t63 -32.5 h705q14 0 35.5 1t43 5.5t41 12.5t29.5 22q14 20 32.5 28.5t31.5 8.5q29 0 50 -21t21 -50q0 -18 -8 -35q-4 -10 -13 -20.5t-17 -16.5q-49 -45 -115 -61.5t-131 -16.5h-717q-14 0 -47 14.5t-74 38t-85 50t-84 52t-70.5 45t-42.5 27.5l-340 -217q-14 -10 -39 -10 q-29 0 -50.5 21.5t-21.5 50.5z" />
<glyph unicode="y" horiz-adv-x="1775" d="M82 317v248q0 29 21.5 50.5t50.5 21.5t50 -21.5t21 -50.5v-248q0 -23 3 -43t14 -41q16 -33 52 -50t77 -26.5t83 -11.5t72 -2q31 0 73 2t84 11.5t78 27t52 49.5q10 20 12 41t2 43v197q0 23 -2 45.5t-2 44.5q0 31 20.5 51.5t51.5 20.5t49.5 -19.5t22.5 -48.5q4 -23 4 -47 t2 -47q4 -59 4 -115.5t2 -115.5q6 -39 20 -70q12 -27 32 -48.5t50 -21.5h695q14 0 35.5 1t43 5.5t41 12.5t29.5 22q14 20 32.5 28.5t31.5 8.5q29 0 50 -21t21 -50q0 -18 -8 -35q-4 -10 -13 -20.5t-18 -16.5q-49 -45 -114.5 -61.5t-130.5 -16.5h-695q-57 0 -100 20 q-2 -72 -6 -187.5t-19.5 -245.5t-44 -262t-80 -238.5t-127 -173t-184.5 -66.5q-88 0 -160.5 45t-125 114.5t-81 154.5t-28.5 165q0 84 48 165t118.5 149.5t153.5 125t151 91.5q14 8 35 8q29 0 50 -21.5t21 -50.5q0 -41 -36 -63q-29 -16 -55.5 -31.5t-55.5 -34.5 q-37 -25 -86 -61.5t-93 -81.5t-76 -95.5t-32 -99.5t18.5 -106.5t51.5 -108.5t80 -85t102 -34q76 0 128 67t87 170t54.5 229t29.5 245t13.5 216t3.5 142q-68 -39 -151 -50t-159 -11q-84 0 -163.5 12.5t-142 46t-100.5 96t-38 162.5z" />
<glyph unicode="z" horiz-adv-x="1574" d="M41 317q0 98 46 161t117.5 97.5t158 48t165.5 13.5q47 0 112 -9.5t122 -33t97 -64.5t40 -104q0 -37 -14.5 -67.5t-37 -56.5t-51 -46t-57.5 -37q45 -18 82 -47t88 -29h666q14 0 35.5 1t43 5.5t41 12.5t29.5 22q14 20 33 28.5t31 8.5q29 0 50.5 -21t21.5 -50q0 -18 -9 -35 q-4 -10 -13 -20.5t-17 -16.5q-49 -45 -115 -61.5t-131 -16.5h-655q2 -10 3 -23.5t1 -23.5q0 -66 -11.5 -173.5t-37 -230t-64.5 -247.5t-92 -226.5t-123 -165t-158 -63.5t-160.5 45t-125 114.5t-81 154.5t-28.5 165q0 96 60.5 186.5t148.5 167t187.5 136t176.5 94.5 q16 6 31 6q29 0 51.5 -21.5t22.5 -50.5q0 -41 -41 -65q-35 -18 -68.5 -34.5t-68.5 -37.5q-43 -25 -103.5 -66.5t-116 -93t-95.5 -108.5t-40 -113q0 -49 18.5 -106.5t51.5 -108.5t79 -85t101 -34q41 0 79 40t71 102.5t59.5 139.5t47 149.5t33.5 133t20 91.5q14 76 22 151.5 t8 153.5q0 33 -8 55.5t-31 44.5q-20 18 -51 30.5t-65.5 21t-68.5 11.5t-60 3q-10 0 -22.5 -1t-22.5 -1q-31 0 -51.5 20.5t-20.5 50.5q0 29 15.5 46.5t39.5 25.5q23 8 47.5 12t46.5 13q16 6 54 20t77 33.5t69 43.5t30 44q0 4 -4 9t-9 7q-39 29 -103.5 39.5t-111.5 10.5 q-45 0 -104 -4.5t-112.5 -21.5t-90.5 -52t-37 -97q0 -29 -21.5 -50t-49.5 -21q-29 0 -50.5 21.5t-21.5 49.5z" />
<glyph unicode="{" horiz-adv-x="890" d="M0 565q0 33 27 56l176 149v481q0 29 22.5 51.5t50.5 22.5h338q29 0 50.5 -22.5t21.5 -51.5t-21.5 -50t-50.5 -21h-266v-445q0 -31 -26 -53l-138 -117l138 -116q27 -23 26 -56v-416h266q29 0 50.5 -21t21.5 -50t-21.5 -51.5t-50.5 -22.5h-338q-29 0 -51 22.5t-22 51.5v452 l-176 152q-27 23 -27 55z" />
<glyph unicode="|" horiz-adv-x="348" d="M0 72v1018q0 29 21.5 51t50.5 22t50 -22.5t21 -50.5v-1018q0 -29 -21.5 -50.5t-49.5 -21.5q-29 0 -50.5 21.5t-21.5 50.5z" />
<glyph unicode="}" horiz-adv-x="890" d="M0 -94q0 29 21.5 50t50.5 21h266v416q0 33 27 56l137 116l-137 117q-27 23 -27 53v445h-266q-29 0 -50.5 21.5t-21.5 49.5q0 29 21.5 51.5t50.5 22.5h338q29 0 51 -22.5t22 -51.5v-481l176 -149q27 -23 27 -56t-27 -55l-176 -152v-452q0 -29 -22.5 -51.5t-50.5 -22.5 h-338q-29 0 -50.5 22.5t-21.5 51.5z" />
<glyph unicode="~" horiz-adv-x="1003" d="M0 489q0 41 31 62l219 147q18 12 41 13q23 0 41 -13l176 -120l178 120q18 12 41 13q29 0 50.5 -21.5t21.5 -50.5q0 -37 -31 -59l-219 -150q-18 -12 -41 -12q-20 0 -39 12l-178 121l-178 -121q-18 -12 -41 -12q-29 0 -50.5 21.5t-21.5 49.5z" />
<glyph unicode="&#xa1;" horiz-adv-x="378" d="M0 1077q0 35 26.5 60.5t61.5 25.5t60.5 -25.5t25.5 -60.5t-25.5 -60.5t-60.5 -25.5t-61.5 25.5t-26.5 60.5zM18 59v799q0 29 22.5 50.5t51.5 21.5t50.5 -21.5t21.5 -50.5v-799q0 -29 -21.5 -51t-50.5 -22t-51.5 22.5t-22.5 50.5z" />
<glyph unicode="&#xa2;" horiz-adv-x="1243" d="M0 582q0 104 36 172.5t96.5 110.5t141 61.5t172.5 25.5v138q0 29 21.5 51t50.5 22t51.5 -22.5t22.5 -50.5v-134q47 0 104.5 -5t115.5 -17t110.5 -32.5t89.5 -55.5q27 -27 26 -55q0 -29 -21.5 -50.5t-49.5 -21.5q-14 0 -24.5 4t-22.5 12q-72 49 -157 62.5t-171 15.5v-463 q86 2 171 14.5t157 61.5q12 8 22 12t25 4q29 0 50 -21t21 -50t-26 -56q-37 -33 -89.5 -54t-110.5 -33.5t-115.5 -17.5t-104.5 -5v-133q0 -29 -22.5 -50.5t-51.5 -21.5t-50.5 21.5t-21.5 50.5v137q-92 6 -172.5 26.5t-141 62.5t-96.5 110.5t-36 173.5zM143 582 q0 -27 3.5 -52.5t13.5 -50.5q16 -37 50 -60.5t75 -36.5t84 -20.5t77 -9.5v457q-37 -2 -82 -9t-85.5 -21.5t-74.5 -40t-48 -66.5q-8 -23 -10.5 -45.5t-2.5 -44.5z" />
<glyph unicode="&#xa3;" horiz-adv-x="1419" d="M0 561q0 29 21.5 50.5t50.5 21.5h176q45 188 161.5 265t307.5 77q70 0 139.5 -21.5t124.5 -62.5q31 -20 31 -60q0 -29 -21.5 -50t-50.5 -21q-23 0 -41 12q-45 29 -87 43t-95 14q-59 0 -110.5 -7t-92.5 -28.5t-70.5 -60.5t-46.5 -100h371q29 0 51.5 -21.5t22.5 -50.5 t-22.5 -51.5t-51.5 -22.5h-401l-33 -159h809q29 0 50 -21.5t21 -50.5t-21.5 -51.5t-49.5 -22.5h-891q-31 0 -54.5 20.5t-23.5 53.5q0 12 6 44t13.5 69t15.5 69.5t10 48.5h-147q-29 0 -50.5 22.5t-21.5 51.5z" />
<glyph unicode="&#xa4;" horiz-adv-x="1470" d="M0 508q0 29 29 29h200q-2 14 -2 28.5v28.5h-198q-29 0 -29 29t29 28h204q14 102 71.5 162.5t136.5 92.5t171.5 41t175.5 9q51 0 113 -4t123 -15t118.5 -32.5t96.5 -58.5q27 -23 27 -55q0 -29 -21.5 -50.5t-50.5 -21.5q-25 0 -47 16q-74 53 -172 65.5t-187 12.5 q-45 0 -110.5 -3t-128 -18.5t-111.5 -48t-61 -92.5h465q29 0 28 -28q0 -29 -28 -29h-469v-19q0 -10 -1 -19t1 -19h352q29 0 29 -29t-29 -29h-336q23 -45 72 -71.5t107.5 -40t117.5 -16.5t102 -3q88 0 186.5 12.5t172.5 65.5q23 16 47 16q29 0 50.5 -21t21.5 -50 q0 -33 -27 -56q-39 -37 -96.5 -58t-118.5 -32.5t-122.5 -15.5t-113.5 -4q-78 0 -165.5 8t-165.5 35.5t-137.5 83t-79.5 147.5h-211q-29 0 -29 29z" />
<glyph unicode="&#xa5;" horiz-adv-x="1226" d="M0 795v118q0 29 21.5 50.5t50.5 21.5t50 -21.5t21 -50.5v-118q0 -31 3.5 -62t15.5 -59q18 -45 60 -72t92.5 -40t102.5 -16t95 -3t95 3t102.5 16t91.5 40t59 72q12 29 15.5 59.5t3.5 61.5v118q0 29 21.5 50.5t49.5 21.5q29 0 50.5 -21.5t21.5 -50.5v-118q0 -106 -32 -179 t-90 -119t-138 -68.5t-178 -29.5v-18h276q29 0 29 -29t-29 -28h-276v-19h276q29 0 29 -29t-29 -28h-276q0 -29 -21.5 -50.5t-50.5 -21.5t-50.5 21.5t-21.5 50.5h-276q-29 0 -29 28q0 29 29 29h274v19h-274q-29 0 -29 28q0 29 29 29h274v18q-98 6 -178 29t-138.5 69 t-90 118.5t-31.5 179.5z" />
<glyph unicode="&#xa6;" horiz-adv-x="348" d="M0 72v352q0 29 21.5 50.5t50.5 21.5t50 -21.5t21 -50.5v-352q0 -29 -21.5 -50.5t-49.5 -21.5q-29 0 -50.5 21.5t-21.5 50.5zM0 705v385q0 29 21.5 51t50.5 22t50 -22.5t21 -50.5v-385q0 -29 -21.5 -50.5t-49.5 -21.5q-29 0 -50.5 21.5t-21.5 50.5z" />
<glyph unicode="&#xa7;" horiz-adv-x="1751" d="M0 72q0 29 21.5 50t50.5 21h997q23 0 78 1t111.5 9.5t100.5 29t44 59.5t-44 58t-101.5 27.5t-111.5 9.5t-77 1h-387q-63 0 -146 5t-157 28.5t-125 72t-51 136.5q0 63 35 114q-45 10 -88.5 25.5t-77 42t-53 64.5t-19.5 92q0 86 49 134t120 71.5t151.5 29.5t142.5 6h1012 q29 0 50 -21.5t21 -50.5t-21.5 -50t-49.5 -21h-996q-23 0 -78 -1t-112.5 -9.5t-101.5 -29t-44 -58.5q0 -25 20.5 -42.5t53.5 -28.5t73 -16.5t76.5 -7.5t67.5 -2h45h385q63 0 146.5 -5t157 -28.5t124.5 -71.5t51 -136q0 -31 -8 -61t-24 -54q47 -8 89 -24.5t74.5 -43t52 -64.5 t19.5 -91q0 -86 -49 -134.5t-119.5 -72t-150.5 -29.5t-142 -6h-1013q-29 0 -50.5 21.5t-21.5 50.5zM348 580q0 -39 44 -59.5t100.5 -29t111.5 -8.5h78h236q23 0 69.5 1t93.5 10.5t83 29t36 56.5q0 39 -44 59t-101.5 28.5t-112.5 8.5h-78h-233q-23 0 -70 -1t-94 -10.5 t-83 -29t-36 -55.5z" />
<glyph unicode="&#xa8;" horiz-adv-x="1484" d="M532 1382q0 35 26 60.5t60 25.5q35 0 62 -25.5t27 -60.5t-27 -61.5t-62 -26.5t-60.5 27t-25.5 61zM778 1382q0 35 25.5 60.5t60.5 25.5t61.5 -25.5t26.5 -60.5t-26.5 -61.5t-61.5 -26.5t-60.5 27t-25.5 61z" />
<glyph unicode="&#xa9;" horiz-adv-x="1763" d="M0 582q0 182 63.5 295.5t171 177t249 86t296.5 22.5q156 0 297.5 -22.5t248 -86t170 -177t63.5 -295.5t-63.5 -296t-170 -177.5t-248 -86t-297.5 -22.5t-297 22.5t-248.5 86t-171 177t-63.5 296.5zM145 582q0 -53 6.5 -105.5t28.5 -101.5q35 -80 105.5 -125t155.5 -68.5 t175.5 -30t163.5 -6.5q74 0 163 6.5t174 30t155.5 68.5t105.5 125q23 49 29 101.5t6 105.5q0 49 -5 98t-24 96q-33 84 -102.5 132t-155.5 73t-178 31t-168 6t-168 -6t-178 -31t-156.5 -73t-103.5 -132q-18 -47 -23.5 -96t-5.5 -98zM340 578q0 104 42 166.5t109.5 97.5 t152.5 46t169 11q43 0 95.5 -3t104.5 -13.5t99 -28.5t80 -49q27 -27 27 -55q0 -29 -21.5 -50.5t-50.5 -21.5q-14 0 -24.5 4t-22.5 12q-61 43 -138 52.5t-149 9.5q-33 0 -80 -2t-93 -12.5t-86 -30t-56 -56.5q-10 -18 -11.5 -37.5t-1.5 -39.5t1 -40t12 -38q16 -37 56 -56.5 t86 -30t93 -12.5t80 -2q72 0 148.5 9.5t138.5 52.5q12 8 22.5 12t24.5 4q29 0 50.5 -21t21.5 -50q0 -31 -27 -58q-33 -31 -80 -48t-99 -27.5t-104.5 -13.5t-95.5 -3q-84 0 -169 11.5t-152.5 46t-109.5 97t-42 167.5z" />
<glyph unicode="&#xab;" horiz-adv-x="770" d="M0 565q0 16 6 31l144 295q20 41 63 41q29 0 51.5 -21.5t22.5 -50.5q0 -10 -8 -31l-127 -264l127 -266q8 -21 8 -31q0 -29 -22.5 -50t-51.5 -21q-43 0 -63 41l-144 294q-6 16 -6 33zM279 565q0 16 6 31l143 295q20 41 64 41q29 0 51 -21.5t22 -50.5q0 -10 -8 -31 l-127 -264l127 -266q8 -21 8 -31q0 -29 -22.5 -50t-50.5 -21q-43 0 -64 41l-143 294q-6 16 -6 33z" />
<glyph unicode="&#xac;" horiz-adv-x="1212" d="M0 733q0 29 21.5 50.5t50.5 21.5h864q29 0 50.5 -21.5t21.5 -50.5v-362q0 -29 -21.5 -51.5t-50.5 -22.5t-50.5 22.5t-21.5 51.5v291h-792q-29 0 -50.5 21.5t-21.5 49.5z" />
<glyph unicode="&#xad;" horiz-adv-x="1124" d="M0 565q0 29 21.5 50.5t50.5 21.5h776q29 0 50.5 -21.5t21.5 -50.5t-21.5 -51t-50.5 -22h-776q-29 0 -50.5 22.5t-21.5 50.5z" />
<glyph unicode="&#xae;" horiz-adv-x="1763" d="M0 582q0 182 63.5 295.5t171 177t249 86t296.5 22.5q156 0 297.5 -22.5t248 -86t170 -177t63.5 -295.5t-63.5 -296t-170 -177.5t-248 -86t-297.5 -22.5t-297 22.5t-248.5 86t-171 177t-63.5 296.5zM145 582q0 -53 6.5 -105.5t28.5 -101.5q35 -80 105.5 -125t155.5 -68.5 t175.5 -30t163.5 -6.5q76 0 168 7.5t178 32t156 72.5t102 130q18 47 23.5 96.5t5.5 98.5t-5 98t-24 96q-33 84 -102.5 132t-155.5 73t-178 31t-168 6q-74 0 -164 -6t-175 -30t-155.5 -69t-105.5 -125q-23 -49 -29 -101t-6 -105zM356 330v510q0 29 21.5 50t50.5 21h500 q51 0 100 -8t88 -29.5t62.5 -60.5t23.5 -100q0 -137 -127 -181l115 -161q12 -18 12 -41q0 -29 -21.5 -50.5t-50.5 -21.5q-35 0 -59 31l-156 223h-413v-182q0 -29 -22.5 -50.5t-51.5 -21.5t-50.5 21.5t-21.5 50.5zM502 655h426h38.5t43 5.5t35 17.5t14.5 35t-14.5 34t-35 15 t-43 4h-38.5h-426v-111z" />
<glyph unicode="&#xaf;" horiz-adv-x="1533" d="M532 1384q0 29 21.5 50.5t50.5 21.5h326q29 0 50 -21.5t21 -50.5t-21.5 -51t-49.5 -22h-326q-29 0 -50.5 22.5t-21.5 50.5z" />
<glyph unicode="&#xb0;" horiz-adv-x="686" d="M0 1260q0 49 18.5 93t51 76.5t76.5 51t94 18.5q49 0 93 -18.5t76.5 -51t52 -76.5t19.5 -93t-19.5 -93.5t-52 -77t-76.5 -52t-93 -19.5t-93.5 19.5t-77 52t-51 76.5t-18.5 94zM143 1260q0 -41 28 -69t69 -28t68.5 28t27.5 69t-27.5 68.5t-68.5 27.5t-69 -28t-28 -68z" />
<glyph unicode="&#xb1;" horiz-adv-x="1124" d="M0 74q0 29 21.5 50t50.5 21h776q29 0 50.5 -21t21.5 -50t-21.5 -51.5t-50.5 -22.5h-776q-29 0 -50.5 22.5t-21.5 51.5zM0 709q0 29 21.5 50t50.5 21h315v316q0 29 22.5 50t51.5 21t50 -21.5t21 -49.5v-316h316q29 0 50.5 -21t21.5 -50t-21.5 -51.5t-50.5 -22.5h-316v-316 q0 -29 -21.5 -50t-49.5 -21q-29 0 -51.5 21.5t-22.5 49.5v316h-315q-29 0 -50.5 22.5t-21.5 51.5z" />
<glyph unicode="&#xb2;" horiz-adv-x="983" d="M0 606q0 49 19.5 94t52.5 80q53 59 133 80t155 21q16 0 61.5 1t92.5 7t84 21.5t37 45.5q0 31 -37 46.5t-84 21.5t-92 7t-62 1q-59 0 -128.5 -4t-122.5 -31l-17.5 -7t-17.5 -3q-29 0 -51.5 21.5t-22.5 50.5q0 43 46 66.5t106.5 36t121 14.5t86.5 2q57 0 130 -5.5 t136.5 -27t107.5 -65.5t44 -124t-44 -124t-107.5 -65.5t-136 -26.5t-130.5 -5q-18 0 -45.5 -3t-55.5 -9t-50.5 -17.5t-34.5 -29.5h522q29 0 50.5 -21.5t21.5 -50.5t-21.5 -50.5t-50.5 -21.5h-624q-33 0 -52.5 21.5t-19.5 52.5z" />
<glyph unicode="&#xb3;" horiz-adv-x="884" d="M0 594q0 29 21.5 51.5t50.5 22.5h340h36.5t41 4t34 15t13.5 32q0 23 -14.5 33t-34 14t-41 4h-35.5h-340q-29 0 -50.5 21.5t-21.5 50.5t21.5 51t50.5 22h340h36.5t41 4.5t34 15.5t13.5 32q0 23 -14.5 33t-34 14t-41 4h-35.5h-340q-29 0 -50.5 21.5t-21.5 50.5t21.5 51 t50.5 22h340q49 0 97 -8t86 -30.5t61.5 -60.5t23.5 -97q0 -35 -9 -67t-32 -58q23 -27 32 -57.5t9 -65.5q0 -59 -22.5 -98t-60.5 -60.5t-86 -30t-99 -8.5h-340q-29 0 -50.5 21.5t-21.5 50.5z" />
<glyph unicode="&#xb4;" horiz-adv-x="1351" d="M532 1204q0 16 7 31l143 295q10 18 26.5 30.5t36.5 12.5q29 0 51.5 -22.5t22.5 -51.5q0 -10 -8 -31l-141 -294q-20 -41 -66 -41q-29 0 -50.5 21.5t-21.5 49.5z" />
<glyph unicode="&#xb5;" horiz-adv-x="1802" d="M0 -231v796q0 29 21.5 50.5t50.5 21.5t50 -21.5t21 -50.5v-241v-7q0 -23 2 -42t13 -39q16 -33 51 -51.5t77 -28t85 -11.5t73 -2q31 0 74 2t85 11.5t77 28t51 51.5q10 20 12 39.5t2 41.5v187q0 20 1.5 43.5t7.5 43t21.5 32t43.5 12.5h2q29 0 43.5 -11.5t19.5 -30t5 -40 v-41.5q0 -45 5 -108.5t24.5 -122t56.5 -98.5t100 -40h727q14 0 36 1t43.5 5.5t41 12.5t29.5 22q14 20 32.5 28.5t30.5 8.5q29 0 50.5 -21t21.5 -50q0 -18 -8 -35q-4 -10 -13.5 -20.5t-17.5 -16.5q-49 -45 -114.5 -61.5t-131.5 -16.5h-727q-158 0 -241 129q-33 -43 -79 -67.5 t-98.5 -39t-107.5 -18.5t-105 -4q-74 0 -154.5 10t-146.5 45v-286q0 -29 -21.5 -51.5t-49.5 -22.5q-29 0 -50.5 22.5t-21.5 51.5z" />
<glyph unicode="&#xb6;" horiz-adv-x="1753" d="M0 836q0 104 41 167.5t107.5 99.5t149.5 48t167 12h1010q29 0 51 -22.5t22 -50.5v-1018q0 -29 -22.5 -50.5t-50.5 -21.5q-29 0 -50.5 21.5t-21.5 50.5v436h-199v-436q0 -29 -22.5 -50.5t-51.5 -21.5t-50 21.5t-21 50.5v436h-580q-84 0 -170 11t-154.5 46t-111.5 99.5 t-43 171.5zM143 836q0 -68 33 -106t83 -54.5t109.5 -19.5t110.5 -3h580v365h-580q-33 0 -78 -2t-90 -9.5t-84 -24.5t-59 -48q-16 -23 -20.5 -47.5t-4.5 -50.5zM1204 653h199v365h-199v-365z" />
<glyph unicode="&#xb7;" horiz-adv-x="378" d="M0 625q0 35 25.5 60.5t60.5 25.5t61.5 -25.5t26.5 -60.5t-26.5 -61.5t-61.5 -26.5t-60.5 26.5t-25.5 61.5z" />
<glyph unicode="&#xb8;" horiz-adv-x="1683" d="M532 -260q0 57 19.5 97t53.5 66.5t78 41t95 18.5q0 18 1 40t7.5 39t21.5 28.5t42 11.5q29 0 50.5 -21.5t21.5 -50.5v-116q0 -35 -18.5 -50.5t-45.5 -20.5t-59.5 -5t-59 -6.5t-45 -21.5t-18.5 -50q0 -10 1 -19.5t7 -19.5q10 -16 30.5 -24.5t46 -11.5t50.5 -4t39 -1h34.5 t47 1t45 5t29.5 12v7q0 29 22.5 50t50.5 21q29 0 50.5 -21t21.5 -50q0 -61 -29.5 -95t-75 -50.5t-98.5 -19.5t-98 -3q-57 0 -114.5 8t-102.5 32.5t-73 67.5t-28 115z" />
<glyph unicode="&#xb9;" horiz-adv-x="348" d="M0 596v494q0 29 21.5 51t50.5 22t50 -22.5t21 -50.5v-494q0 -29 -21.5 -51.5t-49.5 -22.5q-29 0 -50.5 22.5t-21.5 51.5z" />
<glyph unicode="&#xbb;" horiz-adv-x="770" d="M0 268q0 10 8 31l127 266l-127 264q-8 20 -8 31q0 29 22.5 50.5t51.5 21.5q43 0 63 -41l144 -295q6 -15 6 -31t-6 -33l-144 -294q-20 -41 -63 -41q-29 0 -51.5 21.5t-22.5 49.5zM279 268q0 10 8 31l127 266l-127 264q-8 20 -8 31q0 29 22.5 50.5t50.5 21.5q43 0 64 -41 l143 -295q6 -15 6 -31t-6 -33l-143 -294q-20 -41 -64 -41q-29 0 -51 21.5t-22 49.5z" />
<glyph unicode="&#xbc;" horiz-adv-x="1531" d="M0 72q0 23 14 43l736 1018q25 31 59 30q29 0 50.5 -22t21.5 -51q0 -18 -15 -41l-735 -1020q-23 -29 -59 -29q-29 0 -50.5 21.5t-21.5 50.5zM33 596v494q0 29 21.5 51t49.5 22q29 0 50.5 -22.5t21.5 -50.5v-494q0 -29 -21.5 -51.5t-50.5 -22.5t-50 22.5t-21 51.5zM492 248 q0 16 9 32.5t23 26.5l461 320q18 12 41 12q29 0 53 -25q25 25 54 25t50 -21.5t21 -50.5v-245q18 0 40 -1.5t40.5 -7.5t30.5 -21t12 -44t-12 -43.5t-30.5 -20.5t-40 -7t-40.5 -1v-104q0 -29 -21.5 -50.5t-49.5 -21.5q-29 0 -50.5 21.5t-21.5 50.5v104h-496q-29 0 -51 21.5 t-22 50.5zM797 322h264v180z" />
<glyph unicode="&#xbd;" horiz-adv-x="1607" d="M0 72q0 23 14 43l736 1018q25 31 59 30q29 0 50.5 -22t21.5 -51q0 -18 -15 -41l-735 -1020q-23 -29 -59 -29q-29 0 -50.5 21.5t-21.5 50.5zM33 596v494q0 29 21.5 51t49.5 22q29 0 50.5 -22.5t21.5 -50.5v-494q0 -29 -21.5 -51.5t-50.5 -22.5t-50 22.5t-21 51.5zM625 74 q0 49 19.5 94t51.5 80q53 59 133 79.5t156 20.5q16 0 61.5 1t92.5 7t84 21.5t37 46.5t-37 46t-84 21.5t-92.5 7.5t-61.5 1q-59 0 -129 -4t-123 -31q-10 -4 -17 -7t-18 -3q-29 0 -51 21.5t-22 49.5q0 43 46 66.5t106.5 36t120.5 14.5t87 2q57 0 130 -5t136.5 -26.5 t107.5 -65.5t44 -124t-44 -124t-107.5 -65.5t-136.5 -26.5t-130 -5q-18 0 -46 -3t-55.5 -9.5t-50 -17.5t-34.5 -30h522q29 0 50.5 -21.5t21.5 -49.5q0 -29 -21.5 -50.5t-50.5 -21.5h-625q-33 0 -52 21.5t-19 52.5z" />
<glyph unicode="&#xbe;" horiz-adv-x="1871" d="M0 594q0 29 21.5 51.5t50.5 22.5h340h36.5t41 4t34 15t13.5 32q0 23 -14.5 33t-34 14t-41 4h-35.5h-340q-29 0 -50.5 21.5t-21.5 50.5t21.5 51t50.5 22h340h36.5t41 4.5t34 15.5t13.5 32q0 23 -14.5 33t-34 14t-41 4h-35.5h-340q-29 0 -50.5 21.5t-21.5 50.5t21.5 51 t50.5 22h340q49 0 97 -8t86 -30.5t61.5 -60.5t23.5 -97q0 -35 -9 -67t-32 -58q23 -27 32 -57.5t9 -65.5q0 -59 -22.5 -98t-60.5 -60.5t-86 -30t-99 -8.5h-340q-29 0 -50.5 21.5t-21.5 50.5zM408 72q0 25 12 43l737 1018q25 31 60 30q29 0 50 -22t21 -51q0 -18 -14 -41 l-735 -1020q-23 -29 -60 -29q-29 0 -50 21.5t-21 50.5zM831 248q0 16 9.5 32.5t23.5 26.5l461 320q18 12 41 12q29 0 53 -25q25 25 54 25t50 -21.5t21 -50.5v-245q18 0 40 -1.5t40 -7.5t30.5 -21t12.5 -44t-12.5 -43.5t-30.5 -20.5t-39.5 -7t-40.5 -1v-104 q0 -29 -21.5 -50.5t-49.5 -21.5q-29 0 -50.5 21.5t-21.5 50.5v104h-496q-29 0 -51.5 21.5t-22.5 50.5zM1137 322h264v180z" />
<glyph unicode="&#xbf;" horiz-adv-x="1488" d="M0 322q0 96 48 159.5t122 102.5t161 55t165 16q61 0 104 7.5t70.5 29t40 60.5t12.5 104q0 29 22.5 51.5t51.5 22.5t50 -22.5t21 -51.5q0 -98 -24.5 -163.5t-71.5 -105.5t-116.5 -57.5t-159.5 -17.5q-43 0 -103.5 -8t-116 -28.5t-93.5 -57.5t-38 -96q0 -20 4.5 -37 t14.5 -33q31 -43 100.5 -67.5t149.5 -37t156.5 -14.5t121.5 -2q57 0 121 2t127.5 9.5t124.5 21.5t113 39q16 8 34 8q29 0 50.5 -21.5t21.5 -50.5q0 -23 -10 -37t-27 -26q-10 -6 -22.5 -11.5t-22.5 -9.5q-55 -23 -119.5 -37t-132 -21t-133 -9t-125.5 -2q-57 0 -131 2 t-150.5 12t-150.5 30.5t-132 58.5t-93 94.5t-35 138.5zM705 1075q0 35 26.5 60.5t61.5 25.5t60.5 -25.5t25.5 -60.5t-26 -60.5t-60 -25.5q-35 0 -61.5 25.5t-26.5 60.5z" />
<glyph unicode="&#xc0;" d="M0 72v520q0 176 59.5 287.5t161 174t236.5 86t288 23.5q154 0 289 -23.5t236.5 -86t161 -174t59.5 -287.5v-520q0 -29 -21.5 -50.5t-50.5 -21.5t-50 21.5t-21 50.5v266h-1205v-266q0 -29 -21.5 -50.5t-49.5 -21.5q-29 0 -50.5 21.5t-21.5 50.5zM143 483h1205v109 q0 49 -5.5 98t-23.5 96q-31 80 -97.5 127.5t-147.5 70t-168 28.5t-161 6q-70 0 -155.5 -6t-166.5 -28.5t-147.5 -67t-99.5 -119.5q-23 -49 -28 -100.5t-5 -104.5v-109zM532 1642q0 29 23 51.5t51 22.5q20 0 36.5 -12.5t27.5 -30.5l143 -295q6 -15 6 -31q0 -29 -21.5 -50 t-49.5 -21q-45 0 -66 41l-141 294q-8 20 -9 31z" />
<glyph unicode="&#xc1;" d="M0 72v520q0 176 59.5 287.5t161 174t236.5 86t288 23.5q154 0 289 -23.5t236.5 -86t161 -174t59.5 -287.5v-520q0 -29 -21.5 -50.5t-50.5 -21.5t-50 21.5t-21 50.5v266h-1205v-266q0 -29 -21.5 -50.5t-49.5 -21.5q-29 0 -50.5 21.5t-21.5 50.5zM143 483h1205v109 q0 49 -5.5 98t-23.5 96q-31 80 -97.5 127.5t-147.5 70t-168 28.5t-161 6q-70 0 -155.5 -6t-166.5 -28.5t-147.5 -67t-99.5 -119.5q-23 -49 -28 -100.5t-5 -104.5v-109zM675 1327q0 16 7 31l143 295q10 18 26.5 30.5t36.5 12.5q29 0 51.5 -22.5t22.5 -51.5q0 -10 -8 -31 l-141 -294q-20 -41 -66 -41q-29 0 -50.5 21.5t-21.5 49.5z" />
<glyph unicode="&#xc2;" d="M0 72v520q0 176 59.5 287.5t161 174t236.5 86t288 23.5q154 0 289 -23.5t236.5 -86t161 -174t59.5 -287.5v-520q0 -29 -21.5 -50.5t-50.5 -21.5t-50 21.5t-21 50.5v266h-1205v-266q0 -29 -21.5 -50.5t-49.5 -21.5q-29 0 -50.5 21.5t-21.5 50.5zM143 483h1205v109 q0 49 -5.5 98t-23.5 96q-31 80 -97.5 127.5t-147.5 70t-168 28.5t-161 6q-70 0 -155.5 -6t-166.5 -28.5t-147.5 -67t-99.5 -119.5q-23 -49 -28 -100.5t-5 -104.5v-109zM475 1323q0 33 27 55l199 160q20 16 45 16t45 -16l199 -160q26 -22 26 -55q0 -29 -21.5 -51.5 t-50.5 -22.5q-25 0 -45 16l-153 123l-154 -123q-20 -16 -45 -16q-29 0 -50.5 22.5t-21.5 51.5z" />
<glyph unicode="&#xc3;" d="M0 72v520q0 176 59.5 287.5t161 174t236.5 86t288 23.5q154 0 289 -23.5t236.5 -86t161 -174t59.5 -287.5v-520q0 -29 -21.5 -50.5t-50.5 -21.5t-50 21.5t-21 50.5v266h-1205v-266q0 -29 -21.5 -50.5t-49.5 -21.5q-29 0 -50.5 21.5t-21.5 50.5zM143 483h1205v109 q0 49 -5.5 98t-23.5 96q-31 80 -97.5 127.5t-147.5 70t-168 28.5t-161 6q-70 0 -155.5 -6t-166.5 -28.5t-147.5 -67t-99.5 -119.5q-23 -49 -28 -100.5t-5 -104.5v-109zM348 1370q0 41 31 62l219 147q18 12 41 12t41 -12l176 -121l178 121q18 12 41 12q29 0 50.5 -21 t21.5 -50q0 -37 -31 -60l-219 -149q-18 -12 -41 -13q-20 0 -39 13l-178 121l-178 -121q-18 -12 -41 -13q-29 0 -50.5 21.5t-21.5 50.5z" />
<glyph unicode="&#xc4;" d="M0 72v520q0 176 59.5 287.5t161 174t236.5 86t288 23.5q154 0 289 -23.5t236.5 -86t161 -174t59.5 -287.5v-520q0 -29 -21.5 -50.5t-50.5 -21.5t-50 21.5t-21 50.5v266h-1205v-266q0 -29 -21.5 -50.5t-49.5 -21.5q-29 0 -50.5 21.5t-21.5 50.5zM143 483h1205v109 q0 49 -5.5 98t-23.5 96q-31 80 -97.5 127.5t-147.5 70t-168 28.5t-161 6q-70 0 -155.5 -6t-166.5 -28.5t-147.5 -67t-99.5 -119.5q-23 -49 -28 -100.5t-5 -104.5v-109zM532 1382q0 35 26 60.5t60 25.5q35 0 62 -25.5t27 -60.5t-27 -61.5t-62 -26.5t-60.5 27t-25.5 61z M778 1382q0 35 25.5 60.5t60.5 25.5t61.5 -25.5t26.5 -60.5t-26.5 -61.5t-61.5 -26.5t-60.5 27t-25.5 61z" />
<glyph unicode="&#xc5;" d="M0 72v520q0 176 59.5 287.5t161 174t236.5 86t288 23.5q154 0 289 -23.5t236.5 -86t161 -174t59.5 -287.5v-520q0 -29 -21.5 -50.5t-50.5 -21.5t-50 21.5t-21 50.5v266h-1205v-266q0 -29 -21.5 -50.5t-49.5 -21.5q-29 0 -50.5 21.5t-21.5 50.5zM143 483h1205v109 q0 49 -5.5 98t-23.5 96q-31 80 -97.5 127.5t-147.5 70t-168 28.5t-161 6q-70 0 -155.5 -6t-166.5 -28.5t-147.5 -67t-99.5 -119.5q-23 -49 -28 -100.5t-5 -104.5v-109zM512 1526q0 49 18.5 93t51 77t76.5 51t94 18q49 0 93 -18t76.5 -51t52 -77t19.5 -93t-19.5 -93t-52 -77 t-76.5 -52.5t-93 -19.5t-93.5 19.5t-77 52.5t-51 77t-18.5 93zM655 1526q0 -41 28 -68.5t69 -27.5t68.5 27.5t27.5 68.5t-27.5 68.5t-68.5 27.5t-69 -27.5t-28 -68.5z" />
<glyph unicode="&#xc6;" horiz-adv-x="2979" d="M0 72v514q0 176 59.5 287.5t161 174t236.5 86t288 23.5q74 0 157 -6t163 -24.5t152.5 -51.5t130.5 -86q0 23 -2.5 52.5t3 57t20.5 46t50 18.5h1284q29 0 50.5 -22.5t21.5 -50.5q0 -29 -21.5 -50.5t-50.5 -21.5h-1212v-535h973q29 0 50 -21.5t21 -49.5q0 -29 -21.5 -51.5 t-49.5 -22.5h-973v-195h1212q29 0 50.5 -21t21.5 -50t-21.5 -50.5t-50.5 -21.5h-1284q-29 0 -50 21.5t-21 50.5v266h-1205v-266q0 -29 -21.5 -50.5t-49.5 -21.5q-29 0 -50.5 21.5t-21.5 50.5zM143 483h1205v103q0 49 -5.5 98t-23.5 96q-31 80 -97.5 127t-147.5 70.5t-168 30 t-161 6.5q-70 0 -155.5 -6.5t-166.5 -29t-147.5 -66.5t-99.5 -119q-23 -49 -28 -101.5t-5 -105.5v-103z" />
<glyph unicode="&#xc7;" horiz-adv-x="1845" d="M0 580q0 127 38 230t140 187q66 53 155 86t186 50.5t193.5 22.5t178.5 5q78 0 165 -4t173 -18.5t169 -39t150 -65.5q16 -10 35 -21.5t33 -25.5q12 -12 18 -24.5t6 -30.5q0 -29 -21.5 -50.5t-49.5 -21.5q-23 0 -45 17q-29 23 -66 43q-57 31 -129 50t-147.5 29.5 t-150.5 13.5t-140 3q-76 0 -178.5 -5t-202.5 -26.5t-186 -66t-131 -119.5q-29 -49 -39.5 -105.5t-10.5 -113.5t10.5 -113.5t39.5 -106.5q45 -76 131 -119.5t186 -65t202.5 -27t178.5 -5.5q66 0 140.5 3.5t150 13.5t147.5 29.5t129 50.5q37 20 66 43q23 16 45 16 q29 0 50 -21.5t21 -50.5q0 -18 -6 -30.5t-18 -24.5q-14 -14 -32.5 -25.5t-35.5 -21.5q-68 -41 -150.5 -65.5t-168.5 -39t-173 -18.5t-165 -4q-82 0 -178.5 5t-193.5 22.5t-186 50.5t-155 86q-102 84 -140 187.5t-38 230.5zM532 -260q0 57 19.5 97t53.5 66.5t78 41t95 18.5 q0 18 1 40t7.5 39t21.5 28.5t42 11.5q29 0 50.5 -21.5t21.5 -50.5v-116q0 -35 -18.5 -50.5t-45.5 -20.5t-59.5 -5t-59 -6.5t-45 -21.5t-18.5 -50q0 -10 1 -19.5t7 -19.5q10 -16 30.5 -24.5t46 -11.5t50.5 -4t39 -1h34.5t47 1t45 5t29.5 12v7q0 29 22.5 50t50.5 21 q29 0 50.5 -21t21.5 -50q0 -61 -29.5 -95t-75 -50.5t-98.5 -19.5t-98 -3q-57 0 -114.5 8t-102.5 32.5t-73 67.5t-28 115z" />
<glyph unicode="&#xc8;" horiz-adv-x="1726" d="M-143 412q0 29 21.5 50t49.5 21h166v607q0 29 22.5 51t51.5 22h1282q29 0 50.5 -22.5t21.5 -50.5q0 -29 -21.5 -50.5t-50.5 -21.5h-1210v-535h972q29 0 50.5 -21.5t21.5 -49.5q0 -29 -21.5 -51.5t-50.5 -22.5h-972v-195h1210q29 0 50.5 -21t21.5 -50t-21.5 -50.5 t-50.5 -21.5h-1282q-29 0 -51.5 21.5t-22.5 50.5v266h-166q-29 0 -50 22.5t-21 51.5zM553 1642q0 29 22.5 51.5t51.5 22.5q20 0 36.5 -12t26.5 -31l144 -295q6 -14 6 -30q0 -29 -21.5 -50.5t-50.5 -21.5q-45 0 -66 41l-141 295q-8 20 -8 30z" />
<glyph unicode="&#xc9;" horiz-adv-x="1726" d="M-143 412q0 29 21.5 50t49.5 21h166v607q0 29 22.5 51t51.5 22h1282q29 0 50.5 -22.5t21.5 -50.5q0 -29 -21.5 -50.5t-50.5 -21.5h-1210v-535h972q29 0 50.5 -21.5t21.5 -49.5q0 -29 -21.5 -51.5t-50.5 -22.5h-972v-195h1210q29 0 50.5 -21t21.5 -50t-21.5 -50.5 t-50.5 -21.5h-1282q-29 0 -51.5 21.5t-22.5 50.5v266h-166q-29 0 -50 22.5t-21 51.5zM675 1327q0 16 7 31l143 295q10 18 26.5 30.5t36.5 12.5q29 0 51.5 -22.5t22.5 -51.5q0 -10 -8 -31l-141 -294q-20 -41 -66 -41q-29 0 -50.5 21.5t-21.5 49.5z" />
<glyph unicode="&#xca;" horiz-adv-x="1726" d="M-143 412q0 29 21.5 50t49.5 21h166v607q0 29 22.5 51t51.5 22h1282q29 0 50.5 -22.5t21.5 -50.5q0 -29 -21.5 -50.5t-50.5 -21.5h-1210v-535h972q29 0 50.5 -21.5t21.5 -49.5q0 -29 -21.5 -51.5t-50.5 -22.5h-972v-195h1210q29 0 50.5 -21t21.5 -50t-21.5 -50.5 t-50.5 -21.5h-1282q-29 0 -51.5 21.5t-22.5 50.5v266h-166q-29 0 -50 22.5t-21 51.5zM471 1323q0 33 27 55l198 160q20 16 45 16t45 -16l199 -160q27 -22 27 -55q0 -29 -21.5 -51.5t-50.5 -22.5q-25 0 -45 17l-154 123l-153 -123q-20 -16 -45 -17q-29 0 -50.5 22.5 t-21.5 51.5z" />
<glyph unicode="&#xcb;" horiz-adv-x="1726" d="M-143 412q0 29 21.5 50t49.5 21h166v607q0 29 22.5 51t51.5 22h1282q29 0 50.5 -22.5t21.5 -50.5q0 -29 -21.5 -50.5t-50.5 -21.5h-1210v-535h972q29 0 50.5 -21.5t21.5 -49.5q0 -29 -21.5 -51.5t-50.5 -22.5h-972v-195h1210q29 0 50.5 -21t21.5 -50t-21.5 -50.5 t-50.5 -21.5h-1282q-29 0 -51.5 21.5t-22.5 50.5v266h-166q-29 0 -50 22.5t-21 51.5zM552 1382q0 35 26 60.5t60 25.5q35 0 62 -25.5t27 -60.5t-27 -61.5t-62 -26.5t-60.5 27t-25.5 61zM798 1382q0 35 25.5 60.5t60.5 25.5t61.5 -25.5t26.5 -60.5t-26.5 -61.5t-61.5 -26.5 t-60.5 27t-25.5 61z" />
<glyph unicode="&#xcc;" horiz-adv-x="1124" d="M0 72q0 29 21.5 50t50.5 21h315v875h-315q-29 0 -50.5 21.5t-21.5 50.5t21.5 51t50.5 22h776q29 0 50.5 -22.5t21.5 -50.5q0 -29 -21.5 -50.5t-50.5 -21.5h-316v-875h316q29 0 50.5 -21t21.5 -50t-21.5 -50.5t-50.5 -21.5h-776q-29 0 -50.5 21.5t-21.5 50.5zM246 1642 q0 29 22.5 51.5t50.5 22.5q20 0 37 -12t27 -31l143 -295q6 -14 6 -30q0 -29 -21.5 -50.5t-49.5 -21.5q-45 0 -66 41l-141 295q-8 20 -8 30z" />
<glyph unicode="&#xcd;" horiz-adv-x="1124" d="M0 72q0 29 21.5 50t50.5 21h315v875h-315q-29 0 -50.5 21.5t-21.5 50.5t21.5 51t50.5 22h776q29 0 50.5 -22.5t21.5 -50.5q0 -29 -21.5 -50.5t-50.5 -21.5h-316v-875h316q29 0 50.5 -21t21.5 -50t-21.5 -50.5t-50.5 -21.5h-776q-29 0 -50.5 21.5t-21.5 50.5zM393 1327 q0 16 7 31l143 295q10 18 26.5 30.5t36.5 12.5q29 0 51.5 -22.5t22.5 -51.5q0 -10 -8 -31l-141 -294q-20 -41 -66 -41q-29 0 -50.5 21.5t-21.5 49.5z" />
<glyph unicode="&#xce;" horiz-adv-x="1124" d="M0 72q0 29 21.5 50t50.5 21h315v875h-315q-29 0 -50.5 21.5t-21.5 50.5t21.5 51t50.5 22h776q29 0 50.5 -22.5t21.5 -50.5q0 -29 -21.5 -50.5t-50.5 -21.5h-316v-875h316q29 0 50.5 -21t21.5 -50t-21.5 -50.5t-50.5 -21.5h-776q-29 0 -50.5 21.5t-21.5 50.5zM184 1323 q0 33 27 55l199 160q20 16 45 16t45 -16l198 -160q27 -22 27 -55q0 -29 -21.5 -51.5t-50.5 -22.5q-25 0 -45 17l-153 123l-154 -123q-20 -16 -45 -17q-29 0 -50.5 22.5t-21.5 51.5z" />
<glyph unicode="&#xcf;" horiz-adv-x="1124" d="M0 72q0 29 21.5 50t50.5 21h315v875h-315q-29 0 -50.5 21.5t-21.5 50.5t21.5 51t50.5 22h776q29 0 50.5 -22.5t21.5 -50.5q0 -29 -21.5 -50.5t-50.5 -21.5h-316v-875h316q29 0 50.5 -21t21.5 -50t-21.5 -50.5t-50.5 -21.5h-776q-29 0 -50.5 21.5t-21.5 50.5zM249 1382 q0 35 26 60.5t60 25.5q35 0 62 -25.5t27 -60.5t-27 -61.5t-62 -26.5t-60.5 27t-25.5 61zM495 1382q0 35 25.5 60.5t60.5 25.5t61.5 -25.5t26.5 -60.5t-26.5 -61.5t-61.5 -26.5t-60.5 27t-25.5 61z" />
<glyph unicode="&#xd0;" horiz-adv-x="1755" d="M-410 565q0 29 21.5 50.5t50.5 21.5h338v453q0 29 21.5 51t50.5 22h604q154 0 309.5 -18.5t281.5 -79.5t204.5 -175t78.5 -304q0 -193 -77.5 -308.5t-202.5 -177t-280.5 -81t-313.5 -19.5h-604q-29 0 -50.5 21.5t-21.5 50.5v420h-338q-29 0 -50.5 22.5t-21.5 50.5z M143 143h533q80 0 182.5 6.5t200.5 30t181 71.5t126 130q25 47 33 99.5t8 105.5t-7 105t-32 100q-43 80 -127 125t-184.5 68.5t-201.5 28.5t-179 5h-533v-381h295q29 0 50.5 -21.5t21.5 -50.5t-21.5 -51t-50.5 -22h-295v-349z" />
<glyph unicode="&#xd1;" horiz-adv-x="1632" d="M0 72v1018q0 29 21.5 51t50.5 22q25 0 45 -16l1167 -926v869q0 29 21.5 51t50.5 22t50 -22.5t21 -50.5v-1018q0 -29 -21.5 -50.5t-49.5 -21.5q-29 0 -45 14l-1168 926v-868q0 -29 -21.5 -50.5t-49.5 -21.5q-29 0 -50.5 21.5t-21.5 50.5zM352 1370q0 41 31 62l219 147 q18 12 41 12t41 -12l176 -121l179 121q18 12 41 12q29 0 50 -21t21 -50q0 -37 -31 -60l-219 -149q-18 -12 -41 -13q-20 0 -39 13l-178 121l-178 -121q-18 -12 -41 -13q-29 0 -50.5 21.5t-21.5 50.5z" />
<glyph unicode="&#xd2;" horiz-adv-x="1947" d="M0 580q0 127 38 230t140 185q66 53 155 86t186 50.5t194.5 23.5t177.5 6t177 -6t195.5 -23.5t187.5 -50t155 -86.5q102 -82 140 -185t38 -230t-38 -230.5t-140 -187.5q-66 -53 -155 -86t-187.5 -50.5t-195.5 -22.5t-177 -5t-177.5 5t-194.5 22.5t-186 50.5t-155 86 q-102 84 -140 187.5t-38 230.5zM143 580q0 -53 8.5 -107.5t32.5 -101.5q43 -82 129 -128t188.5 -68.5t207 -28t182.5 -5.5q80 0 186.5 5.5t210 30t190.5 72.5t128 134q23 47 27.5 97.5t4.5 99.5t-5 98t-27 96q-41 86 -128 134t-190.5 73t-210 30t-186.5 5q-78 0 -182.5 -5 t-207 -27.5t-188.5 -69t-129 -128.5q-25 -47 -33 -100t-8 -106zM696 1642q0 29 23 51.5t51 22.5q20 0 36.5 -12.5t27.5 -30.5l143 -295q6 -15 6 -31q0 -29 -21.5 -50t-49.5 -21q-45 0 -66 41l-141 294q-8 20 -9 31z" />
<glyph unicode="&#xd5;" horiz-adv-x="1947" d="M0 580q0 127 38 230t140 185q66 53 155 86t186 50.5t194.5 23.5t177.5 6t177 -6t195.5 -23.5t187.5 -50t155 -86.5q102 -82 140 -185t38 -230t-38 -230.5t-140 -187.5q-66 -53 -155 -86t-187.5 -50.5t-195.5 -22.5t-177 -5t-177.5 5t-194.5 22.5t-186 50.5t-155 86 q-102 84 -140 187.5t-38 230.5zM143 580q0 -53 8.5 -107.5t32.5 -101.5q43 -82 129 -128t188.5 -68.5t207 -28t182.5 -5.5q80 0 186.5 5.5t210 30t190.5 72.5t128 134q23 47 27.5 97.5t4.5 99.5t-5 98t-27 96q-41 86 -128 134t-190.5 73t-210 30t-186.5 5q-78 0 -182.5 -5 t-207 -27.5t-188.5 -69t-129 -128.5q-25 -47 -33 -100t-8 -106zM516 1370q0 41 31 62l219 147q18 12 41 12t41 -12l176 -121l179 121q18 12 41 12q29 0 50 -21t21 -50q0 -37 -31 -60l-219 -149q-18 -12 -41 -13q-20 0 -39 13l-178 121l-178 -121q-18 -12 -41 -13 q-29 0 -50.5 21.5t-21.5 50.5z" />
<glyph unicode="&#xd6;" horiz-adv-x="1947" d="M0 580q0 127 38 230t140 185q66 53 155 86t186 50.5t194.5 23.5t177.5 6t177 -6t195.5 -23.5t187.5 -50t155 -86.5q102 -82 140 -185t38 -230t-38 -230.5t-140 -187.5q-66 -53 -155 -86t-187.5 -50.5t-195.5 -22.5t-177 -5t-177.5 5t-194.5 22.5t-186 50.5t-155 86 q-102 84 -140 187.5t-38 230.5zM143 580q0 -53 8.5 -107.5t32.5 -101.5q43 -82 129 -128t188.5 -68.5t207 -28t182.5 -5.5q80 0 186.5 5.5t210 30t190.5 72.5t128 134q23 47 27.5 97.5t4.5 99.5t-5 98t-27 96q-41 86 -128 134t-190.5 73t-210 30t-186.5 5q-78 0 -182.5 -5 t-207 -27.5t-188.5 -69t-129 -128.5q-25 -47 -33 -100t-8 -106zM675 1382q0 35 26 60.5t60 25.5q35 0 62 -25.5t27 -60.5t-27 -61.5t-62 -26.5t-60.5 27t-25.5 61zM921 1382q0 35 25.5 60.5t60.5 25.5t61.5 -25.5t26.5 -60.5t-26.5 -61.5t-61.5 -26.5t-60.5 27t-25.5 61z " />
<glyph unicode="&#xd7;" horiz-adv-x="897" d="M0 291q0 31 20 51l224 223l-224 223q-20 20 -20 52q0 29 21.5 50t50.5 21q31 0 51 -20l223 -223l223 223q20 20 52 20q29 0 50 -21.5t21 -49.5q0 -31 -20 -52l-223 -223l223 -223q20 -20 20 -51q0 -29 -21.5 -51.5t-49.5 -22.5q-29 0 -52 23l-223 223l-223 -223 q-23 -23 -51 -23q-29 0 -50.5 22.5t-21.5 51.5z" />
<glyph unicode="&#xd8;" horiz-adv-x="1988" d="M0 580q0 127 38 230t140 185q66 53 155 86t186 50.5t194.5 23.5t177.5 6h70.5t74.5 -4l72 166q20 45 66 45q29 0 50 -22.5t21 -51.5q0 -16 -6 -28l-53 -123q119 -16 230.5 -49t189.5 -99q102 -82 140 -185t38 -230t-38 -230.5t-140 -187.5q-66 -53 -155 -86t-187.5 -50.5 t-195.5 -22.5t-177 -5q-90 0 -199 6l-61 -143q-20 -43 -68 -43q-29 0 -50 21.5t-21 49.5q0 16 6 29l45 105q-104 16 -199.5 48.5t-165.5 90.5q-102 84 -140 187.5t-38 230.5zM143 580q0 -53 8.5 -107.5t32.5 -101.5q27 -51 72 -87t100.5 -61.5t119 -41t126.5 -23.5l373 858 h-84q-78 0 -182.5 -5t-207 -27.5t-188.5 -69t-129 -128.5q-25 -47 -33 -100t-8 -106zM754 143q37 -2 71.5 -2h65.5q80 0 186.5 5.5t210 30t190.5 72.5t128 134q23 47 27.5 97.5t4.5 99.5t-5 98t-27 96q-27 59 -78 100t-115.5 68t-138.5 42t-148 22z" />
<glyph unicode="&#xd9;" d="M0 571v519q0 29 21.5 51t50.5 22t50 -22.5t21 -50.5v-519q0 -51 6.5 -102t24.5 -98q31 -78 97.5 -123t148.5 -68.5t168 -30t157 -6.5q72 0 158 6.5t168 30t148.5 68.5t97.5 123q18 47 24.5 98t6.5 102v519q0 29 21.5 51t49.5 22q29 0 50.5 -22.5t21.5 -50.5v-519 q0 -176 -59.5 -287.5t-161 -174t-236.5 -86t-289 -23.5t-288.5 23.5t-236 86t-161 174t-59.5 287.5zM593 1642q0 29 23 51.5t51 22.5q20 0 36.5 -12.5t27.5 -30.5l143 -295q6 -15 6 -31q0 -29 -21.5 -50t-49.5 -21q-45 0 -66 41l-141 294q-8 20 -9 31z" />
<glyph unicode="&#xda;" d="M0 571v519q0 29 21.5 51t50.5 22t50 -22.5t21 -50.5v-519q0 -51 6.5 -102t24.5 -98q31 -78 97.5 -123t148.5 -68.5t168 -30t157 -6.5q72 0 158 6.5t168 30t148.5 68.5t97.5 123q18 47 24.5 98t6.5 102v519q0 29 21.5 51t49.5 22q29 0 50.5 -22.5t21.5 -50.5v-519 q0 -176 -59.5 -287.5t-161 -174t-236.5 -86t-289 -23.5t-288.5 23.5t-236 86t-161 174t-59.5 287.5zM675 1327q0 16 7 31l143 295q10 18 26.5 30.5t36.5 12.5q29 0 51.5 -22.5t22.5 -51.5q0 -10 -8 -31l-141 -294q-20 -41 -66 -41q-29 0 -50.5 21.5t-21.5 49.5z" />
<glyph unicode="&#xdb;" d="M0 571v519q0 29 21.5 51t50.5 22t50 -22.5t21 -50.5v-519q0 -51 6.5 -102t24.5 -98q31 -78 97.5 -123t148.5 -68.5t168 -30t157 -6.5q72 0 158 6.5t168 30t148.5 68.5t97.5 123q18 47 24.5 98t6.5 102v519q0 29 21.5 51t49.5 22q29 0 50.5 -22.5t21.5 -50.5v-519 q0 -176 -59.5 -287.5t-161 -174t-236.5 -86t-289 -23.5t-288.5 23.5t-236 86t-161 174t-59.5 287.5zM471 1323q0 33 27 55l198 160q20 16 45 16t45 -16l199 -160q27 -22 27 -55q0 -29 -21.5 -51.5t-50.5 -22.5q-25 0 -45 17l-154 123l-153 -123q-20 -16 -45 -17 q-29 0 -50.5 22.5t-21.5 51.5z" />
<glyph unicode="&#xdc;" d="M0 571v519q0 29 21.5 51t50.5 22t50 -22.5t21 -50.5v-519q0 -51 6.5 -102t24.5 -98q31 -78 97.5 -123t148.5 -68.5t168 -30t157 -6.5q72 0 158 6.5t168 30t148.5 68.5t97.5 123q18 47 24.5 98t6.5 102v519q0 29 21.5 51t49.5 22q29 0 50.5 -22.5t21.5 -50.5v-519 q0 -176 -59.5 -287.5t-161 -174t-236.5 -86t-289 -23.5t-288.5 23.5t-236 86t-161 174t-59.5 287.5zM532 1382q0 35 26 60.5t60 25.5q35 0 62 -25.5t27 -60.5t-27 -61.5t-62 -26.5t-60.5 27t-25.5 61zM778 1382q0 35 25.5 60.5t60.5 25.5t61.5 -25.5t26.5 -60.5t-26.5 -61.5 t-61.5 -26.5t-60.5 27t-25.5 61z" />
<glyph unicode="&#xdd;" d="M0 909v181q0 29 21.5 51t50.5 22t50 -22.5t21 -50.5v-181q0 -51 5.5 -102t25.5 -98q33 -78 99.5 -123t147.5 -67.5t167 -29t157 -6.5q72 0 158 6.5t167 29t147.5 67.5t99.5 123q20 47 25.5 98t5.5 102v181q0 29 21.5 51t49.5 22q29 0 50.5 -22.5t21.5 -50.5v-181 q0 -162 -50 -269.5t-140.5 -172t-214 -93t-269.5 -34.5v-268q0 -29 -21.5 -50.5t-50.5 -21.5t-50 21.5t-21 50.5v268q-145 6 -269 34.5t-214.5 93t-140.5 172.5t-50 269zM634 1204q0 16 7 31l143 295q10 18 26.5 30.5t36.5 12.5q29 0 51.5 -22.5t22.5 -51.5q0 -10 -8 -31 l-141 -294q-20 -41 -66 -41q-29 0 -50.5 21.5t-21.5 49.5z" />
<glyph unicode="&#xde;" horiz-adv-x="1753" d="M0 72v1018q0 29 21.5 51t50.5 22t50 -22.5t21 -50.5v-168h926q84 0 170 -11.5t154.5 -46.5t111.5 -98.5t43 -169.5t-43 -171t-111.5 -99.5t-154.5 -46t-170 -11.5h-926v-196q0 -29 -21.5 -50.5t-49.5 -21.5q-29 0 -50.5 21.5t-21.5 50.5zM143 412h926q51 0 109.5 3 t108.5 20.5t83 55t33 105.5q0 27 -4 51.5t-21 46.5q-20 31 -59 48.5t-84 24.5t-89 9t-77 2h-926v-366z" />
<glyph unicode="&#xdf;" horiz-adv-x="1736" d="M0 -104q0 29 16.5 44t35 30.5t34.5 38t16 61.5v753q0 98 40 162t104.5 102.5t146.5 54t166 15.5t169 -11t153.5 -47t111.5 -99.5t43 -168.5q0 -80 -29.5 -145t-97.5 -108q74 -47 102.5 -121t28.5 -158q0 -25 4.5 -52.5t14.5 -51t30.5 -38t51.5 -14.5h596q14 0 35.5 1 t43 5.5t41 12.5t29.5 22q14 20 32.5 28.5t31.5 8.5q29 0 50 -21t21 -50q0 -18 -8 -35q-4 -10 -13 -20.5t-18 -16.5q-49 -45 -114.5 -61.5t-130.5 -16.5h-596q-59 0 -108.5 23.5t-84.5 74.5q-37 -35 -84 -55t-98 -30.5t-104.5 -13.5t-102.5 -3h-162q-29 0 -51 22.5t-22 51.5 t22.5 50t50.5 21h162q51 0 109.5 3t108.5 20.5t83 54.5t33 105t-31 103.5t-78 53t-103 20.5t-108 3h-163q-29 0 -50.5 22.5t-21.5 51.5t21.5 50t50.5 21h149q51 0 109.5 3t108.5 20.5t83 54.5t33 104q0 68 -34 104t-84 53.5t-108.5 20.5t-107.5 3q-51 0 -105.5 -5.5 t-100.5 -24.5t-75.5 -57t-29.5 -102v-753q0 -70 -39 -138.5t-105 -99.5q-8 -4 -15 -6t-17 -2q-29 0 -50.5 21.5t-21.5 50.5z" />
<glyph unicode="&#xe0;" horiz-adv-x="1890" d="M82 317q0 104 42 167t109.5 96.5t151.5 45t166 11.5q84 0 177 -12.5t167 -59.5q0 18 3 39t10 36t22.5 25.5t40.5 10.5q29 0 50 -21.5t21 -50.5q0 -23 -2 -46t-2 -46q0 -45 6.5 -108.5t26 -122t56 -98.5t98.5 -40h665q14 0 36 1t43.5 5.5t41 12.5t29.5 22q14 20 32.5 28.5 t30.5 8.5q29 0 50.5 -21t21.5 -50q0 -18 -8 -35q-4 -10 -13.5 -20.5t-17.5 -16.5q-49 -45 -114.5 -61.5t-131.5 -16.5h-665q-166 0 -252 145q-33 -49 -83 -77.5t-107.5 -44t-118 -19.5t-113.5 -4q-82 0 -166 10t-151.5 44t-109.5 96.5t-42 166.5zM225 317q0 -20 2 -38.5 t11 -36.5q16 -35 55 -55.5t86 -30t93 -11.5t79 -2q31 0 76 2t90 10.5t84 27t57 48.5q12 20 14 41.5t2 44.5t-2 44.5t-14 41.5q-18 31 -57 49.5t-84 26.5t-90 10.5t-76 2.5q-33 0 -79 -2.5t-93 -11.5t-86 -29.5t-55 -55.5q-8 -18 -10.5 -36.5t-2.5 -39.5zM348 1151 q0 29 22.5 51.5t51.5 22.5q20 0 36.5 -12.5t26.5 -30.5l144 -295q6 -15 6 -31q0 -29 -21.5 -50.5t-50.5 -21.5q-45 0 -65 41l-142 295q-8 20 -8 31z" />
<glyph unicode="&#xe1;" horiz-adv-x="1890" d="M82 317q0 104 42 167t109.5 96.5t151.5 45t166 11.5q84 0 177 -12.5t167 -59.5q0 18 3 39t10 36t22.5 25.5t40.5 10.5q29 0 50 -21.5t21 -50.5q0 -23 -2 -46t-2 -46q0 -45 6.5 -108.5t26 -122t56 -98.5t98.5 -40h665q14 0 36 1t43.5 5.5t41 12.5t29.5 22q14 20 32.5 28.5 t30.5 8.5q29 0 50.5 -21t21.5 -50q0 -18 -8 -35q-4 -10 -13.5 -20.5t-17.5 -16.5q-49 -45 -114.5 -61.5t-131.5 -16.5h-665q-166 0 -252 145q-33 -49 -83 -77.5t-107.5 -44t-118 -19.5t-113.5 -4q-82 0 -166 10t-151.5 44t-109.5 96.5t-42 166.5zM225 317q0 -20 2 -38.5 t11 -36.5q16 -35 55 -55.5t86 -30t93 -11.5t79 -2q31 0 76 2t90 10.5t84 27t57 48.5q12 20 14 41.5t2 44.5t-2 44.5t-14 41.5q-18 31 -57 49.5t-84 26.5t-90 10.5t-76 2.5q-33 0 -79 -2.5t-93 -11.5t-86 -29.5t-55 -55.5q-8 -18 -10.5 -36.5t-2.5 -39.5zM475 860q0 16 7 31 l143 295q10 18 26.5 30.5t36.5 12.5q29 0 51.5 -22.5t22.5 -51.5q0 -10 -8 -31l-141 -294q-20 -41 -66 -41q-29 0 -50.5 21.5t-21.5 49.5z" />
<glyph unicode="&#xe2;" horiz-adv-x="1890" d="M82 317q0 104 42 167t109.5 96.5t151.5 45t166 11.5q84 0 177 -12.5t167 -59.5q0 18 3 39t10 36t22.5 25.5t40.5 10.5q29 0 50 -21.5t21 -50.5q0 -23 -2 -46t-2 -46q0 -45 6.5 -108.5t26 -122t56 -98.5t98.5 -40h665q14 0 36 1t43.5 5.5t41 12.5t29.5 22q14 20 32.5 28.5 t30.5 8.5q29 0 50.5 -21t21.5 -50q0 -18 -8 -35q-4 -10 -13.5 -20.5t-17.5 -16.5q-49 -45 -114.5 -61.5t-131.5 -16.5h-665q-166 0 -252 145q-33 -49 -83 -77.5t-107.5 -44t-118 -19.5t-113.5 -4q-82 0 -166 10t-151.5 44t-109.5 96.5t-42 166.5zM225 317q0 -20 2 -38.5 t11 -36.5q16 -35 55 -55.5t86 -30t93 -11.5t79 -2q31 0 76 2t90 10.5t84 27t57 48.5q12 20 14 41.5t2 44.5t-2 44.5t-14 41.5q-18 31 -57 49.5t-84 26.5t-90 10.5t-76 2.5q-33 0 -79 -2.5t-93 -11.5t-86 -29.5t-55 -55.5q-8 -18 -10.5 -36.5t-2.5 -39.5zM290 897q0 33 27 55 l199 160q20 16 45 16t45 -16l199 -160q26 -22 26 -55q0 -29 -21.5 -51.5t-50.5 -22.5q-25 0 -45 16l-153 123l-154 -123q-20 -16 -45 -16q-29 0 -50.5 22.5t-21.5 51.5z" />
<glyph unicode="&#xe3;" horiz-adv-x="1890" d="M82 317q0 104 42 167t109.5 96.5t151.5 45t166 11.5q84 0 177 -12.5t167 -59.5q0 18 3 39t10 36t22.5 25.5t40.5 10.5q29 0 50 -21.5t21 -50.5q0 -23 -2 -46t-2 -46q0 -45 6.5 -108.5t26 -122t56 -98.5t98.5 -40h665q14 0 36 1t43.5 5.5t41 12.5t29.5 22q14 20 32.5 28.5 t30.5 8.5q29 0 50.5 -21t21.5 -50q0 -18 -8 -35q-4 -10 -13.5 -20.5t-17.5 -16.5q-49 -45 -114.5 -61.5t-131.5 -16.5h-665q-166 0 -252 145q-33 -49 -83 -77.5t-107.5 -44t-118 -19.5t-113.5 -4q-82 0 -166 10t-151.5 44t-109.5 96.5t-42 166.5zM188 964q0 41 31 62 l219 147q18 12 41 12t41 -12l176 -121l179 121q18 12 41 12q29 0 50 -21t21 -50q0 -37 -31 -60l-219 -149q-18 -12 -41 -13q-20 0 -39 13l-178 121l-178 -121q-18 -12 -41 -13q-29 0 -50.5 21.5t-21.5 50.5zM225 317q0 -20 2 -38.5t11 -36.5q16 -35 55 -55.5t86 -30 t93 -11.5t79 -2q31 0 76 2t90 10.5t84 27t57 48.5q12 20 14 41.5t2 44.5t-2 44.5t-14 41.5q-18 31 -57 49.5t-84 26.5t-90 10.5t-76 2.5q-33 0 -79 -2.5t-93 -11.5t-86 -29.5t-55 -55.5q-8 -18 -10.5 -36.5t-2.5 -39.5z" />
<glyph unicode="&#xe4;" horiz-adv-x="1890" d="M82 317q0 104 42 167t109.5 96.5t151.5 45t166 11.5q84 0 177 -12.5t167 -59.5q0 18 3 39t10 36t22.5 25.5t40.5 10.5q29 0 50 -21.5t21 -50.5q0 -23 -2 -46t-2 -46q0 -45 6.5 -108.5t26 -122t56 -98.5t98.5 -40h665q14 0 36 1t43.5 5.5t41 12.5t29.5 22q14 20 32.5 28.5 t30.5 8.5q29 0 50.5 -21t21.5 -50q0 -18 -8 -35q-4 -10 -13.5 -20.5t-17.5 -16.5q-49 -45 -114.5 -61.5t-131.5 -16.5h-665q-166 0 -252 145q-33 -49 -83 -77.5t-107.5 -44t-118 -19.5t-113.5 -4q-82 0 -166 10t-151.5 44t-109.5 96.5t-42 166.5zM225 317q0 -20 2 -38.5 t11 -36.5q16 -35 55 -55.5t86 -30t93 -11.5t79 -2q31 0 76 2t90 10.5t84 27t57 48.5q12 20 14 41.5t2 44.5t-2 44.5t-14 41.5q-18 31 -57 49.5t-84 26.5t-90 10.5t-76 2.5q-33 0 -79 -2.5t-93 -11.5t-86 -29.5t-55 -55.5q-8 -18 -10.5 -36.5t-2.5 -39.5zM328 973 q0 35 25.5 60.5t60.5 25.5t61.5 -25.5t26.5 -60.5t-26.5 -61.5t-61.5 -26.5t-60.5 26.5t-25.5 61.5zM573 973q0 35 26 60.5t60 25.5q35 0 62 -25.5t27 -60.5t-27 -61.5t-62 -26.5t-60.5 26.5t-25.5 61.5z" />
<glyph unicode="&#xe5;" horiz-adv-x="1890" d="M82 317q0 104 42 167t109.5 96.5t151.5 45t166 11.5q84 0 177 -12.5t167 -59.5q0 18 3 39t10 36t22.5 25.5t40.5 10.5q29 0 50 -21.5t21 -50.5q0 -23 -2 -46t-2 -46q0 -45 6.5 -108.5t26 -122t56 -98.5t98.5 -40h665q14 0 36 1t43.5 5.5t41 12.5t29.5 22q14 20 32.5 28.5 t30.5 8.5q29 0 50.5 -21t21.5 -50q0 -18 -8 -35q-4 -10 -13.5 -20.5t-17.5 -16.5q-49 -45 -114.5 -61.5t-131.5 -16.5h-665q-166 0 -252 145q-33 -49 -83 -77.5t-107.5 -44t-118 -19.5t-113.5 -4q-82 0 -166 10t-151.5 44t-109.5 96.5t-42 166.5zM225 317q0 -20 2 -38.5 t11 -36.5q16 -35 55 -55.5t86 -30t93 -11.5t79 -2q31 0 76 2t90 10.5t84 27t57 48.5q12 20 14 41.5t2 44.5t-2 44.5t-14 41.5q-18 31 -57 49.5t-84 26.5t-90 10.5t-76 2.5q-33 0 -79 -2.5t-93 -11.5t-86 -29.5t-55 -55.5q-8 -18 -10.5 -36.5t-2.5 -39.5zM328 1075 q0 49 18.5 93t51 77t76.5 51.5t93 18.5t93.5 -18.5t77 -51.5t52 -77t19.5 -93t-19.5 -93t-52 -77t-77 -52t-93.5 -19t-93 19t-76.5 52t-51 77t-18.5 93zM471 1075q0 -41 27.5 -68.5t68.5 -27.5t69 27.5t28 68.5t-28 68.5t-69 27.5t-68.5 -27.5t-27.5 -68.5z" />
<glyph unicode="&#xe7;" horiz-adv-x="1599" d="M82 317q0 104 42 167t109.5 96.5t151.5 45t166 11.5q61 0 138 -3t144.5 -24.5t113.5 -67.5t46 -132q0 -29 -22.5 -50.5t-50.5 -21.5q-29 0 -50.5 21.5t-21.5 50.5q0 37 -38 54t-88 23.5t-99.5 5.5t-71.5 -1q-31 0 -77 -2.5t-91 -11.5t-84 -27.5t-57 -51.5 q-10 -18 -13.5 -38.5t-3.5 -43.5t3 -43t14 -38q18 -33 57 -51.5t84 -28t91 -11.5t77 -2h1048q14 0 36 1t43.5 5.5t41 12.5t29.5 22q14 20 32.5 28.5t30.5 8.5q29 0 50.5 -21t21.5 -50q0 -18 -8 -35q-4 -10 -13.5 -20.5t-17.5 -16.5q-49 -45 -114.5 -61.5t-131.5 -16.5h-1048 q-82 0 -166 10t-151.5 44t-109.5 96.5t-42 166.5zM249 -260q0 57 19.5 97t53.5 66.5t78 41t95 18.5q0 18 1 40t7.5 39t21.5 28.5t42 11.5q29 0 50.5 -21.5t21.5 -50.5v-116q0 -35 -18.5 -50.5t-45.5 -20.5t-59.5 -5t-59 -6.5t-45 -21.5t-18.5 -50q0 -10 1 -19.5t7 -19.5 q10 -16 30.5 -24.5t46 -11.5t50.5 -4t39 -1h34.5t47 1t45 5t29.5 12v7q0 29 22.5 50t50.5 21q29 0 50.5 -21t21.5 -50q0 -61 -29.5 -95t-75 -50.5t-98.5 -19.5t-98 -3q-57 0 -114.5 8t-102.5 32.5t-73 67.5t-28 115z" />
<glyph unicode="&#xe8;" horiz-adv-x="1579" d="M82 317q0 104 42 167t109.5 96.5t151.5 45t166 11.5q61 0 138 -3t144.5 -24.5t113.5 -67.5t46 -132q0 -27 -17.5 -46.5t-43 -34t-53 -23.5t-48.5 -15q-111 -39 -223 -71t-227 -62q41 -8 84 -11.5t86 -3.5h1028q14 0 35.5 1t43 5.5t41 12.5t30.5 22q14 20 32.5 28.5 t30.5 8.5q29 0 50.5 -21t21.5 -50q0 -18 -9 -35q-4 -10 -13 -20.5t-17 -16.5q-49 -45 -114.5 -61.5t-131.5 -16.5h-1028q-82 0 -166 10t-151.5 44t-109.5 96.5t-42 166.5zM225 317q0 -27 6 -51q92 25 183.5 49.5t183.5 53.5q59 16 119 34t119 41q-16 20 -54.5 29.5t-82.5 14 t-85 4.5h-63q-31 0 -77 -2.5t-91 -11.5t-84 -26.5t-57 -50.5q-10 -20 -13.5 -40.5t-3.5 -43.5zM348 1151q0 29 22.5 51.5t51.5 22.5q20 0 36.5 -12.5t26.5 -30.5l144 -295q6 -15 6 -31q0 -29 -21.5 -50.5t-50.5 -21.5q-45 0 -65 41l-142 295q-8 20 -8 31z" />
<glyph unicode="&#xe9;" horiz-adv-x="1579" d="M82 317q0 104 42 167t109.5 96.5t151.5 45t166 11.5q61 0 138 -3t144.5 -24.5t113.5 -67.5t46 -132q0 -27 -17.5 -46.5t-43 -34t-53 -23.5t-48.5 -15q-111 -39 -223 -71t-227 -62q41 -8 84 -11.5t86 -3.5h1028q14 0 35.5 1t43 5.5t41 12.5t30.5 22q14 20 32.5 28.5 t30.5 8.5q29 0 50.5 -21t21.5 -50q0 -18 -9 -35q-4 -10 -13 -20.5t-17 -16.5q-49 -45 -114.5 -61.5t-131.5 -16.5h-1028q-82 0 -166 10t-151.5 44t-109.5 96.5t-42 166.5zM225 317q0 -27 6 -51q92 25 183.5 49.5t183.5 53.5q59 16 119 34t119 41q-16 20 -54.5 29.5t-82.5 14 t-85 4.5h-63q-31 0 -77 -2.5t-91 -11.5t-84 -26.5t-57 -50.5q-10 -20 -13.5 -40.5t-3.5 -43.5zM475 860q0 16 7 31l143 295q10 18 26.5 30.5t36.5 12.5q29 0 51.5 -22.5t22.5 -51.5q0 -10 -8 -31l-141 -294q-20 -41 -66 -41q-29 0 -50.5 21.5t-21.5 49.5z" />
<glyph unicode="&#xea;" horiz-adv-x="1579" d="M82 317q0 104 42 167t109.5 96.5t151.5 45t166 11.5q61 0 138 -3t144.5 -24.5t113.5 -67.5t46 -132q0 -27 -17.5 -46.5t-43 -34t-53 -23.5t-48.5 -15q-111 -39 -223 -71t-227 -62q41 -8 84 -11.5t86 -3.5h1028q14 0 35.5 1t43 5.5t41 12.5t30.5 22q14 20 32.5 28.5 t30.5 8.5q29 0 50.5 -21t21.5 -50q0 -18 -9 -35q-4 -10 -13 -20.5t-17 -16.5q-49 -45 -114.5 -61.5t-131.5 -16.5h-1028q-82 0 -166 10t-151.5 44t-109.5 96.5t-42 166.5zM225 317q0 -27 6 -51q92 25 183.5 49.5t183.5 53.5q59 16 119 34t119 41q-16 20 -54.5 29.5t-82.5 14 t-85 4.5h-63q-31 0 -77 -2.5t-91 -11.5t-84 -26.5t-57 -50.5q-10 -20 -13.5 -40.5t-3.5 -43.5zM290 897q0 33 27 55l199 160q20 16 45 16t45 -16l199 -160q26 -22 26 -55q0 -29 -21.5 -51.5t-50.5 -22.5q-25 0 -45 16l-153 123l-154 -123q-20 -16 -45 -16q-29 0 -50.5 22.5 t-21.5 51.5z" />
<glyph unicode="&#xeb;" horiz-adv-x="1579" d="M82 317q0 104 42 167t109.5 96.5t151.5 45t166 11.5q61 0 138 -3t144.5 -24.5t113.5 -67.5t46 -132q0 -27 -17.5 -46.5t-43 -34t-53 -23.5t-48.5 -15q-111 -39 -223 -71t-227 -62q41 -8 84 -11.5t86 -3.5h1028q14 0 35.5 1t43 5.5t41 12.5t30.5 22q14 20 32.5 28.5 t30.5 8.5q29 0 50.5 -21t21.5 -50q0 -18 -9 -35q-4 -10 -13 -20.5t-17 -16.5q-49 -45 -114.5 -61.5t-131.5 -16.5h-1028q-82 0 -166 10t-151.5 44t-109.5 96.5t-42 166.5zM225 317q0 -27 6 -51q92 25 183.5 49.5t183.5 53.5q59 16 119 34t119 41q-16 20 -54.5 29.5t-82.5 14 t-85 4.5h-63q-31 0 -77 -2.5t-91 -11.5t-84 -26.5t-57 -50.5q-10 -20 -13.5 -40.5t-3.5 -43.5zM328 973q0 35 25.5 60.5t60.5 25.5t61.5 -25.5t26.5 -60.5t-26.5 -61.5t-61.5 -26.5t-60.5 26.5t-25.5 61.5zM573 973q0 35 26 60.5t60 25.5q35 0 62 -25.5t27 -60.5t-27 -61.5 t-62 -26.5t-60.5 26.5t-25.5 61.5z" />
<glyph unicode="&#xec;" horiz-adv-x="1380" d="M-61 72q0 29 21.5 50t49.5 21q80 0 129 41t75 102.5t35 133.5t9 133q0 35 17.5 59.5t56.5 24.5t55 -25.5t16 -58.5q0 -78 17.5 -151.5t55.5 -131t99.5 -92.5t149.5 -35h655q14 0 36 1t43.5 5.5t41 12.5t29.5 22q14 20 32.5 28.5t30.5 8.5q29 0 50.5 -21t21.5 -50 q0 -18 -8 -35q-4 -10 -13.5 -20.5t-17.5 -16.5q-49 -45 -114.5 -61.5t-131.5 -16.5h-655q-127 0 -225.5 53t-159.5 164q-47 -104 -130 -160.5t-200 -56.5q-29 0 -50 21.5t-21 50.5zM123 1151q0 29 22.5 51.5t51.5 22.5q20 0 36.5 -12.5t26.5 -30.5l143 -295q7 -15 7 -31 q0 -29 -21.5 -50.5t-50.5 -21.5q-45 0 -66 41l-141 295q-8 20 -8 31z" />
<glyph unicode="&#xed;" horiz-adv-x="1380" d="M-61 72q0 29 21.5 50t49.5 21q80 0 129 41t75 102.5t35 133.5t9 133q0 35 17.5 59.5t56.5 24.5t55 -25.5t16 -58.5q0 -78 17.5 -151.5t55.5 -131t99.5 -92.5t149.5 -35h655q14 0 36 1t43.5 5.5t41 12.5t29.5 22q14 20 32.5 28.5t30.5 8.5q29 0 50.5 -21t21.5 -50 q0 -18 -8 -35q-4 -10 -13.5 -20.5t-17.5 -16.5q-49 -45 -114.5 -61.5t-131.5 -16.5h-655q-127 0 -225.5 53t-159.5 164q-47 -104 -130 -160.5t-200 -56.5q-29 0 -50 21.5t-21 50.5zM270 860q0 16 7 31l143 295q10 18 26.5 30.5t36.5 12.5q29 0 51.5 -22.5t22.5 -51.5 q0 -10 -8 -31l-141 -294q-20 -41 -66 -41q-29 0 -50.5 21.5t-21.5 49.5z" />
<glyph unicode="&#xee;" horiz-adv-x="1380" d="M-61 72q0 29 21.5 50t49.5 21q80 0 129 41t75 102.5t35 133.5t9 133q0 35 17.5 59.5t56.5 24.5t55 -25.5t16 -58.5q0 -78 17.5 -151.5t55.5 -131t99.5 -92.5t149.5 -35h655q14 0 36 1t43.5 5.5t41 12.5t29.5 22q14 20 32.5 28.5t30.5 8.5q29 0 50.5 -21t21.5 -50 q0 -18 -8 -35q-4 -10 -13.5 -20.5t-17.5 -16.5q-49 -45 -114.5 -61.5t-131.5 -16.5h-655q-127 0 -225.5 53t-159.5 164q-47 -104 -130 -160.5t-200 -56.5q-29 0 -50 21.5t-21 50.5zM65 897q0 33 27 55l199 160q20 16 45 16t45 -16l199 -160q26 -22 26 -55q0 -29 -21.5 -51.5 t-50.5 -22.5q-25 0 -45 16l-153 123l-154 -123q-20 -16 -45 -16q-29 0 -50.5 22.5t-21.5 51.5z" />
<glyph unicode="&#xef;" horiz-adv-x="1380" d="M-61 72q0 29 21.5 50t49.5 21q80 0 129 41t75 102.5t35 133.5t9 133q0 35 17.5 59.5t56.5 24.5t55 -25.5t16 -58.5q0 -78 17.5 -151.5t55.5 -131t99.5 -92.5t149.5 -35h655q14 0 36 1t43.5 5.5t41 12.5t29.5 22q14 20 32.5 28.5t30.5 8.5q29 0 50.5 -21t21.5 -50 q0 -18 -8 -35q-4 -10 -13.5 -20.5t-17.5 -16.5q-49 -45 -114.5 -61.5t-131.5 -16.5h-655q-127 0 -225.5 53t-159.5 164q-47 -104 -130 -160.5t-200 -56.5q-29 0 -50 21.5t-21 50.5zM123 973q0 35 25.5 60.5t60.5 25.5t61.5 -25.5t26.5 -60.5t-26.5 -61.5t-61.5 -26.5 t-60.5 26.5t-25.5 61.5zM369 973q0 35 25.5 60.5t60.5 25.5t61.5 -25.5t26.5 -60.5t-27 -61.5t-61 -26.5q-35 0 -60.5 26.5t-25.5 61.5z" />
<glyph unicode="&#xf0;" horiz-adv-x="1284" d="M82 317q0 104 42 167t109.5 96.5t151.5 45t166 11.5q47 0 98 -3t102.5 -13.5t97.5 -30t83 -51.5q2 23 2 46v46q0 37 -1 72.5t-3 72.5h-385q-29 0 -50.5 22.5t-21.5 51.5t21.5 50.5t50.5 21.5h370q-8 78 -24 155v13q0 29 21.5 51t50.5 22t46 -16.5t25 -42.5 q10 -29 13.5 -62.5t7.5 -62.5q2 -14 3 -28.5t5 -28.5h258q29 0 50.5 -21.5t21.5 -50.5t-21.5 -51.5t-50.5 -22.5h-246q2 -35 3 -70.5t1 -70.5q0 -59 -5 -129t-18.5 -138.5t-37 -133t-62.5 -113.5q-4 -6 -9 -9t-9 -8q-84 -70 -182.5 -87t-204.5 -17q-82 0 -166 10t-151.5 44 t-109.5 96.5t-42 166.5zM225 317q0 -23 3 -44t16 -42q18 -31 57 -49t84 -26.5t90 -10.5t76 -2q33 0 79 2t92 11.5t85 30t55 55.5q8 18 10 36.5t2 38.5t-2 39t-10 37q-16 35 -55 55.5t-85 29.5t-92 11.5t-79 2.5q-31 0 -76 -2.5t-90 -10.5t-84 -26.5t-57 -49.5 q-12 -20 -15.5 -41.5t-3.5 -44.5z" />
<glyph unicode="&#xf1;" horiz-adv-x="1771" d="M184 72v493q0 29 21.5 50.5t50.5 21.5q27 0 46.5 -16.5t25.5 -40.5q66 35 146.5 46t154.5 11q84 0 162.5 -12.5t142 -46t101.5 -95t38 -159.5v-25q0 -27 4 -54.5t14.5 -50t30 -37t52.5 -14.5h598q14 0 35.5 1t43 5.5t41 12.5t29.5 22q14 20 32.5 28.5t31.5 8.5 q29 0 50 -21t21 -50q0 -18 -8 -35q-4 -10 -13.5 -20.5t-17.5 -16.5q-49 -45 -114.5 -61.5t-130.5 -16.5h-598q-63 0 -110.5 24.5t-77.5 66.5t-44 95.5t-14 110.5q0 6 1 14t1 15q0 20 -3 40.5t-14 39.5q-16 31 -52 48t-77 25t-83 10.5t-72 2.5q-31 0 -74 -2.5t-85 -10.5 t-77 -26.5t-51 -51.5q-10 -20 -12 -40.5t-2 -43.5v-245q0 -29 -21.5 -50.5t-50.5 -21.5t-50.5 21.5t-21.5 50.5zM249 964q0 41 31 62l219 147q18 12 41 12t41 -12l176 -121l179 121q18 12 41 12q29 0 50 -21t21 -50q0 -37 -31 -60l-219 -149q-18 -12 -41 -13q-20 0 -39 13 l-178 121l-178 -121q-18 -12 -41 -13q-29 0 -50.5 21.5t-21.5 50.5z" />
<glyph unicode="&#xf2;" horiz-adv-x="1767" d="M82 317q0 104 42 167t109.5 96.5t151.5 45t166 11.5q80 0 165 -10.5t156 -46.5q47 35 104.5 46t115.5 11h829q29 0 50.5 -21.5t21.5 -50.5t-21.5 -51t-50.5 -22h-829q-29 0 -55.5 -3.5t-53.5 -13.5q20 -35 28.5 -76t8.5 -82q0 -104 -42 -166.5t-109.5 -96.5t-150.5 -44 t-167 -10q-82 0 -166 10t-151.5 44t-109.5 96.5t-42 166.5zM225 317q0 -20 2 -38.5t11 -36.5q16 -35 55 -55.5t86 -30t93 -11.5t79 -2t79 2t92 11.5t85 30t55 55.5q8 18 10 36.5t2 38.5q0 37 -6 60.5t-32 52.5q-20 20 -57.5 32.5t-79.5 18.5t-81.5 8.5t-66.5 2.5 q-33 0 -79 -2.5t-93 -11.5t-86 -29.5t-55 -55.5q-8 -18 -10.5 -36.5t-2.5 -39.5zM348 1151q0 29 22.5 51.5t51.5 22.5q20 0 36.5 -12.5t26.5 -30.5l144 -295q6 -15 6 -31q0 -29 -21.5 -50.5t-50.5 -21.5q-45 0 -65 41l-142 295q-8 20 -8 31z" />
<glyph unicode="&#xf3;" horiz-adv-x="1767" d="M82 317q0 104 42 167t109.5 96.5t151.5 45t166 11.5q80 0 165 -10.5t156 -46.5q47 35 104.5 46t115.5 11h829q29 0 50.5 -21.5t21.5 -50.5t-21.5 -51t-50.5 -22h-829q-29 0 -55.5 -3.5t-53.5 -13.5q20 -35 28.5 -76t8.5 -82q0 -104 -42 -166.5t-109.5 -96.5t-150.5 -44 t-167 -10q-82 0 -166 10t-151.5 44t-109.5 96.5t-42 166.5zM225 317q0 -20 2 -38.5t11 -36.5q16 -35 55 -55.5t86 -30t93 -11.5t79 -2t79 2t92 11.5t85 30t55 55.5q8 18 10 36.5t2 38.5q0 37 -6 60.5t-32 52.5q-20 20 -57.5 32.5t-79.5 18.5t-81.5 8.5t-66.5 2.5 q-33 0 -79 -2.5t-93 -11.5t-86 -29.5t-55 -55.5q-8 -18 -10.5 -36.5t-2.5 -39.5zM475 860q0 16 7 31l143 295q10 18 26.5 30.5t36.5 12.5q29 0 51.5 -22.5t22.5 -51.5q0 -10 -8 -31l-141 -294q-20 -41 -66 -41q-29 0 -50.5 21.5t-21.5 49.5z" />
<glyph unicode="&#xf4;" horiz-adv-x="1767" d="M82 317q0 104 42 167t109.5 96.5t151.5 45t166 11.5q80 0 165 -10.5t156 -46.5q47 35 104.5 46t115.5 11h829q29 0 50.5 -21.5t21.5 -50.5t-21.5 -51t-50.5 -22h-829q-29 0 -55.5 -3.5t-53.5 -13.5q20 -35 28.5 -76t8.5 -82q0 -104 -42 -166.5t-109.5 -96.5t-150.5 -44 t-167 -10q-82 0 -166 10t-151.5 44t-109.5 96.5t-42 166.5zM225 317q0 -20 2 -38.5t11 -36.5q16 -35 55 -55.5t86 -30t93 -11.5t79 -2t79 2t92 11.5t85 30t55 55.5q8 18 10 36.5t2 38.5q0 37 -6 60.5t-32 52.5q-20 20 -57.5 32.5t-79.5 18.5t-81.5 8.5t-66.5 2.5 q-33 0 -79 -2.5t-93 -11.5t-86 -29.5t-55 -55.5q-8 -18 -10.5 -36.5t-2.5 -39.5zM270 897q0 33 27 55l199 160q20 16 45 16t45 -16l199 -160q26 -22 26 -55q0 -29 -21.5 -51.5t-50.5 -22.5q-25 0 -45 16l-153 123l-154 -123q-20 -16 -45 -16q-29 0 -50.5 22.5t-21.5 51.5z " />
<glyph unicode="&#xf5;" horiz-adv-x="1767" d="M82 317q0 104 42 167t109.5 96.5t151.5 45t166 11.5q80 0 165 -10.5t156 -46.5q47 35 104.5 46t115.5 11h829q29 0 50.5 -21.5t21.5 -50.5t-21.5 -51t-50.5 -22h-829q-29 0 -55.5 -3.5t-53.5 -13.5q20 -35 28.5 -76t8.5 -82q0 -104 -42 -166.5t-109.5 -96.5t-150.5 -44 t-167 -10q-82 0 -166 10t-151.5 44t-109.5 96.5t-42 166.5zM208 964q0 41 31 62l219 147q18 12 41 12t41 -12l176 -121l179 121q18 12 41 12q29 0 50 -21t21 -50q0 -37 -31 -60l-219 -149q-18 -12 -41 -13q-20 0 -39 13l-178 121l-178 -121q-18 -12 -41 -13 q-29 0 -50.5 21.5t-21.5 50.5zM225 317q0 -20 2 -38.5t11 -36.5q16 -35 55 -55.5t86 -30t93 -11.5t79 -2t79 2t92 11.5t85 30t55 55.5q8 18 10 36.5t2 38.5q0 37 -6 60.5t-32 52.5q-20 20 -57.5 32.5t-79.5 18.5t-81.5 8.5t-66.5 2.5q-33 0 -79 -2.5t-93 -11.5t-86 -29.5 t-55 -55.5q-8 -18 -10.5 -36.5t-2.5 -39.5z" />
<glyph unicode="&#xf6;" horiz-adv-x="1767" d="M82 317q0 104 42 167t109.5 96.5t151.5 45t166 11.5q80 0 165 -10.5t156 -46.5q47 35 104.5 46t115.5 11h829q29 0 50.5 -21.5t21.5 -50.5t-21.5 -51t-50.5 -22h-829q-29 0 -55.5 -3.5t-53.5 -13.5q20 -35 28.5 -76t8.5 -82q0 -104 -42 -166.5t-109.5 -96.5t-150.5 -44 t-167 -10q-82 0 -166 10t-151.5 44t-109.5 96.5t-42 166.5zM225 317q0 -20 2 -38.5t11 -36.5q16 -35 55 -55.5t86 -30t93 -11.5t79 -2t79 2t92 11.5t85 30t55 55.5q8 18 10 36.5t2 38.5q0 37 -6 60.5t-32 52.5q-20 20 -57.5 32.5t-79.5 18.5t-81.5 8.5t-66.5 2.5 q-33 0 -79 -2.5t-93 -11.5t-86 -29.5t-55 -55.5q-8 -18 -10.5 -36.5t-2.5 -39.5zM328 973q0 35 25.5 60.5t60.5 25.5t61.5 -25.5t26.5 -60.5t-26.5 -61.5t-61.5 -26.5t-60.5 26.5t-25.5 61.5zM573 973q0 35 26 60.5t60 25.5q35 0 62 -25.5t27 -60.5t-27 -61.5t-62 -26.5 t-60.5 26.5t-25.5 61.5z" />
<glyph unicode="&#xf7;" horiz-adv-x="1124" d="M0 565q0 29 21.5 50.5t50.5 21.5h776q29 0 50.5 -21.5t21.5 -50.5t-21.5 -51t-50.5 -22h-776q-29 0 -50.5 22.5t-21.5 50.5zM373 317q0 35 26.5 62t61.5 27t60.5 -27t25.5 -62t-25.5 -60.5t-60.5 -25.5t-61.5 26t-26.5 60zM373 811q0 35 26.5 60.5t61.5 25.5t60.5 -25.5 t25.5 -60.5t-25.5 -60.5t-60.5 -25.5t-61.5 25.5t-26.5 60.5z" />
<glyph unicode="&#xf8;" horiz-adv-x="1767" d="M82 317q0 104 42 167t109.5 96.5t151.5 45t166 11.5h55l109 248q20 45 65 45q29 0 50.5 -22.5t21.5 -51.5q0 -16 -6 -29l-90 -206q31 -8 59.5 -17.5t56.5 -23.5q47 35 104.5 46t115.5 11h829q29 0 50.5 -21.5t21.5 -50.5t-21.5 -51t-50.5 -22h-829q-29 0 -55.5 -3.5 t-53.5 -13.5q20 -35 28.5 -76t8.5 -82q0 -104 -42 -166.5t-109.5 -96.5t-150.5 -44t-167 -10h-32.5t-33.5 2l-84 -192q-20 -43 -67 -43q-29 0 -50.5 21.5t-21.5 49.5q0 16 6 29l68 153q-53 12 -99.5 34t-81 56.5t-54 86t-19.5 120.5zM225 317q0 -20 2 -38.5t11 -36.5 q18 -39 61 -58.5t96 -29.5l148 338q-33 0 -79 -2.5t-91 -12.5t-82 -29.5t-53 -54.5q-8 -18 -10.5 -36.5t-2.5 -39.5zM547 143h4q33 0 79 2t92 11.5t85 30t55 55.5q8 18 10 36.5t2 38.5q0 37 -6 60.5t-32 52.5q-23 23 -61 35t-81 18z" />
<glyph unicode="&#xf9;" horiz-adv-x="1845" d="M82 317v248q0 29 21.5 50.5t50.5 21.5t50 -21.5t21 -50.5v-248q0 -23 2 -42t13 -39q16 -33 51 -51.5t77 -28t85 -11.5t73 -2q31 0 74 2t85 11.5t77 28t51 51.5q10 20 12 39.5t2 41.5v187q0 6 1 10t1 8q2 10 1 22.5t1 22.5q4 29 22.5 48.5t49.5 19.5h4q29 0 43.5 -11.5 t19.5 -30t5 -40v-41.5q0 -45 5 -108.5t23.5 -122t55.5 -98.5t100 -40h686q14 0 36 1t43.5 5.5t41 12.5t29.5 22q14 20 32.5 28.5t30.5 8.5q29 0 50.5 -21t21.5 -50q0 -18 -8 -35q-4 -10 -13.5 -20.5t-17.5 -16.5q-49 -45 -114.5 -61.5t-131.5 -16.5h-686q-158 0 -241 131 q-31 -43 -78 -68.5t-100.5 -40t-109 -18.5t-104.5 -4q-84 0 -163.5 12.5t-142 46t-100.5 96t-38 162.5zM348 1151q0 29 22.5 51.5t51.5 22.5q20 0 36.5 -12.5t26.5 -30.5l144 -295q6 -15 6 -31q0 -29 -21.5 -50.5t-50.5 -21.5q-45 0 -65 41l-142 295q-8 20 -8 31z" />
<glyph unicode="&#xfa;" horiz-adv-x="1845" d="M82 317v248q0 29 21.5 50.5t50.5 21.5t50 -21.5t21 -50.5v-248q0 -23 2 -42t13 -39q16 -33 51 -51.5t77 -28t85 -11.5t73 -2q31 0 74 2t85 11.5t77 28t51 51.5q10 20 12 39.5t2 41.5v187q0 6 1 10t1 8q2 10 1 22.5t1 22.5q4 29 22.5 48.5t49.5 19.5h4q29 0 43.5 -11.5 t19.5 -30t5 -40v-41.5q0 -45 5 -108.5t23.5 -122t55.5 -98.5t100 -40h686q14 0 36 1t43.5 5.5t41 12.5t29.5 22q14 20 32.5 28.5t30.5 8.5q29 0 50.5 -21t21.5 -50q0 -18 -8 -35q-4 -10 -13.5 -20.5t-17.5 -16.5q-49 -45 -114.5 -61.5t-131.5 -16.5h-686q-158 0 -241 131 q-31 -43 -78 -68.5t-100.5 -40t-109 -18.5t-104.5 -4q-84 0 -163.5 12.5t-142 46t-100.5 96t-38 162.5zM475 860q0 16 7 31l143 295q10 18 26.5 30.5t36.5 12.5q29 0 51.5 -22.5t22.5 -51.5q0 -10 -8 -31l-141 -294q-20 -41 -66 -41q-29 0 -50.5 21.5t-21.5 49.5z" />
<glyph unicode="&#xfb;" horiz-adv-x="1845" d="M82 317v248q0 29 21.5 50.5t50.5 21.5t50 -21.5t21 -50.5v-248q0 -23 2 -42t13 -39q16 -33 51 -51.5t77 -28t85 -11.5t73 -2q31 0 74 2t85 11.5t77 28t51 51.5q10 20 12 39.5t2 41.5v187q0 6 1 10t1 8q2 10 1 22.5t1 22.5q4 29 22.5 48.5t49.5 19.5h4q29 0 43.5 -11.5 t19.5 -30t5 -40v-41.5q0 -45 5 -108.5t23.5 -122t55.5 -98.5t100 -40h686q14 0 36 1t43.5 5.5t41 12.5t29.5 22q14 20 32.5 28.5t30.5 8.5q29 0 50.5 -21t21.5 -50q0 -18 -8 -35q-4 -10 -13.5 -20.5t-17.5 -16.5q-49 -45 -114.5 -61.5t-131.5 -16.5h-686q-158 0 -241 131 q-31 -43 -78 -68.5t-100.5 -40t-109 -18.5t-104.5 -4q-84 0 -163.5 12.5t-142 46t-100.5 96t-38 162.5zM270 897q0 33 27 55l199 160q20 16 45 16t45 -16l199 -160q26 -22 26 -55q0 -29 -21.5 -51.5t-50.5 -22.5q-25 0 -45 16l-153 123l-154 -123q-20 -16 -45 -16 q-29 0 -50.5 22.5t-21.5 51.5z" />
<glyph unicode="&#xfc;" horiz-adv-x="1845" d="M82 317v248q0 29 21.5 50.5t50.5 21.5t50 -21.5t21 -50.5v-248q0 -23 2 -42t13 -39q16 -33 51 -51.5t77 -28t85 -11.5t73 -2q31 0 74 2t85 11.5t77 28t51 51.5q10 20 12 39.5t2 41.5v187q0 6 1 10t1 8q2 10 1 22.5t1 22.5q4 29 22.5 48.5t49.5 19.5h4q29 0 43.5 -11.5 t19.5 -30t5 -40v-41.5q0 -45 5 -108.5t23.5 -122t55.5 -98.5t100 -40h686q14 0 36 1t43.5 5.5t41 12.5t29.5 22q14 20 32.5 28.5t30.5 8.5q29 0 50.5 -21t21.5 -50q0 -18 -8 -35q-4 -10 -13.5 -20.5t-17.5 -16.5q-49 -45 -114.5 -61.5t-131.5 -16.5h-686q-158 0 -241 131 q-31 -43 -78 -68.5t-100.5 -40t-109 -18.5t-104.5 -4q-84 0 -163.5 12.5t-142 46t-100.5 96t-38 162.5zM328 973q0 35 25.5 60.5t60.5 25.5t61.5 -25.5t26.5 -60.5t-26.5 -61.5t-61.5 -26.5t-60.5 26.5t-25.5 61.5zM573 973q0 35 26 60.5t60 25.5q35 0 62 -25.5t27 -60.5 t-27 -61.5t-62 -26.5t-60.5 26.5t-25.5 61.5z" />
<glyph unicode="&#xfd;" horiz-adv-x="1775" d="M82 317v248q0 29 21.5 50.5t50.5 21.5t50 -21.5t21 -50.5v-248q0 -23 3 -43t14 -41q16 -33 52 -50t77 -26.5t83 -11.5t72 -2q31 0 73 2t84 11.5t78 27t52 49.5q10 20 12 41t2 43v197q0 23 -2 45.5t-2 44.5q0 31 20.5 51.5t51.5 20.5t49.5 -19.5t22.5 -48.5q4 -23 4 -47 t2 -47q4 -59 4 -115.5t2 -115.5q6 -39 20 -70q12 -27 32 -48.5t50 -21.5h695q14 0 35.5 1t43 5.5t41 12.5t29.5 22q14 20 32.5 28.5t31.5 8.5q29 0 50 -21t21 -50q0 -18 -8 -35q-4 -10 -13 -20.5t-18 -16.5q-49 -45 -114.5 -61.5t-130.5 -16.5h-695q-57 0 -100 20 q-2 -72 -6 -187.5t-19.5 -245.5t-44 -262t-80 -238.5t-127 -173t-184.5 -66.5q-88 0 -160.5 45t-125 114.5t-81 154.5t-28.5 165q0 84 48 165t118.5 149.5t153.5 125t151 91.5q14 8 35 8q29 0 50 -21.5t21 -50.5q0 -41 -36 -63q-29 -16 -55.5 -31.5t-55.5 -34.5 q-37 -25 -86 -61.5t-93 -81.5t-76 -95.5t-32 -99.5t18.5 -106.5t51.5 -108.5t80 -85t102 -34q76 0 128 67t87 170t54.5 229t29.5 245t13.5 216t3.5 142q-68 -39 -151 -50t-159 -11q-84 0 -163.5 12.5t-142 46t-100.5 96t-38 162.5zM471 958q0 16 6 31l144 295 q10 18 26.5 30.5t36.5 12.5q29 0 51.5 -22.5t22.5 -51.5q0 -10 -8 -30l-142 -295q-20 -41 -65 -41q-29 0 -50.5 21.5t-21.5 49.5z" />
<glyph unicode="&#xfe;" horiz-adv-x="1753" d="M0 -197v1018q0 29 21.5 51.5t50.5 22.5t50 -22.5t21 -51.5v-168h926q84 0 170 -11t154.5 -46t111.5 -98.5t43 -169.5t-43 -171t-111.5 -99.5t-154.5 -46t-170 -11.5h-926v-197q0 -29 -21.5 -50t-49.5 -21q-29 0 -50.5 21.5t-21.5 49.5zM143 143h926q51 0 109.5 3.5 t108.5 20.5t83 55t33 106q0 27 -4 51t-21 47q-20 31 -59 48.5t-84 24.5t-89 9t-77 2h-926v-367z" />
<glyph unicode="&#xff;" horiz-adv-x="1775" d="M82 317v248q0 29 21.5 50.5t50.5 21.5t50 -21.5t21 -50.5v-248q0 -23 3 -43t14 -41q16 -33 52 -50t77 -26.5t83 -11.5t72 -2q31 0 73 2t84 11.5t78 27t52 49.5q10 20 12 41t2 43v197q0 23 -2 45.5t-2 44.5q0 31 20.5 51.5t51.5 20.5t49.5 -19.5t22.5 -48.5q4 -23 4 -47 t2 -47q4 -59 4 -115.5t2 -115.5q6 -39 20 -70q12 -27 32 -48.5t50 -21.5h695q14 0 35.5 1t43 5.5t41 12.5t29.5 22q14 20 32.5 28.5t31.5 8.5q29 0 50 -21t21 -50q0 -18 -8 -35q-4 -10 -13 -20.5t-18 -16.5q-49 -45 -114.5 -61.5t-130.5 -16.5h-695q-57 0 -100 20 q-2 -72 -6 -187.5t-19.5 -245.5t-44 -262t-80 -238.5t-127 -173t-184.5 -66.5q-88 0 -160.5 45t-125 114.5t-81 154.5t-28.5 165q0 84 48 165t118.5 149.5t153.5 125t151 91.5q14 8 35 8q29 0 50 -21.5t21 -50.5q0 -41 -36 -63q-29 -16 -55.5 -31.5t-55.5 -34.5 q-37 -25 -86 -61.5t-93 -81.5t-76 -95.5t-32 -99.5t18.5 -106.5t51.5 -108.5t80 -85t102 -34q76 0 128 67t87 170t54.5 229t29.5 245t13.5 216t3.5 142q-68 -39 -151 -50t-159 -11q-84 0 -163.5 12.5t-142 46t-100.5 96t-38 162.5zM331 895q0 35 26 60.5t60 25.5 q35 0 62 -25.5t27 -60.5t-27 -61.5t-62 -26.5t-60.5 27t-25.5 61zM577 895q0 35 25.5 60.5t60.5 25.5t61.5 -25.5t26.5 -60.5t-26.5 -61.5t-61.5 -26.5t-60.5 27t-25.5 61z" />
<glyph unicode="&#x152;" horiz-adv-x="3268" d="M0 580q0 125 38 230t140 185q68 53 157 86t184 50.5t191.5 22.5t178.5 5q88 0 190.5 -6t203.5 -25.5t193.5 -57.5t159.5 -103v123q0 29 21.5 51t50.5 22h1284q29 0 50.5 -22.5t21.5 -50.5q0 -29 -21.5 -50.5t-50.5 -21.5h-1212v-535h975q29 0 50 -21.5t21 -49.5 q0 -29 -21.5 -51.5t-49.5 -22.5h-975v-195h1212q29 0 50.5 -21t21.5 -50t-21.5 -50.5t-50.5 -21.5h-1284q-29 0 -50.5 21.5t-21.5 50.5v121q-68 -63 -160 -102.5t-193 -59t-203.5 -25.5t-190.5 -6q-82 0 -178.5 5t-191.5 22.5t-184 50.5t-157 86q-102 80 -140 185.5 t-38 230.5zM143 580q0 -53 8.5 -106.5t32.5 -100.5q43 -80 129 -126t188.5 -69.5t206 -29t181.5 -5.5q74 0 172 5.5t195.5 25t182.5 58t134 106.5q-23 0 -52.5 -1t-57 4t-46 20.5t-18.5 50.5q0 29 21.5 50t49.5 21h158q6 50 6 97q0 53 -8 106t-33 100q-43 80 -129 126 t-188 70t-205.5 29t-181.5 5t-181.5 -5t-206 -29t-188.5 -70t-129 -126q-25 -47 -33 -100t-8 -106z" />
<glyph unicode="&#x178;" d="M0 909v181q0 29 21.5 51t50.5 22t50 -22.5t21 -50.5v-181q0 -51 5.5 -102t25.5 -98q33 -78 99.5 -123t147.5 -67.5t167 -29t157 -6.5q72 0 158 6.5t167 29t147.5 67.5t99.5 123q20 47 25.5 98t5.5 102v181q0 29 21.5 51t49.5 22q29 0 50.5 -22.5t21.5 -50.5v-181 q0 -162 -50 -269.5t-140.5 -172t-214 -93t-269.5 -34.5v-268q0 -29 -21.5 -50.5t-50.5 -21.5t-50 21.5t-21 50.5v268q-145 6 -269 34.5t-214.5 93t-140.5 172.5t-50 269zM532 1382q0 35 26 60.5t60 25.5q35 0 62 -25.5t27 -60.5t-27 -61.5t-62 -26.5t-60.5 27t-25.5 61z M778 1382q0 35 25.5 60.5t60.5 25.5t61.5 -25.5t26.5 -60.5t-26.5 -61.5t-61.5 -26.5t-60.5 27t-25.5 61z" />
<glyph unicode="&#x2c6;" horiz-adv-x="1605" d="M532 1303q0 33 27 55l199 160q20 16 45 16t45 -16l199 -160q26 -22 26 -55q0 -29 -21.5 -51.5t-50.5 -22.5q-25 0 -45 16l-153 123l-154 -123q-20 -16 -45 -16q-29 0 -50.5 22.5t-21.5 51.5z" />
<glyph unicode="&#x2dc;" horiz-adv-x="1863" d="M532 1370q0 41 31 62l219 147q18 12 41 12t41 -12l176 -121l179 121q18 12 41 12q29 0 50 -21t21 -50q0 -37 -31 -60l-219 -149q-18 -12 -41 -13q-20 0 -39 13l-178 121l-178 -121q-18 -12 -41 -13q-29 0 -50.5 21.5t-21.5 50.5z" />
<glyph unicode="&#x2000;" horiz-adv-x="882" />
<glyph unicode="&#x2001;" horiz-adv-x="1765" />
<glyph unicode="&#x2002;" horiz-adv-x="882" />
<glyph unicode="&#x2003;" horiz-adv-x="1765" />
<glyph unicode="&#x2004;" horiz-adv-x="588" />
<glyph unicode="&#x2005;" horiz-adv-x="441" />
<glyph unicode="&#x2006;" horiz-adv-x="294" />
<glyph unicode="&#x2007;" horiz-adv-x="294" />
<glyph unicode="&#x2008;" horiz-adv-x="220" />
<glyph unicode="&#x2009;" horiz-adv-x="353" />
<glyph unicode="&#x200a;" horiz-adv-x="98" />
<glyph unicode="&#x2010;" horiz-adv-x="1124" d="M0 565q0 29 21.5 50.5t50.5 21.5h776q29 0 50.5 -21.5t21.5 -50.5t-21.5 -51t-50.5 -22h-776q-29 0 -50.5 22.5t-21.5 50.5z" />
<glyph unicode="&#x2011;" horiz-adv-x="1124" d="M0 565q0 29 21.5 50.5t50.5 21.5h776q29 0 50.5 -21.5t21.5 -50.5t-21.5 -51t-50.5 -22h-776q-29 0 -50.5 22.5t-21.5 50.5z" />
<glyph unicode="&#x2012;" horiz-adv-x="1124" d="M0 565q0 29 21.5 50.5t50.5 21.5h776q29 0 50.5 -21.5t21.5 -50.5t-21.5 -51t-50.5 -22h-776q-29 0 -50.5 22.5t-21.5 50.5z" />
<glyph unicode="&#x2013;" horiz-adv-x="878" d="M0 565q0 29 21.5 50.5t50.5 21.5h530q29 0 50.5 -21.5t21.5 -50.5t-21.5 -51t-50.5 -22h-530q-29 0 -50.5 22.5t-21.5 50.5z" />
<glyph unicode="&#x2014;" horiz-adv-x="1329" d="M0 565q0 29 21.5 50.5t50.5 21.5h981q29 0 50 -21.5t21 -50.5t-21.5 -51t-49.5 -22h-981q-29 0 -50.5 22.5t-21.5 50.5z" />
<glyph unicode="&#x2018;" horiz-adv-x="491" d="M0 795q0 16 6 30l144 295q10 18 26.5 30.5t36.5 12.5q29 0 51.5 -22t22.5 -51q0 -10 -8 -31l-142 -295q-20 -41 -65 -41q-29 0 -50.5 21.5t-21.5 50.5z" />
<glyph unicode="&#x2019;" horiz-adv-x="491" d="M0 795q0 16 6 30l144 295q10 18 26.5 30.5t36.5 12.5q29 0 51.5 -22t22.5 -51q0 -10 -8 -31l-142 -295q-20 -41 -65 -41q-29 0 -50.5 21.5t-21.5 50.5z" />
<glyph unicode="&#x201a;" horiz-adv-x="491" d="M0 -225q0 16 6 32l144 295q20 41 63 41q29 0 51.5 -21t22.5 -50q0 -10 -8 -31l-142 -297q-20 -41 -65 -41q-29 0 -50.5 21.5t-21.5 50.5z" />
<glyph unicode="&#x201c;" horiz-adv-x="770" d="M0 795q0 16 6 30l144 295q10 18 26.5 30.5t36.5 12.5q29 0 51.5 -22t22.5 -51q0 -10 -8 -31l-142 -295q-20 -41 -65 -41q-29 0 -50.5 21.5t-21.5 50.5zM279 795q0 16 6 30l143 295q10 18 26.5 30.5t37.5 12.5q29 0 51 -22t22 -51q0 -10 -8 -31l-141 -295q-20 -41 -66 -41 q-29 0 -50 21.5t-21 50.5z" />
<glyph unicode="&#x201d;" horiz-adv-x="770" d="M0 795q0 16 6 30l144 295q10 18 26.5 30.5t36.5 12.5q29 0 51.5 -22t22.5 -51q0 -10 -8 -31l-142 -295q-20 -41 -65 -41q-29 0 -50.5 21.5t-21.5 50.5zM279 795q0 16 6 30l143 295q10 18 26.5 30.5t37.5 12.5q29 0 51 -22t22 -51q0 -10 -8 -31l-141 -295q-20 -41 -66 -41 q-29 0 -50 21.5t-21 50.5z" />
<glyph unicode="&#x201e;" horiz-adv-x="778" d="M0 -225q0 16 6 32l144 295q20 41 63 41q29 0 51.5 -21t22.5 -50q0 -10 -8 -31l-142 -297q-20 -41 -65 -41q-29 0 -50.5 21.5t-21.5 50.5zM287 -225q0 16 6 32l143 295q20 41 64 41q29 0 51 -21t22 -50q0 -10 -8 -31l-141 -297q-20 -41 -66 -41q-29 0 -50 21.5t-21 50.5z " />
<glyph unicode="&#x2022;" horiz-adv-x="686" d="M0 645q0 49 18.5 93t51 77t76.5 51.5t94 18.5q49 0 93 -18.5t76.5 -51.5t52 -77t19.5 -93t-19.5 -93t-52 -77t-76.5 -52.5t-93 -19.5t-93.5 19.5t-77 52.5t-51 77t-18.5 93z" />
<glyph unicode="&#x2026;" horiz-adv-x="993" d="M0 72q0 35 25.5 60.5t60.5 25.5t61.5 -25.5t26.5 -60.5t-26.5 -60.5t-61.5 -25.5t-60.5 25.5t-25.5 60.5zM307 72q0 35 25.5 60.5t60.5 25.5t61.5 -25.5t26.5 -60.5t-26.5 -60.5t-61.5 -25.5t-60.5 25.5t-25.5 60.5zM614 72q0 35 26 60.5t60 25.5q35 0 61.5 -25.5 t26.5 -60.5t-26.5 -60.5t-61.5 -25.5t-60.5 25.5t-25.5 60.5z" />
<glyph unicode="&#x202f;" horiz-adv-x="353" />
<glyph unicode="&#x2039;" horiz-adv-x="491" d="M0 565q0 16 6 31l144 295q20 41 63 41q29 0 51.5 -21.5t22.5 -50.5q0 -10 -8 -31l-127 -264l127 -266q8 -21 8 -31q0 -29 -22.5 -50t-51.5 -21q-43 0 -63 41l-144 294q-6 16 -6 33z" />
<glyph unicode="&#x203a;" horiz-adv-x="491" d="M0 268q0 10 8 31l127 266l-127 264q-8 20 -8 31q0 29 22.5 50.5t51.5 21.5q43 0 63 -41l144 -295q6 -15 6 -31t-6 -33l-144 -294q-20 -41 -63 -41q-29 0 -51.5 21.5t-22.5 49.5z" />
<glyph unicode="&#x205f;" horiz-adv-x="441" />
<glyph unicode="&#x20ac;" horiz-adv-x="1470" d="M0 508q0 29 29 29h200q-2 14 -2 28.5v28.5h-198q-29 0 -29 29t29 28h204q14 102 71.5 162.5t136.5 92.5t171.5 41t175.5 9q51 0 113 -4t123 -15t118.5 -32.5t96.5 -58.5q27 -23 27 -55q0 -29 -21.5 -50.5t-50.5 -21.5q-25 0 -47 16q-74 53 -172 65.5t-187 12.5 q-45 0 -110.5 -3t-128 -18.5t-111.5 -48t-61 -92.5h465q29 0 28 -28q0 -29 -28 -29h-469v-19q0 -10 -1 -19t1 -19h352q29 0 29 -29t-29 -29h-336q23 -45 72 -71.5t107.5 -40t117.5 -16.5t102 -3q88 0 186.5 12.5t172.5 65.5q23 16 47 16q29 0 50.5 -21t21.5 -50 q0 -33 -27 -56q-39 -37 -96.5 -58t-118.5 -32.5t-122.5 -15.5t-113.5 -4q-78 0 -165.5 8t-165.5 35.5t-137.5 83t-79.5 147.5h-211q-29 0 -29 29z" />
<glyph unicode="&#x2122;" horiz-adv-x="2035" d="M0 1090q0 29 21.5 50t50.5 21h643q29 0 50 -21t21 -50t-21.5 -51.5t-49.5 -22.5h-250v-436q0 -29 -21.5 -50.5t-50.5 -21.5t-50 21.5t-21 50.5v436h-250q-29 0 -50.5 22.5t-21.5 51.5zM813 580v266q0 145 67.5 229t223.5 84q59 0 117.5 -16.5t99.5 -63.5 q41 47 100.5 63.5t118.5 16.5q156 0 223.5 -84t67.5 -229v-266q0 -29 -21.5 -50.5t-50.5 -21.5t-50 21.5t-21 50.5v258q0 43 -5.5 76.5t-20.5 55t-44 33t-78 11.5t-77.5 -11.5t-44 -33t-19.5 -55t-4 -76.5v-258q0 -29 -22.5 -50.5t-51.5 -21.5t-50.5 21.5t-21.5 50.5v258 q0 43 -4 76.5t-19.5 55t-44 33t-77.5 11.5t-78 -11.5t-44 -33t-20.5 -55t-5.5 -76.5v-258q0 -29 -21.5 -50.5t-49.5 -21.5q-29 0 -50.5 21.5t-21.5 50.5z" />
<glyph unicode="&#xe000;" horiz-adv-x="634" d="M0 0v635h635v-635h-635z" />
</font>
</defs>
</svg>
